<svg width="24" height="24" viewBox="0 0 24 24" fill="none" xmlns="http://www.w3.org/2000/svg">
<path d="M10.8653 6.34295C10.7475 6.00824 10.5287 5.71833 10.2391 5.51322C9.94959 5.30811 9.60353 5.19791 9.24869 5.19781H7.92012C7.54322 5.19886 7.17996 5.33892 6.89991 5.59116C6.61985 5.84339 6.44269 6.19008 6.40235 6.56481C6.36201 6.93954 6.46133 7.31599 6.68128 7.62205C6.90124 7.92811 7.22637 8.14227 7.5944 8.22352L9.61383 8.66581C10.027 8.75599 10.3923 8.99575 10.6395 9.33897C10.8866 9.6822 10.9981 10.1047 10.9526 10.5251C10.9071 10.9456 10.7077 11.3344 10.3929 11.6168C10.078 11.8992 9.66992 12.0553 9.24698 12.0549H8.10355C7.74912 12.0551 7.40337 11.9454 7.11387 11.7409C6.82436 11.5365 6.60535 11.2473 6.48698 10.9132M8.67783 5.19781V3.48352M8.67783 13.7692V12.0549M11.947 23.1412V14.1412C11.947 13.5729 12.1727 13.0279 12.5746 12.626C12.9765 12.2241 13.5215 11.9984 14.0898 11.9984C14.6582 11.9984 15.2032 12.2241 15.6051 12.626C16.0069 13.0279 16.2327 13.5729 16.2327 14.1412V18.8555H19.6613C20.5706 18.8555 21.4426 19.2167 22.0856 19.8597C22.7286 20.5027 23.0898 21.3748 23.0898 22.2841V23.1412" stroke="white" stroke-width="1.71429" stroke-linecap="round" stroke-linejoin="round"/>
<path d="M8.67945 16.3955C7.09782 16.3952 5.55393 15.9122 4.25423 15.0109C2.95452 14.1096 1.96093 12.833 1.40631 11.3518C0.851685 9.87058 0.762458 8.25536 1.15056 6.72207C1.53866 5.18879 2.38559 3.81052 3.57811 2.77155C4.77063 1.73257 6.25191 1.08241 7.82391 0.907981C9.3959 0.733555 10.9837 1.04318 12.375 1.79546C13.7662 2.54774 14.8947 3.70681 15.6095 5.11772C16.3243 6.52863 16.5913 8.12413 16.3749 9.69089" stroke="white" stroke-width="1.71429" stroke-linecap="round"/>
</svg>
