<svg width="24" height="24" viewBox="0 0 24 24" fill="none" xmlns="http://www.w3.org/2000/svg">
<path d="M21.0001 7C21.255 7.00028 21.5001 7.09788 21.6855 7.27285C21.8708 7.44782 21.9823 7.68695 21.9973 7.94139C22.0122 8.19584 21.9294 8.44638 21.7658 8.64183C21.6023 8.83729 21.3702 8.9629 21.1171 8.993L21.0001 9V19C21.255 19.0003 21.5001 19.0979 21.6855 19.2728C21.8708 19.4478 21.9823 19.687 21.9973 19.9414C22.0122 20.1958 21.9294 20.4464 21.7658 20.6418C21.6023 20.8373 21.3702 20.9629 21.1171 20.993L21.0001 21H3.00011C2.74523 20.9997 2.50008 20.9021 2.31474 20.7272C2.12941 20.5522 2.01788 20.313 2.00294 20.0586C1.988 19.8042 2.07079 19.5536 2.23438 19.3582C2.39797 19.1627 2.63002 19.0371 2.88311 19.007L3.00011 19V9C2.74523 8.99972 2.50008 8.90212 2.31474 8.72715C2.12941 8.55218 2.01788 8.31305 2.00294 8.05861C1.988 7.80416 2.07079 7.55362 2.23438 7.35817C2.39797 7.16271 2.63002 7.0371 2.88311 7.007L3.00011 7H21.0001ZM19.0001 9H5.00011V19H7.00011V12C7.00011 11.7348 7.10547 11.4804 7.29301 11.2929C7.48054 11.1054 7.7349 11 8.00011 11C8.26533 11 8.51968 11.1054 8.70722 11.2929C8.89476 11.4804 9.00011 11.7348 9.00011 12V19H11.0001V12C11.0001 11.7348 11.1055 11.4804 11.293 11.2929C11.4805 11.1054 11.7349 11 12.0001 11C12.2653 11 12.5197 11.1054 12.7072 11.2929C12.8948 11.4804 13.0001 11.7348 13.0001 12V19H15.0001V12C15.0001 11.7348 15.1055 11.4804 15.293 11.2929C15.4805 11.1054 15.7349 11 16.0001 11C16.2653 11 16.5197 11.1054 16.7072 11.2929C16.8948 11.4804 17.0001 11.7348 17.0001 12V19H19.0001V9ZM18.0001 4C18.2653 4 18.5197 4.10536 18.7072 4.29289C18.8948 4.48043 19.0001 4.73478 19.0001 5C19.0001 5.26522 18.8948 5.51957 18.7072 5.70711C18.5197 5.89464 18.2653 6 18.0001 6H6.00011C5.7349 6 5.48054 5.89464 5.29301 5.70711C5.10547 5.51957 5.00011 5.26522 5.00011 5C5.00011 4.73478 5.10547 4.48043 5.29301 4.29289C5.48054 4.10536 5.7349 4 6.00011 4H18.0001Z" fill="white"/>
</svg>
