<svg width="20" height="20" viewBox="0 0 20 20" fill="none" xmlns="http://www.w3.org/2000/svg">
<path d="M13.25 0.750001L6.75 0.750001C3.43629 0.75 0.75 3.43629 0.749999 6.75L0.749999 13.25C0.749999 16.5637 3.43629 19.25 6.75 19.25L13.25 19.25C16.5637 19.25 19.25 16.5637 19.25 13.25L19.25 6.75C19.25 3.43629 16.5637 0.750001 13.25 0.750001Z" stroke="white" stroke-width="1.5"/>
<path d="M5 12.844L7.322 9.75401C7.466 9.56461 7.67583 9.43614 7.91 9.39401C8.14182 9.35 8.38173 9.39385 8.583 9.51701L10.848 10.947C11.058 11.079 11.308 11.123 11.55 11.071C11.7934 11.0215 12.0077 10.8786 12.147 10.673L14.479 7.15601" stroke="white" stroke-width="1.5" stroke-linecap="round" stroke-linejoin="round"/>
<path d="M11.6831 7.67801L14.4791 7.15601L15.0001 9.95301" stroke="white" stroke-width="1.5" stroke-linecap="round" stroke-linejoin="round"/>
</svg>
