<svg width="75" height="35" viewBox="0 0 75 35" fill="none" xmlns="http://www.w3.org/2000/svg">
<path d="M6.0714 30.963C8.56897 30.4619 8.79133 34.9343 6.44862 34.9992C4.35606 35.0595 4.08605 31.362 6.0714 30.963Z" fill="#00B9A2"/>
<path d="M10.2205 30.8845C11.2727 30.736 12.2058 31.868 12.1026 33.0835C11.9477 34.8975 9.89886 35.5424 9.00546 34.0625C8.23911 32.7959 8.93001 31.0654 10.2245 30.8845H10.2205Z" fill="#00B9A2"/>
<path d="M53.2391 0V4.76462L35.3829 17.4254L36.9553 18.7523C38.619 20.5384 39.4211 23.0994 39.5283 25.7113C40.4773 25.5582 42.816 26.1242 43.4354 25.1593C44.2455 23.902 43.5347 19.8147 43.8722 18.2095H47.418V23.7164C47.418 23.9623 47.5411 24.7185 47.6086 24.9783C47.9263 26.2077 49.2485 26.2402 49.8243 25.2799C49.995 24.9969 50.2253 24.1247 50.2253 23.7953V18.2095H53.6362V24.2639C53.6362 24.4262 53.8426 25.0108 53.9419 25.1593C54.3628 25.7948 55.7446 25.7902 56.3521 25.6371C56.5983 23.169 56.4951 20.6637 56.1814 18.2095H59.7947C59.8662 18.8126 59.9535 19.4389 59.9932 20.0467C60.1004 21.7122 60.0568 23.387 59.9932 25.0479C59.9297 26.7088 59.9257 27.6831 59.7312 28.9589L54.2079 28.996C53.3463 28.8893 52.4846 28.6202 51.8057 27.9753C51.6429 27.8222 51.4999 27.4511 51.3371 27.5068C50.5152 29.2883 48.0613 29.5249 46.5683 29.0146C45.8139 28.7548 45.3493 28.2166 44.98 27.4325C44.6981 27.8594 44.444 28.2398 44.031 28.5089C43.8087 28.6527 42.9947 28.9914 42.7723 28.9914H16.7921C16.7127 26.8433 16.8993 24.5979 16.7921 22.4638C16.7643 21.8653 16.661 20.7147 16.3513 20.2462C15.8034 19.4111 14.3779 19.6013 13.5798 19.6941L13.5123 28.9914C9.64879 28.7687 3.69275 30.0955 1.084 25.8134C0.62737 25.0665 0 23.3731 0 22.4684V16.646H3.67686C3.85157 17.2213 3.68481 17.8337 3.67686 18.3997C3.65304 19.7637 3.58157 21.8282 3.94687 23.0947C4.75689 25.9201 8.03669 25.7345 10.1014 25.7113V16.8038C10.836 16.6275 11.5944 16.4929 12.3409 16.4141C16.0178 16.0336 19.8574 15.9919 20.1989 21.3782C20.5404 26.7645 20.0719 24.2035 20.1989 25.4469C20.326 26.6902 20.2307 25.716 20.3022 25.716H24.4476C24.4555 25.716 24.5468 25.6093 24.5468 25.6V16.7713C24.5468 16.762 24.6382 16.6553 24.6461 16.6553H28.0569C28.0649 16.6553 28.1562 16.762 28.1562 16.7713V25.7206H36.0499C36.0063 22.2133 33.6953 19.9864 30.9079 19.3786V16.2795C30.9119 16.2795 52.9492 0.102066 52.9492 0.102066C53.0366 0.0324761 53.1319 0.00927815 53.2391 0.0139175V0Z" fill="#00B9A2"/>
<path d="M53.2391 0C53.4893 0.00463936 54.5376 0.844362 54.8393 1.06241C60.8113 5.35846 66.7911 9.69626 72.6955 14.1129C73.2634 14.5351 73.859 14.9341 74.3752 15.4352V19.8518L73.9543 19.6802L53.2431 4.76926V0.00463823L53.2391 0Z" fill="#85939E"/>
</svg>
