<svg width="196" height="45" viewBox="0 0 196 45" fill="none" xmlns="http://www.w3.org/2000/svg">
<path d="M161.212 20.006C162.131 21.0055 162.592 22.1079 162.592 23.3132C162.592 24.2971 162.349 25.4068 161.866 26.6444C161.382 27.882 160.831 29.0748 160.212 30.2251C159.593 31.3753 158.801 32.7034 157.833 34.2104H152.552C151.679 34.2104 150.961 33.9691 150.399 33.4844C149.835 33.0008 149.38 32.3862 149.03 31.6405C148.681 30.8948 148.403 30.0982 148.197 29.2496C147.991 28.4009 147.825 27.596 147.698 26.8347C147.571 26.0734 147.444 25.4473 147.317 24.9554C147.381 25.907 147.365 26.9148 147.269 27.9766C147.174 29.0384 146.94 30.042 146.567 30.9864C146.194 31.9296 145.608 32.7034 144.807 33.3056C144.006 33.9088 142.899 34.2093 141.488 34.2093C140.584 34.2093 139.767 34.0897 139.038 33.8526C138.308 33.6144 137.649 33.2816 137.063 32.8532L135.184 39.5622C133.582 40.8944 131.718 41.9646 129.594 42.7737C127.468 43.5828 125.081 43.9874 122.432 43.9874C120.085 43.9874 118.008 43.4123 116.199 42.2631C114.391 41.1128 113.039 39.61 112.143 37.7547C111.247 35.8993 110.95 33.8848 111.251 31.7123C111.553 29.5397 112.599 27.3984 114.391 25.2892C116.184 23.1801 118.88 21.3008 122.48 19.6514C120.164 21.253 118.602 23.2758 117.794 25.7177C116.985 28.1607 116.961 30.4601 117.722 32.6171C118.341 34.2187 119.435 35.4833 121.005 36.412C122.576 37.3397 124.368 37.8192 126.382 37.8514C128.872 37.8192 130.961 37.2763 132.651 36.2217C134.34 35.1672 135.685 33.9504 136.684 32.5703C135.177 31.238 134.138 29.5408 133.567 27.4795L135.21 21.3414C135.225 21.8167 135.384 22.4084 135.686 23.1136C135.986 23.8197 136.415 24.529 136.97 25.2424C137.526 25.9559 138.208 26.5591 139.016 27.051C139.825 27.5429 140.753 27.7884 141.799 27.7884C142.528 27.7884 143.155 27.6771 143.678 27.4556C144.201 27.234 144.637 26.9408 144.987 26.5757C145.336 26.2107 145.621 25.8103 145.844 25.3745C146.065 24.9388 146.24 24.502 146.367 24.0662C146.494 23.6304 146.588 23.23 146.653 22.865C146.715 22.5 146.767 22.2067 146.807 21.9841C146.846 21.7626 146.893 21.6472 146.949 21.6388C147.005 21.6316 147.088 21.7616 147.199 22.0309C147.326 22.3481 147.508 22.8161 147.746 23.4349C147.983 24.0537 148.289 24.6923 148.662 25.3496C149.034 26.0079 149.487 26.5788 150.018 27.0624C150.55 27.546 151.164 27.7884 151.862 27.7884H159.998C158.539 26.7099 156.485 25.0688 153.837 22.864L156.216 12.8956C156.327 14.0052 156.878 15.1638 157.869 16.3692C158.86 17.5745 159.975 18.7882 161.212 20.0092V20.006Z" fill="white"/>
<path d="M195.034 19.4653C195.391 21.4486 195.794 26.0506 193.772 26.8129C191.125 27.8113 188.284 28.2626 185.637 29.3276C183.407 30.2241 181.535 31.2506 180.022 32.405C178.508 33.5594 177.009 34.9717 175.524 36.6419C174.585 37.6726 173.558 38.6793 172.443 39.6621C171.328 40.6459 170.098 41.5258 168.754 42.3047C167.409 43.0826 165.929 43.6702 164.311 44.0665C162.077 44.6135 160.052 44.6811 158.236 44.2682C156.42 43.8554 154.819 43.1003 153.431 42.0031C152.044 40.9059 150.468 39.5102 149.523 37.9461C148.577 36.3819 148.261 34.7699 147.757 32.9832C149.502 38.7115 153.67 40.6553 160.256 38.8134C162.74 38.0251 164.927 36.8822 166.813 35.3835C168.7 33.8849 170.427 32.2906 171.998 30.5995C173.567 28.9095 175.128 27.3797 176.679 26.0121C178.229 24.6445 179.918 23.6877 181.744 23.1427C181.361 21.3758 181.41 19.7097 181.893 18.1466C182.376 16.5834 183.033 15.2013 183.866 14.0011C184.699 12.801 185.828 11.5124 187.254 10.1344C188.529 11.4063 189.675 12.489 190.695 13.3823C191.637 14.2081 193.062 14.9309 193.844 15.8825C194.515 16.6989 194.79 18.2412 194.991 19.2531C195.004 19.3207 195.018 19.3925 195.031 19.4674L195.034 19.4653ZM186.703 21.877L190.262 21.0055C189.51 20.471 188.812 19.9562 188.168 19.4611C187.409 18.8964 186.528 18.4825 185.526 18.2225C184.522 17.9625 183.679 17.9978 182.992 18.3286C182.306 18.6603 182.039 19.4351 182.191 20.6561C182.25 21.0336 182.437 21.3633 182.752 21.6451C183.066 21.928 183.537 22.1017 184.166 22.1682C184.795 22.2348 185.64 22.1381 186.703 21.8781V21.877Z" fill="white"/>
<path d="M192.888 29.6718L194.88 31.6821C190.391 31.7102 185.475 34.0908 179.241 39.9616L178.253 38.3184C182.23 33.5146 187.229 30.8897 192.889 29.6718H192.888Z" fill="white"/>
<path d="M165.871 0.0546909C168.225 5.38677 169.511 10.4214 169.723 15.1596C169.935 19.8968 169.374 24.0777 168.037 27.6989C166.7 31.3212 164.9 34.1032 162.633 36.0449C164.069 33.5843 166.25 25.8061 166.118 22.9222C165.986 20.0393 165.466 17.2896 164.562 14.6719C163.656 12.0552 162.888 9.08397 161.038 5.68941L165.871 0.0536499V0.0546909Z" fill="white"/>
<path d="M130.324 21.5421C131.027 22.06 131.482 22.8411 131.69 23.8863C131.896 24.9315 131.814 25.9195 131.442 26.8513C130.882 27.8445 130.075 28.3208 129.02 28.2792C127.964 28.2387 127.249 27.6896 126.877 26.634C126.608 27.1519 126.204 27.597 125.667 27.9693C125.128 28.3427 124.382 28.5288 123.431 28.5288C122.479 28.5288 121.888 28.1877 121.537 27.5044C121.351 27.1529 121.247 26.7598 121.226 26.3251C121.184 25.2071 121.464 24.1723 122.064 23.2196C121.898 24.0069 121.878 24.607 122.002 25.0209C122.125 25.4348 122.322 25.7094 122.591 25.8436C122.86 25.9788 123.12 26.0453 123.368 26.0453C124.154 26.0453 124.77 25.9205 125.215 25.673C125.66 25.4244 125.986 25.1041 126.193 24.71C126.4 24.3168 126.534 23.9029 126.596 23.4682L127.497 23.8405C127.455 24.7308 127.342 25.466 127.156 26.0453H131.409C130.498 25.0719 129.567 24.3064 128.615 23.748L130.323 21.5432L130.324 21.5421Z" fill="white"/>
<path d="M3.44887 33.8631L1.52799 29.545H0.668945V36.0855H1.56439V31.6655L3.12959 35.1766H3.76815L5.33334 31.5782V36.0855H6.22879V29.545H5.36975L3.44887 33.8631Z" fill="white"/>
<path d="M9.58901 31.3483C8.96501 31.3483 8.48141 31.5386 8.13821 31.9193C7.79501 32.2999 7.62341 32.8386 7.62341 33.5344V34.0606C7.62341 34.7294 7.80125 35.2452 8.15901 35.6082C8.51573 35.9711 9.02013 36.1521 9.67013 36.1521C9.96133 36.1521 10.2505 36.0918 10.5385 35.9701C10.8266 35.8484 11.0856 35.6768 11.3165 35.4553L10.7133 34.8521C10.5697 34.9873 10.4054 35.0923 10.2234 35.1672C10.0404 35.2421 9.85629 35.2795 9.67013 35.2795C9.29781 35.2795 9.00973 35.1766 8.80381 34.9696C8.60621 34.7699 8.50429 34.486 8.49701 34.1199H11.4371V33.8142C11.4371 33.0342 11.2759 32.4289 10.9535 31.9973C10.6311 31.5657 10.1756 31.3494 9.58797 31.3494L9.58901 31.3483ZM8.49909 33.3815C8.51365 33.0154 8.60829 32.7263 8.78405 32.5183C8.97541 32.2906 9.24477 32.1762 9.58901 32.1762C9.87397 32.1762 10.1007 32.2822 10.2702 32.4954C10.4397 32.7086 10.5375 33.004 10.5645 33.3815H8.49805H8.49909Z" fill="white"/>
<path d="M14.8337 31.3483C14.5581 31.3483 14.3054 31.4263 14.0756 31.5823C13.8936 31.7061 13.7407 31.8694 13.6149 32.068V31.4159H12.6976V36.0845H13.6149V33.1288C13.6149 32.8438 13.6949 32.6213 13.8551 32.4611C14.0153 32.301 14.2409 32.2209 14.5321 32.2209C14.6944 32.2209 14.8369 32.2469 14.9596 32.2978C15.0823 32.3488 15.1842 32.4237 15.2653 32.5225L15.8633 31.7123C15.7344 31.5927 15.5836 31.5023 15.4109 31.4399C15.2383 31.3785 15.0459 31.3473 14.8327 31.3473L14.8337 31.3483Z" fill="white"/>
<path d="M18.2969 31.3483C17.9433 31.3483 17.6209 31.4076 17.3318 31.5262C17.0427 31.6447 16.8097 31.8101 16.6319 32.0233L17.3017 32.4819C17.4421 32.3769 17.6022 32.2968 17.7811 32.2417C17.96 32.1866 18.1399 32.1585 18.3229 32.1585C18.6225 32.1585 18.8544 32.2438 19.0177 32.4123C19.1809 32.5818 19.2631 32.8189 19.2631 33.1257V33.3233H17.9766C17.4514 33.3233 17.0583 33.4377 16.7962 33.6675C16.5341 33.8974 16.4031 34.2437 16.4031 34.7086C16.4031 35.1974 16.5466 35.5603 16.8326 35.7974C17.1186 36.0346 17.5481 36.1531 18.1212 36.1531C18.3157 36.1531 18.4904 36.1334 18.6453 36.0928C18.7993 36.0522 18.9365 35.9919 19.0572 35.9108C19.1341 35.8588 19.2028 35.7964 19.2641 35.7246V36.0855H20.1367V33.0851C20.1367 32.5339 19.9765 32.1065 19.6552 31.8028C19.3338 31.5002 18.8814 31.3483 18.2969 31.3483ZM19.0031 35.293C18.8294 35.3679 18.5684 35.4054 18.22 35.4054C17.9017 35.4054 17.6636 35.3482 17.5045 35.2348C17.3453 35.1214 17.2663 34.9457 17.2663 34.7086C17.2663 34.4902 17.3266 34.3269 17.4462 34.2208C17.5658 34.1147 17.7447 34.0606 17.9818 34.0606H19.2641V34.9426C19.2641 35.1017 19.1768 35.2182 19.0031 35.293Z" fill="white"/>
<path d="M24.5806 33.5303C24.4121 33.4398 24.2291 33.3795 24.0294 33.3483C23.8297 33.3171 23.6332 33.2952 23.4377 33.2827C23.2338 33.2682 23.0435 33.2515 22.8667 33.2328C22.6899 33.2151 22.5474 33.1756 22.4393 33.1132C22.3311 33.0519 22.277 32.951 22.277 32.8095C22.277 32.5963 22.355 32.4372 22.511 32.3301C22.667 32.224 22.901 32.1699 23.213 32.1699C23.4293 32.1699 23.6498 32.2074 23.8765 32.2823C24.1033 32.3571 24.3331 32.4695 24.5671 32.6192L25.1204 31.9495C24.8448 31.7456 24.5494 31.5938 24.2343 31.495C23.9192 31.3962 23.5791 31.3463 23.213 31.3463C22.6129 31.3463 22.1616 31.469 21.8589 31.7155C21.5563 31.9609 21.4045 32.3311 21.4045 32.8262C21.4045 33.0987 21.4502 33.316 21.5417 33.4783C21.6333 33.6405 21.7549 33.7622 21.9078 33.8443C22.0607 33.9265 22.2302 33.9837 22.4164 34.0149C22.6025 34.0461 22.7897 34.07 22.979 34.0846C23.2037 34.0991 23.4148 34.1179 23.6113 34.1407C23.8079 34.1636 23.967 34.2104 24.0877 34.2822C24.2093 34.3539 24.2697 34.4766 24.2697 34.6514C24.2697 34.876 24.1792 35.0445 23.9972 35.1578C23.8162 35.2702 23.5437 35.3263 23.1808 35.3263C22.9374 35.3263 22.693 35.2785 22.4455 35.1828C22.198 35.0871 21.9473 34.9426 21.6925 34.7512L21.1486 35.421C21.4159 35.6633 21.7175 35.8463 22.0545 35.967C22.3914 36.0887 22.7669 36.149 23.1808 36.149C23.8349 36.149 24.3237 36.0242 24.6493 35.7756C24.9748 35.5271 25.137 35.1516 25.137 34.6514C25.137 34.3456 25.0861 34.1043 24.9841 33.9275C24.8822 33.7507 24.747 33.6176 24.5796 33.5271L24.5806 33.5303Z" fill="white"/>
<path d="M32.1685 32.7336C32.5793 32.6588 32.8809 32.4851 33.0722 32.2136C33.2636 31.9422 33.3603 31.6427 33.3603 31.3161C33.3603 30.7763 33.2033 30.3458 32.8882 30.0255C32.573 29.7051 32.0936 29.5439 31.4488 29.5439H28.8717V36.0845H31.5258C32.1165 36.0845 32.5845 35.9212 32.9287 35.5947C33.274 35.2681 33.4456 34.8375 33.4456 34.304V34.2905C33.4456 33.9067 33.3343 33.5667 33.1107 33.2692C32.8871 32.9728 32.573 32.7939 32.1685 32.7336ZM31.2824 30.3947C31.6662 30.3947 31.9542 30.4758 32.1456 30.637C32.337 30.7992 32.4337 31.0436 32.4337 31.3702C32.4337 31.6791 32.3474 31.9141 32.1747 32.0743C32.0021 32.2344 31.7462 32.3145 31.4082 32.3145H29.7848V30.3936H31.2824V30.3947ZM32.52 34.2229C32.52 34.5255 32.4191 34.7699 32.2163 34.9561C32.0135 35.1423 31.6703 35.2348 31.1836 35.2348H29.7848V33.1434H31.4082C31.8045 33.1434 32.0884 33.2401 32.261 33.4335C32.4337 33.627 32.52 33.8859 32.52 34.2094V34.2229Z" fill="white"/>
<path d="M37.5442 34.3623C37.5442 34.6535 37.4621 34.8792 37.2988 35.0393C37.1355 35.1995 36.9025 35.2796 36.5989 35.2796C36.2952 35.2796 36.0612 35.1901 35.8948 35.0123C35.7284 34.8344 35.6452 34.5817 35.6452 34.2541V31.416H34.7279V34.2541C34.7279 34.8563 34.8683 35.3243 35.1481 35.655C35.4289 35.9868 35.8261 36.1521 36.342 36.1521C36.681 36.1521 36.9556 36.0689 37.1657 35.9025C37.331 35.7715 37.4558 35.6259 37.5432 35.4668V36.0845H38.4563V31.416H37.5432V34.3623H37.5442Z" fill="white"/>
<path d="M42.9013 33.5303C42.7328 33.4398 42.5497 33.3795 42.3501 33.3483C42.1504 33.3171 41.9538 33.2952 41.7583 33.2827C41.5545 33.2682 41.3641 33.2515 41.1873 33.2328C41.0105 33.2151 40.8681 33.1756 40.7599 33.1132C40.6517 33.0519 40.5977 32.951 40.5977 32.8095C40.5977 32.5963 40.6757 32.4372 40.8317 32.3301C40.9877 32.224 41.2217 32.1699 41.5337 32.1699C41.75 32.1699 41.9705 32.2074 42.1972 32.2823C42.4239 32.3571 42.6537 32.4695 42.8877 32.6192L43.441 31.9495C43.1654 31.7456 42.8701 31.5938 42.5549 31.495C42.2398 31.3962 41.8997 31.3463 41.5337 31.3463C40.9336 31.3463 40.4822 31.469 40.1796 31.7155C39.8769 31.9609 39.7251 32.3311 39.7251 32.8262C39.7251 33.0987 39.7709 33.316 39.8624 33.4783C39.9539 33.6405 40.0756 33.7622 40.2285 33.8443C40.3813 33.9265 40.5509 33.9837 40.737 34.0149C40.9232 34.0461 41.1104 34.07 41.2997 34.0846C41.5243 34.0991 41.7354 34.1179 41.932 34.1407C42.1285 34.1636 42.2877 34.2104 42.4083 34.2822C42.53 34.3539 42.5903 34.4766 42.5903 34.6514C42.5903 34.876 42.4998 35.0445 42.3178 35.1578C42.1369 35.2702 41.8644 35.3263 41.5014 35.3263C41.2581 35.3263 41.0137 35.2785 40.7661 35.1828C40.5186 35.0871 40.268 34.9426 40.0132 34.7512L39.4693 35.421C39.7365 35.6633 40.0381 35.8463 40.3761 35.967C40.7131 36.0887 41.0885 36.149 41.5025 36.149C42.1566 36.149 42.6454 36.0242 42.9709 35.7756C43.2965 35.5271 43.4587 35.1516 43.4587 34.6514C43.4587 34.3456 43.4077 34.1043 43.3058 33.9275C43.2039 33.7507 43.0687 33.6176 42.9013 33.5271V33.5303Z" fill="white"/>
<path d="M45.546 29.545H44.6287V30.4623H45.546V29.545Z" fill="white"/>
<path d="M45.546 31.416H44.6287V36.0845H45.546V31.416Z" fill="white"/>
<path d="M49.0997 31.3483C48.8178 31.3483 48.5609 31.4253 48.328 31.5782C48.1429 31.6999 47.9869 31.8631 47.8579 32.0659V31.4159H46.9406V36.0845H47.8579V33.1288C47.8579 32.8407 47.9401 32.6171 48.1033 32.4591C48.2666 32.2999 48.4985 32.2209 48.7981 32.2209C49.0976 32.2209 49.3503 32.3114 49.5198 32.4903C49.6893 32.6702 49.7736 32.925 49.7736 33.2547V36.0845H50.6909V33.2505C50.6909 32.6452 50.5525 32.1762 50.2749 31.8444C49.9972 31.5126 49.6051 31.3473 49.0986 31.3473L49.0997 31.3483Z" fill="white"/>
<path d="M53.917 31.3483C53.293 31.3483 52.8093 31.5386 52.4661 31.9193C52.1229 32.2999 51.9514 32.8386 51.9514 33.5344V34.0606C51.9514 34.7294 52.1302 35.2452 52.487 35.6082C52.8437 35.9711 53.347 36.1521 53.9981 36.1521C54.2893 36.1521 54.5784 36.0918 54.8665 35.9701C55.1546 35.8484 55.4135 35.6768 55.6444 35.4553L55.0422 34.8521C54.8987 34.9873 54.7344 35.0923 54.5524 35.1672C54.3704 35.2421 54.1853 35.2795 53.9991 35.2795C53.6268 35.2795 53.3387 35.1766 53.1328 34.9696C52.9352 34.7699 52.8333 34.486 52.826 34.1199H55.7661V33.8142C55.7661 33.0342 55.6049 32.4289 55.2825 31.9973C54.9601 31.5657 54.5046 31.3494 53.917 31.3494V31.3483ZM52.827 33.3815C52.8416 33.0154 52.9362 32.7263 53.112 32.5183C53.3034 32.2906 53.5727 32.1762 53.917 32.1762C54.2019 32.1762 54.4286 32.2822 54.5981 32.4954C54.7677 32.7086 54.8654 33.004 54.8925 33.3815H52.826H52.827Z" fill="white"/>
<path d="M60.0748 33.5303C59.9063 33.4398 59.7233 33.3795 59.5236 33.3483C59.3239 33.3171 59.1273 33.2952 58.9318 33.2827C58.728 33.2682 58.5377 33.2515 58.3609 33.2328C58.1841 33.2141 58.0416 33.1756 57.9334 33.1132C57.8253 33.0519 57.7712 32.951 57.7712 32.8095C57.7712 32.5963 57.8492 32.4372 58.0052 32.3301C58.1612 32.224 58.3952 32.1699 58.7072 32.1699C58.9235 32.1699 59.144 32.2074 59.3707 32.2823C59.5974 32.3571 59.8273 32.4695 60.0613 32.6192L60.6145 31.9495C60.3389 31.7456 60.0436 31.5938 59.7285 31.495C59.4133 31.3962 59.0733 31.3463 58.7072 31.3463C58.1071 31.3463 57.6558 31.469 57.3531 31.7155C57.0505 31.9609 56.8986 32.3311 56.8986 32.8262C56.8986 33.0987 56.9444 33.316 57.0359 33.4783C57.1274 33.6405 57.2491 33.7622 57.403 33.8443C57.5559 33.9265 57.7254 33.9837 57.9116 34.0149C58.0977 34.0461 58.2849 34.07 58.4742 34.0846C58.6989 34.0991 58.91 34.1179 59.1065 34.1407C59.3031 34.1636 59.4622 34.2104 59.5829 34.2822C59.7045 34.3539 59.7649 34.4766 59.7649 34.6514C59.7649 34.876 59.6744 35.0445 59.4924 35.1578C59.3104 35.2702 59.0389 35.3263 58.676 35.3263C58.4326 35.3263 58.1882 35.2785 57.9407 35.1828C57.6932 35.0871 57.4425 34.9426 57.1877 34.7512L56.6438 35.421C56.9111 35.6633 57.2127 35.8463 57.5497 35.967C57.8866 36.0887 58.2631 36.149 58.676 36.149C59.3301 36.149 59.8189 36.0242 60.1445 35.7756C60.47 35.5271 60.6322 35.1516 60.6322 34.6514C60.6322 34.3456 60.5813 34.1043 60.4793 33.9275C60.3774 33.7507 60.2422 33.6176 60.0748 33.5271V33.5303Z" fill="white"/>
<path d="M64.8515 33.5303C64.683 33.4398 64.5 33.3795 64.3003 33.3483C64.1006 33.3171 63.9041 33.2952 63.7085 33.2827C63.5047 33.2682 63.3144 33.2515 63.1376 33.2328C62.9608 33.2151 62.8183 33.1756 62.7101 33.1132C62.602 33.0519 62.5479 32.951 62.5479 32.8095C62.5479 32.5963 62.6259 32.4372 62.7819 32.3301C62.9379 32.224 63.1719 32.1699 63.4839 32.1699C63.7002 32.1699 63.9207 32.2074 64.1474 32.2823C64.3741 32.3571 64.604 32.4695 64.838 32.6192L65.3913 31.9495C65.1157 31.7456 64.8203 31.5938 64.5052 31.495C64.19 31.3962 63.85 31.3463 63.4839 31.3463C62.8838 31.3463 62.4325 31.469 62.1298 31.7155C61.8272 31.9619 61.6753 32.3311 61.6753 32.8262C61.6753 33.0987 61.7211 33.316 61.8126 33.4783C61.9041 33.6405 62.0258 33.7622 62.1797 33.8443C62.3326 33.9265 62.5021 33.9837 62.6883 34.0149C62.8745 34.0461 63.0616 34.07 63.2509 34.0846C63.4756 34.0991 63.6867 34.1179 63.8833 34.1407C64.0798 34.1636 64.2389 34.2104 64.3596 34.2822C64.4813 34.3539 64.5416 34.4766 64.5416 34.6514C64.5416 34.876 64.4511 35.0445 64.2691 35.1578C64.0871 35.2702 63.8156 35.3263 63.4527 35.3263C63.2104 35.3263 62.9649 35.2785 62.7174 35.1828C62.4699 35.0871 62.2193 34.9426 61.9645 34.7512L61.4205 35.421C61.6878 35.6633 61.9894 35.8463 62.3264 35.967C62.6633 36.0887 63.0398 36.149 63.4527 36.149C64.1068 36.149 64.5956 36.0242 64.9212 35.7756C65.2467 35.5271 65.4089 35.1516 65.4089 34.6514C65.4089 34.3456 65.358 34.1043 65.2561 33.9275C65.1541 33.7507 65.0189 33.6176 64.8515 33.5271V33.5303Z" fill="white"/>
<path d="M72.8605 32.8574C72.664 32.7294 72.4456 32.6327 72.2064 32.5651C71.9661 32.4975 71.7269 32.4403 71.4867 32.3914C71.2194 32.3374 70.9698 32.2802 70.7379 32.2178C70.5049 32.1564 70.3177 32.0607 70.1732 31.9318C70.0296 31.8028 69.9568 31.6156 69.9568 31.3691V31.365C69.9568 31.0384 70.0806 30.7857 70.3281 30.6068C70.5756 30.4279 70.923 30.3395 71.3692 30.3395C71.6177 30.3395 71.8663 30.3842 72.1138 30.4747C72.3613 30.5652 72.6088 30.7025 72.8584 30.8886L73.3805 30.1596C73.0623 29.9287 72.7357 29.7571 72.3998 29.6448C72.0639 29.5325 71.7207 29.4763 71.3702 29.4763C70.6328 29.4763 70.0609 29.6438 69.6563 29.9776C69.2517 30.3125 69.0489 30.7836 69.0489 31.392V31.3962C69.0489 31.7768 69.1124 32.0815 69.2403 32.3093C69.3682 32.537 69.5367 32.7118 69.7468 32.8334C69.9569 32.9551 70.1867 33.0446 70.4373 33.1007C70.688 33.1569 70.9355 33.2068 71.182 33.2494C71.4368 33.291 71.6718 33.3451 71.8861 33.4096C72.1003 33.4741 72.274 33.5718 72.4061 33.7039C72.5381 33.836 72.6036 34.0263 72.6036 34.2749V34.279C72.6036 34.5973 72.4736 34.8448 72.2126 35.0216C71.9516 35.1984 71.5844 35.2868 71.1102 35.2868C70.7597 35.2868 70.4342 35.2327 70.1347 35.1246C69.8352 35.0164 69.5606 34.8542 69.311 34.6389L68.7401 35.3409C68.9533 35.5208 69.182 35.6706 69.4264 35.7912C69.6708 35.9108 69.9329 36.0013 70.2137 36.0616C70.4945 36.1219 70.793 36.151 71.1113 36.151C71.8725 36.151 72.4632 35.9867 72.8834 35.656C73.3036 35.3253 73.5136 34.8594 73.5136 34.2572V34.2478C73.5136 33.8911 73.4544 33.602 73.3358 33.3794C73.2173 33.1579 73.0602 32.9832 72.8636 32.8553L72.8605 32.8574Z" fill="white"/>
<path d="M76.5151 31.3483C75.9036 31.3483 75.4294 31.5241 75.0934 31.8746C74.7575 32.2251 74.5901 32.7201 74.5901 33.3587V34.1189C74.5901 34.7637 74.7575 35.2639 75.0934 35.6186C75.4294 35.9743 75.9036 36.1511 76.5151 36.1511C77.1266 36.1511 77.6009 35.9753 77.9368 35.6227C78.2727 35.2702 78.4402 34.773 78.4402 34.1314V33.3576C78.4402 32.7191 78.2717 32.224 77.9368 31.8735C77.6009 31.523 77.1266 31.3473 76.5151 31.3473V31.3483ZM77.5229 34.1334C77.5229 34.4964 77.4355 34.7782 77.2598 34.979C77.084 35.1797 76.8365 35.2806 76.5151 35.2806C76.1938 35.2806 75.9504 35.1797 75.7726 34.979C75.5958 34.7782 75.5074 34.4964 75.5074 34.1334V33.3597C75.5074 32.9967 75.5958 32.717 75.7726 32.5183C75.9494 32.3207 76.1969 32.2219 76.5151 32.2219C76.8334 32.2219 77.084 32.3207 77.2598 32.5183C77.4355 32.7159 77.5229 32.9967 77.5229 33.3597V34.1334Z" fill="white"/>
<path d="M80.7365 35.1402C80.6866 35.0768 80.6626 34.9904 80.6626 34.8792V29.5439H79.7454V34.8698C79.7454 35.2629 79.841 35.5666 80.0334 35.7829C80.2248 35.9992 80.4942 36.1063 80.8384 36.1063H81.3782V35.2338H80.9466C80.8561 35.2338 80.7864 35.2026 80.7375 35.1392L80.7365 35.1402Z" fill="white"/>
<path d="M85.1835 34.3623C85.1835 34.6535 85.1014 34.8792 84.9381 35.0393C84.7748 35.1995 84.5418 35.2796 84.2381 35.2796C83.9345 35.2796 83.7005 35.1901 83.5341 35.0123C83.3677 34.8344 83.2845 34.5817 83.2845 34.2541V31.416H82.3672V34.2541C82.3672 34.8563 82.5076 35.3243 82.7874 35.655C83.0682 35.9868 83.4654 36.1521 83.9813 36.1521C84.3203 36.1521 84.5949 36.0689 84.8049 35.9025C84.9703 35.7715 85.0951 35.6259 85.1825 35.4668V36.0845H86.0956V31.416H85.1825V34.3623H85.1835Z" fill="white"/>
<path d="M88.5292 30.0577H87.6119V31.4159H87.1304V32.2438H87.6119V34.8708C87.6119 35.2691 87.6982 35.5759 87.8709 35.7881C88.0435 36.0013 88.3212 36.1074 88.7049 36.1074H89.2353V35.2348H88.7944C88.707 35.2348 88.6415 35.2036 88.5968 35.1402C88.5521 35.0767 88.5292 34.9904 88.5292 34.8791V32.2438H89.2353V31.4159H88.5292V30.0577Z" fill="white"/>
<path d="M91.4121 29.545H90.4948V30.4623H91.4121V29.545Z" fill="white"/>
<path d="M91.4121 31.416H90.4948V36.0845H91.4121V31.416Z" fill="white"/>
<path d="M94.5976 31.3483C93.9861 31.3483 93.5118 31.5241 93.1759 31.8746C92.84 32.2251 92.6725 32.7201 92.6725 33.3587V34.1189C92.6725 34.7637 92.84 35.2639 93.1759 35.6186C93.5118 35.9732 93.9861 36.1511 94.5976 36.1511C95.2091 36.1511 95.6833 35.9753 96.0193 35.6227C96.3552 35.2702 96.5226 34.773 96.5226 34.1314V33.3576C96.5226 32.7191 96.3541 32.224 96.0193 31.8735C95.6833 31.523 95.2091 31.3473 94.5976 31.3473V31.3483ZM95.6053 34.1334C95.6053 34.4964 95.518 34.7782 95.3422 34.979C95.1665 35.1797 94.9189 35.2806 94.5976 35.2806C94.2762 35.2806 94.0318 35.1797 93.855 34.979C93.6782 34.7782 93.5898 34.4964 93.5898 34.1334V33.3597C93.5898 32.9967 93.6782 32.717 93.855 32.5183C94.0318 32.3197 94.2793 32.2219 94.5976 32.2219C94.9158 32.2219 95.1665 32.3207 95.3422 32.5183C95.518 32.7159 95.6053 32.9967 95.6053 33.3597V34.1334Z" fill="white"/>
<path d="M99.9858 31.3483C99.704 31.3483 99.4471 31.4253 99.2141 31.5782C99.029 31.6999 98.873 31.8631 98.7441 32.0659V31.4159H97.8268V36.0845H98.7441V33.1288C98.7441 32.8407 98.8262 32.6171 98.9895 32.4591C99.1528 32.2999 99.3847 32.2209 99.6842 32.2209C99.9837 32.2209 100.236 32.3114 100.406 32.4903C100.576 32.6702 100.66 32.925 100.66 33.2547V36.0845H101.577V33.2505C101.577 32.6452 101.439 32.1762 101.161 31.8444C100.883 31.5126 100.491 31.3473 99.9848 31.3473L99.9858 31.3483Z" fill="white"/>
<path d="M106.023 33.5303C105.855 33.4398 105.671 33.3795 105.472 33.3483C105.272 33.3171 105.076 33.2952 104.88 33.2827C104.676 33.2682 104.486 33.2515 104.309 33.2328C104.132 33.2151 103.99 33.1756 103.882 33.1132C103.773 33.0519 103.719 32.951 103.719 32.8095C103.719 32.5963 103.797 32.4372 103.953 32.3301C104.109 32.224 104.343 32.1699 104.655 32.1699C104.872 32.1699 105.092 32.2074 105.319 32.2823C105.546 32.3571 105.775 32.4695 106.009 32.6192L106.563 31.9495C106.287 31.7456 105.992 31.5938 105.677 31.495C105.362 31.3962 105.021 31.3463 104.655 31.3463C104.055 31.3463 103.604 31.469 103.301 31.7155C102.999 31.9619 102.847 32.3311 102.847 32.8262C102.847 33.0987 102.893 33.316 102.984 33.4783C103.076 33.6405 103.197 33.7622 103.35 33.8443C103.503 33.9265 103.673 33.9837 103.859 34.0149C104.045 34.0461 104.232 34.07 104.421 34.0846C104.646 34.0991 104.857 34.1179 105.054 34.1407C105.25 34.1636 105.409 34.2104 105.53 34.2822C105.652 34.3539 105.712 34.4766 105.712 34.6514C105.712 34.876 105.622 35.0445 105.44 35.1578C105.259 35.2702 104.986 35.3263 104.623 35.3263C104.38 35.3263 104.135 35.2785 103.888 35.1828C103.64 35.0871 103.39 34.9426 103.135 34.7512L102.591 35.421C102.858 35.6633 103.16 35.8463 103.498 35.967C103.835 36.0887 104.21 36.149 104.624 36.149C105.278 36.149 105.767 36.0242 106.093 35.7756C106.418 35.5271 106.58 35.1516 106.58 34.6514C106.58 34.3456 106.529 34.1043 106.428 33.9275C106.326 33.7507 106.19 33.6176 106.023 33.5271V33.5303Z" fill="white"/>
<path d="M6.76645 15.9605L5.80654 15.9917H5.75974L5.72854 16.9048L5.77533 17.7098L5.72854 18.6229V21.146L5.74414 22.0435L5.72854 22.8796L5.79094 24.6601C5.09413 25.1094 4.38278 25.1708 3.57782 25.202C3.15974 25.202 2.78846 25.1552 2.44838 24.9544C1.84518 24.5052 1.64341 24.0569 1.61221 23.2977L1.82854 22.369L2.12286 21.4403L1.44166 21.2385C1.39486 21.4403 1.2867 21.7034 1.20974 21.9041C1.07038 22.1828 0.962215 22.5229 0.869655 22.864C0.777095 23.2197 0.745895 23.5452 0.761495 23.9633C0.777095 24.3346 0.730295 24.6601 0.808295 24.9076C0.885255 25.1864 1.02462 25.4183 1.22638 25.697C1.41254 25.852 1.53629 26.0371 1.76821 26.192C2.24765 26.5321 2.89766 26.6569 3.4863 26.6871C3.87318 26.6559 4.1207 26.6403 4.39942 26.5477C4.70934 26.424 4.95686 26.3772 5.21997 26.2378C6.10189 25.8353 6.39621 25.0616 6.70613 24.2254C6.75293 23.8999 6.78309 23.6368 6.78309 23.2655L6.8143 22.3524V21.3768L6.79869 20.5563L6.8143 19.5964V18.7144L6.78309 17.7701L6.82989 16.9184L6.7675 15.9584L6.76645 15.9605Z" fill="white"/>
<path d="M30.4805 23.4214L30.4181 22.6321L30.3412 22.3533C29.5206 22.4615 28.5919 22.5853 27.7557 22.5853C27.477 22.4303 27.2451 22.2296 27.0745 22.1058C26.7189 21.8115 26.5015 21.7033 26.5015 21.2083C26.5015 20.9764 26.7022 20.6977 26.9352 20.4803C27.1213 20.3877 27.5238 20.3409 27.7245 20.3409C28.0646 20.3877 28.3589 20.4023 28.7001 20.5417C28.8862 20.6966 29.1025 20.8204 29.3969 21.0679L29.9699 20.4179C29.8773 20.2473 29.7837 20.0622 29.6444 19.9229C29.4582 19.6753 29.2263 19.4892 28.9944 19.381C28.7469 19.2105 28.4837 19.1491 28.1738 19.1491C27.4157 19.1491 26.8894 19.3654 26.3933 19.9541C26.1614 20.2172 25.8359 21.1615 25.8359 21.5172C25.8203 21.8271 26.0522 22.4771 26.2696 22.786C25.9909 22.8172 25.7745 22.786 25.3721 22.8016H23.2203C22.926 22.8172 22.6317 22.7402 22.3997 22.4917C22.2448 22.3679 21.9973 22.0736 21.8891 21.8573C21.6728 21.1917 21.4554 20.5105 21.3161 19.8293L20.6037 19.8137C20.2937 19.8605 20.0462 19.7981 19.7217 19.9062C19.4586 19.9832 19.2423 20.2317 19.0405 20.3711C18.8544 20.5417 18.6225 20.681 18.4831 20.9129C18.3281 21.1917 18.22 21.4548 18.143 21.7491C18.0962 21.9353 18.0661 22.2597 18.0806 22.5697C18.0806 22.6165 18.0806 22.6622 18.0962 22.709C17.8643 22.7714 17.57 22.8016 17.1207 22.8016H10.6654C10.3555 22.8172 9.92286 22.8172 9.65974 22.631C9.45798 22.4917 9.41222 22.0122 9.41222 21.5785C9.41222 21.2229 9.45902 20.8973 9.45902 20.7736L9.44342 19.7981V17.8481L9.38102 16.9037L9.44342 16.0218L8.35974 16.0062L8.39094 16.8268L8.35974 18.5449L8.40654 19.381L8.37534 20.109V20.2952L8.42214 21.1313L8.39094 21.8437V22.0299C8.40654 22.293 8.42214 22.6799 8.5147 23.021C8.63846 23.5317 9.05654 24.1047 9.61398 24.1661C9.78454 24.1973 9.98526 24.1973 10.2328 24.1973H16.6881C17.0437 24.1973 17.4306 24.1505 17.8643 23.9185C18.0806 23.7324 18.22 23.5317 18.2824 23.3299C18.3136 23.3611 18.3448 23.4069 18.3749 23.4537C18.5767 23.67 18.9012 23.8249 19.3962 24.0111C19.52 24.0579 20.2012 24.2898 20.4175 24.3668L21.5324 24.6611L21.8725 23.8561C21.9494 23.9185 22.0118 23.9643 22.0888 24.0111C22.2281 24.1505 22.5381 24.1973 22.7856 24.1973H26.0054C26.2841 24.1661 26.5629 24.1505 26.8416 24.1505C27.1047 24.1193 27.399 24.0423 27.6621 24.0423L28.1728 23.9497C28.3891 23.9029 28.6065 23.8416 28.8228 23.8104C29.0703 23.7792 29.3178 23.7334 29.5508 23.671C29.8909 23.5941 30.1394 23.4849 30.4795 23.4235L30.4805 23.4214ZM21.0841 23.2041L20.1086 22.9097L19.2423 22.5385C18.9948 22.4303 18.8242 22.3679 18.8242 22.1516C18.9012 21.9353 19.0561 21.486 19.2423 21.1605C19.598 21.0991 20.1086 21.0367 20.4185 21.0211C20.5735 21.3612 20.7129 21.7335 20.8522 22.0736C20.9604 22.3211 21.0841 22.6466 21.2547 22.9253C21.3317 23.0803 21.3941 23.2197 21.4554 23.3434L21.0841 23.2041Z" fill="white"/>
<path d="M35.1241 23.7001C35.2791 23.6076 35.3873 23.4838 35.4798 23.3289C35.5422 23.2363 35.588 23.1281 35.6504 23.0189C35.7897 22.7246 35.7897 22.5551 35.8667 22.1526C35.8667 22.1214 35.8823 22.1058 35.8823 22.0757C35.9447 21.7813 35.8667 21.5026 35.7897 21.2707C35.7585 21.1781 35.7273 21.1001 35.6972 21.0232C35.5641 20.6904 35.3914 20.4137 35.1845 20.1413C35.2146 20.0591 35.2427 19.9759 35.2635 19.8927C35.2947 19.7221 35.2791 19.5828 35.2947 19.3821C35.2947 19.3051 35.2947 19.2115 35.3103 19.1189C35.3571 18.9026 35.3415 18.6239 35.3571 18.2828L35.4195 17.1221L35.4351 16.0385L34.4596 16.0073L34.4908 17.1523C34.4908 17.3073 34.444 18.8392 34.4284 19.0867C34.4284 19.1813 34.4284 19.2541 34.4273 19.3165C34.3899 19.2853 34.3535 19.2552 34.3202 19.2261C34.2578 19.1793 34.1809 19.1335 34.1185 19.0711C33.9323 18.9317 33.7784 18.7924 33.561 18.653C33.2667 18.4513 33.066 18.2505 32.7717 18.08C32.5085 17.925 32.261 17.7545 32.0135 17.5849C31.7192 17.353 31.4405 17.1357 31.1472 16.9661L30.7291 18.1424C31.2085 18.4981 31.7202 18.8704 32.2309 19.1793C32.9401 19.5963 33.587 20.0529 34.2058 20.5791C34.0779 20.9015 33.8189 21.3404 33.6089 21.5785C33.5465 21.6409 33.4539 21.7491 33.3457 21.8417C33.2688 21.9186 33.1294 22.058 32.9433 22.1973C32.8507 22.2587 32.7113 22.3523 32.5876 22.4137C32.495 22.4761 32.4014 22.5374 32.2777 22.5998C32.1601 22.6747 32.0249 22.7496 31.8814 22.8203C31.7441 22.8151 31.6069 22.8078 31.4727 22.8005L31.3333 24.008C31.4415 24.0548 31.8596 24.1629 32.1851 24.1785H32.4482C32.7113 24.1785 32.9901 24.1629 33.0982 24.1785C33.2532 24.1941 33.3925 24.1941 33.5163 24.1785C33.7638 24.1629 33.9957 24.1317 34.1975 24.086C34.4762 24.0392 34.7081 23.9154 34.9401 23.7917L35.1262 23.6991L35.1241 23.7001ZM33.3135 22.787H33.1897C33.1263 22.787 33.0608 22.7901 32.9953 22.7943C33.1887 22.6737 33.378 22.5374 33.5142 22.4001C33.638 22.3076 33.8085 22.1838 33.9479 22.0601C34.0249 21.9831 34.1029 21.9207 34.1497 21.8739C34.3202 21.7189 34.4284 21.6264 34.5209 21.487C34.5521 21.4402 34.6291 21.3321 34.6603 21.3009C34.6936 21.252 34.7227 21.2104 34.7487 21.1698C34.7549 21.1771 34.7612 21.1854 34.7685 21.1917C34.7997 21.2073 34.8153 21.2385 34.8309 21.2686C35.0014 21.5005 35.2021 22.0736 35.2645 22.3523C35.1252 22.4917 34.9858 22.5842 34.7227 22.6924C34.4284 22.8005 34.0415 22.8005 33.3145 22.7849L33.3135 22.787Z" fill="white"/>
<path d="M38.3752 24.2264L38.3284 24.1952L38.3596 23.3591L38.2972 22.5541V21.718L38.3741 20.8818L38.3585 20.0456V19.2719L38.3741 18.4201C38.3585 18.157 38.3273 17.8939 38.3273 17.6308C38.3273 17.3676 38.3429 17.1045 38.3585 16.857L38.2816 15.9907L37.2291 15.9595L37.2759 16.8414V17.662L37.2915 18.4669C37.2291 19.04 37.2145 19.5662 37.2145 20.1382L37.2613 20.8964L37.2145 21.7481L37.1989 22.5531L37.2457 24.1942L38.3762 24.2254L38.3752 24.2264Z" fill="white"/>
<path d="M47.9099 24.2264C47.9567 23.9009 47.9869 23.6378 47.9869 23.2665L48.0181 22.3534V21.3779L48.0025 20.5573L48.0181 19.5974V18.7155L47.9869 17.7712L48.0337 16.9194L47.9713 15.9595L47.0113 15.9907H46.9645L46.9333 16.9038L46.9801 17.7088L46.9333 18.6219V21.1449L46.9489 22.0424L46.9333 22.8786L46.9957 24.6591C46.2989 25.1084 45.5876 25.1697 44.7826 25.2009C44.3645 25.2009 43.9933 25.1541 43.6521 24.9534C43.0489 24.5041 42.8472 24.0559 42.816 23.2967L43.0323 22.368L43.3266 21.4392L42.6454 21.2375C42.5986 21.4392 42.4905 21.7024 42.4135 21.9031C42.2741 22.1818 42.166 22.5219 42.0734 22.863C41.9809 23.2187 41.9497 23.5442 41.9653 23.9623C41.9809 24.3336 41.9341 24.6591 42.0121 24.9066C42.089 25.1853 42.2284 25.4172 42.4301 25.696C42.6163 25.8509 42.7401 26.036 42.972 26.191C43.4514 26.5311 44.1014 26.6559 44.6901 26.686C45.0769 26.6548 45.3245 26.6392 45.6032 26.5467C45.9131 26.4229 46.1606 26.3761 46.4237 26.2368C47.3057 25.8343 47.6 25.0605 47.9099 24.2244V24.2264Z" fill="white"/>
<path d="M73.6218 15.9449L72.5538 15.9605L72.585 16.781V17.6328L72.5538 18.4846L72.6151 20.0945L72.6307 20.9306L72.5538 21.7668V22.6186C72.2906 22.7111 71.8726 22.8047 71.4701 22.8047H69.3183C69.3131 22.8047 69.3079 22.8058 69.3027 22.8058C68.8389 22.8047 68.0641 22.8047 67.7396 22.4179C67.6928 22.3565 67.647 22.2941 67.6002 22.2317C67.7708 22.2161 67.9403 22.2005 68.1109 22.1849L68.5602 22.2005L68.529 21.1012H68.0183C67.0126 21.0388 66.0215 20.6675 65.1854 20.1101C65.1084 20.0633 65.0616 20.0019 64.9846 19.9551C64.5666 19.6452 64.1953 19.4289 63.6534 19.4289C63.3279 19.4289 63.0502 19.5838 62.8641 19.6764C62.524 19.8782 61.9198 20.5895 61.641 20.9306L62.1205 21.5037L63.2354 20.7299C63.4215 20.6831 63.6534 20.8069 63.8854 20.8849C64.0861 20.9473 64.3034 21.0086 64.5354 21.1168C64.8297 21.2562 64.9846 21.4267 65.2779 21.5349C65.4942 21.6118 65.7116 21.6898 65.9435 21.798C65.9123 21.8136 65.8666 21.8292 65.8198 21.8448C65.4485 21.9998 65.0616 22.1391 64.6747 22.2161C64.0559 22.3555 63.4361 22.6342 62.8173 22.7579C62.7247 22.7735 62.601 22.8047 62.4928 22.8047C62.2609 22.8047 61.9978 22.8203 61.6566 22.8047H59.5049C58.9318 22.7579 58.7311 22.6966 58.5762 22.5728C58.3598 22.4178 58.3286 22.2171 58.313 21.6285V21.2728L58.2974 20.7154L58.3286 19.7554L58.2974 18.8111L58.3588 17.8512V15.9938H57.3063L57.2751 16.8601L57.3063 17.6806L57.2439 18.547L57.3063 19.3831L57.2907 20.3119L57.2439 21.1168L57.2907 22.0299C57.2751 22.2618 57.3219 22.4792 57.3375 22.7423C56.9662 22.7891 56.6251 22.8037 56.2538 22.8037H54.1021H53.2815C53.2659 22.6643 53.2503 22.525 53.2191 22.37C53.1723 22.0757 53.1723 21.8282 53.0642 21.5182C52.9404 21.1927 52.8322 20.8682 52.6929 20.6207C52.461 20.187 51.811 19.7846 51.3149 19.7846C50.5411 19.7846 50.2 20.2484 49.8599 20.8526C49.7206 21.1002 49.5656 21.4101 49.5198 21.6576C49.4429 22.0289 49.4574 22.292 49.4429 22.5551C49.4273 22.9888 49.5978 23.2675 49.706 23.4994C49.8454 23.7938 50.0003 23.9331 50.2478 24.0569C50.4184 24.1806 50.6503 24.1962 50.929 24.1962H52.6159C52.539 24.5519 52.4454 25.0324 52.1209 25.2487C51.657 25.5732 51.2234 25.8062 50.6347 25.8062C50.2634 25.853 49.8922 25.853 49.3347 25.8686L49.3659 26.6891C49.9691 26.8597 50.3258 27.0146 50.7741 27.0146C51.9659 27.0146 52.7397 26.3022 53.034 25.204C53.1734 24.8795 53.2046 24.6466 53.2503 24.3221C53.2503 24.2753 53.2659 24.2451 53.2659 24.1983H53.6684H55.8202C56.3308 24.1983 56.8258 24.1359 57.2751 23.7959C57.3833 23.6877 57.4914 23.5951 57.585 23.4714C57.6006 23.5182 57.6318 23.5483 57.662 23.5795C57.817 23.7657 57.9719 23.9508 58.2038 24.0434C58.4982 24.1359 58.7769 24.2139 59.0702 24.1983H61.2219C61.5006 24.1827 61.8407 24.2139 62.1194 24.1214C62.29 24.059 62.8006 23.9664 63.0014 23.905C63.2333 23.8281 63.4808 23.7189 63.7439 23.5951C63.9914 23.487 64.2234 23.3632 64.4719 23.2852C65.0294 23.099 65.5556 22.8359 66.0662 22.5572C66.3294 22.4334 66.5613 22.3565 66.8556 22.3097C66.9024 22.7122 67.0262 23.3778 67.2737 23.6877C67.6606 24.1827 68.3262 24.1983 68.8836 24.1983H71.0354C71.5148 24.1983 71.8403 24.1983 72.2116 24.1058C72.4747 23.9976 72.8148 23.8894 73.0166 23.6565C73.4502 23.0678 73.6198 22.5884 73.6198 21.8459V20.9941C73.6198 20.8703 73.6042 20.3285 73.6042 20.1735C73.6042 20.0498 73.573 19.5235 73.573 19.3842L73.6343 16.8611L73.6187 15.948L73.6218 15.9449ZM51.0528 22.8796C50.6971 22.8796 50.1241 22.864 50.1241 22.1672C50.1241 21.7647 50.201 21.5172 50.3872 21.2385C50.4798 21.1917 50.6659 21.1147 50.9446 21.1147C51.2234 21.1147 51.5333 21.1615 51.7808 21.331C51.9514 21.4392 52.0439 21.6867 52.2301 21.981C52.3694 22.213 52.4776 22.5229 52.5088 22.8786H51.0538L51.0528 22.8796Z" fill="white"/>
<path d="M89.3944 21.0835C89.332 20.7736 89.2395 20.4803 89.1781 20.1704L88.342 20.3722L88.1714 20.4491C88.2182 20.7435 88.342 21.1615 88.3877 21.4403C88.4345 21.641 88.5427 22.1828 88.5427 22.3846C88.5115 22.5551 88.4501 22.7247 88.4189 22.8183C88.264 22.8651 88.0477 22.9264 87.8615 22.942C87.4434 22.9108 87.0565 22.7559 86.7008 22.5551C86.7164 22.5083 86.732 22.447 86.7476 22.3846C86.7788 22.292 86.7944 22.1984 86.8246 22.1059C86.9172 21.8739 86.9952 21.6108 87.1189 21.2541L86.1278 21.0066C86.0353 21.6722 85.9271 22.0279 85.7253 22.5083C85.3697 22.7403 84.8892 22.7715 84.4711 22.7715C84.208 22.7715 83.9448 22.7247 83.7587 22.6321C83.6505 22.5853 83.5112 22.4927 83.3718 22.4002C83.3718 22.369 83.3562 22.3378 83.3562 22.3076C83.2948 22.0913 83.2169 21.8895 83.1701 21.719C83.0931 21.4403 83.0151 21.1927 82.9683 21.0846L82.1477 21.4101L81.8222 21.5183C81.8992 21.6888 82.024 22.0289 82.1165 22.3076C82.1477 22.3846 82.1789 22.447 82.1935 22.5239C82.3173 22.8339 82.3797 23.1126 82.4878 23.4371C82.519 23.514 82.5346 23.5764 82.5648 23.6378C82.6573 23.9165 82.7353 24.164 82.7811 24.4271C82.8279 24.7059 82.8736 24.9222 82.8424 25.0771C82.7187 25.2477 82.5481 25.3091 82.2393 25.5108C81.5893 25.7583 80.8924 25.9445 80.1956 25.9746H80.1031C79.685 25.9434 79.3293 25.9123 79.0506 25.8197C78.9882 25.7885 78.9269 25.7729 78.8801 25.7427C78.6013 25.6502 78.4006 25.4328 78.2301 25.2009L78.1676 25.1083C77.9971 24.8608 77.8889 24.5509 77.9669 24.1328L78.1219 23.2811L78.3694 22.3211L77.7808 22.1662C77.5801 22.5843 77.4251 23.0325 77.2701 23.4818C77.162 23.8219 77.0694 24.1162 77.0226 24.4875C77.007 24.5488 77.007 24.6112 76.9914 24.6882C76.9758 24.9981 77.0684 25.3694 77.1776 25.6325C77.2545 25.8956 77.4095 26.2211 77.5644 26.3751C77.735 26.6382 77.8889 26.7463 78.1063 26.9169C78.385 27.0718 78.6637 27.1644 78.9268 27.2268C78.958 27.2424 78.9892 27.2424 79.0194 27.258C79.3293 27.3204 79.6382 27.3204 79.9793 27.3204C80.2425 27.3204 80.568 27.3048 80.8155 27.258C80.8467 27.2424 80.8779 27.2424 80.9081 27.2268C81.14 27.18 81.3417 27.1343 81.5268 27.0563C81.6194 27.0251 81.6974 26.9793 81.79 26.9325C81.9293 26.8399 82.0999 26.7931 82.2694 26.7162C82.362 26.685 82.4556 26.6392 82.5481 26.5768C82.6719 26.4531 82.8113 26.3449 82.935 26.2367C83.0432 26.1598 83.1357 26.0818 83.1981 26.0048C83.2907 25.8655 83.3531 25.7417 83.4144 25.6335C83.4612 25.5098 83.5226 25.4016 83.5694 25.2623C83.662 24.8442 83.6776 24.4573 83.6776 24.0236C83.6932 24.0392 83.7244 24.0392 83.74 24.0548C84.0343 24.1474 84.2506 24.1786 84.5137 24.1786H84.6219C84.9006 24.1786 85.1013 24.163 85.2875 24.1016C85.3499 24.086 85.3957 24.0704 85.4581 24.0392C85.6588 23.9155 85.8137 23.8229 85.9531 23.6991C85.9999 23.6679 86.0456 23.6222 86.0924 23.5754C86.108 23.5442 86.1236 23.513 86.1548 23.4828C86.1704 23.514 86.2017 23.5296 86.2172 23.5598C86.3098 23.6523 86.418 23.7303 86.5272 23.8073C86.6821 23.8999 86.8371 23.9935 86.991 24.0548C87.1304 24.1474 87.2697 24.1942 87.4247 24.2098C87.5172 24.2254 87.6265 24.2254 87.719 24.2254C87.9509 24.2254 88.1215 24.2098 88.2764 24.163C88.4314 24.1318 88.5708 24.0548 88.7101 23.9311C88.8339 23.8687 88.9264 23.7761 89.0044 23.6835C89.1126 23.5754 89.2052 23.436 89.3289 23.2966C89.3601 23.1729 89.3913 23.0491 89.4215 22.9098C89.4683 22.7091 89.5141 22.5073 89.5141 22.2598C89.5141 22.136 89.4984 21.9967 89.4828 21.8573C89.4828 21.6098 89.4361 21.3311 89.3903 21.0835H89.3944Z" fill="white"/>
<path d="M92.2274 24.2264L92.1806 24.1952L92.2118 23.3591L92.1494 22.5541V21.718L92.2264 20.8818L92.2108 20.0456V19.2719L92.2264 18.4201C92.2108 18.157 92.1796 17.8939 92.1796 17.6308C92.1796 17.3676 92.1952 17.1045 92.2108 16.857L92.1338 15.9907L91.0813 15.9595L91.1281 16.8414V17.662L91.1437 18.4669C91.0813 19.04 91.0668 19.5662 91.0668 20.1382L91.1136 20.8964L91.0668 21.7481L91.0512 22.5531L91.098 24.1942L92.2285 24.2254L92.2274 24.2264Z" fill="white"/>
<path d="M104.162 25.9133L105.215 25.6346V24.892L104.286 25.1239L103.342 25.4495L102.738 25.6814L101.794 25.9133V26.6871L102.723 26.4552L104.162 25.9133Z" fill="white"/>
<path d="M106.639 21.2385C106.623 20.8828 106.484 20.6197 106.329 20.3566C106.189 20.0778 106.019 19.8927 105.803 19.7066C105.571 19.5516 105.307 19.459 104.982 19.459C104.734 19.459 104.456 19.536 104.27 19.6296C103.914 19.7846 103.372 20.419 103.201 20.7601C103.078 21.0076 102.923 21.3789 102.783 21.7044C102.613 21.9987 102.412 22.2774 102.18 22.5707C101.901 22.7413 101.422 22.8026 101.143 22.8026H96.8554C96.376 22.8338 96.1274 22.7413 95.8955 22.6945L95.7873 22.6633C95.6324 22.6009 95.4774 22.5083 95.3079 22.4002C95.2309 22.1838 95.2153 21.8583 95.1217 21.6108C95.0292 21.3789 94.921 21.1314 94.8586 20.8682L93.8831 21.2239C93.9913 21.4558 94.0069 21.8271 94.115 22.1214C94.1462 22.1984 94.1618 22.2764 94.192 22.3534C94.2845 22.6477 94.3469 22.8796 94.4239 23.1271C94.5008 23.514 94.5477 23.7002 94.5165 23.9009C94.5009 24.1172 94.4853 24.241 94.4541 24.4583C94.3615 24.6289 94.1909 24.814 94.0516 24.9378C94.0204 24.9534 94.0048 24.9846 93.9746 25.0002C93.7739 25.1551 93.5409 25.2789 93.2778 25.4338C92.8909 25.5108 92.5041 25.5576 91.9778 25.5576V26.4094C92.2565 26.5643 92.5353 26.6725 92.9835 26.6725H93.308C93.5243 26.6569 93.7105 26.6413 93.8498 26.5799C94.0973 26.425 94.3293 26.2242 94.531 26.0069C94.7328 25.8519 94.8409 25.6356 94.9647 25.3725L95.0115 25.2643C95.1977 25.0012 95.3516 24.2586 95.3828 23.9019C95.4909 23.9487 95.5835 24.0101 95.6771 24.0569C95.9246 24.1806 96.1721 24.1962 96.4196 24.1962H100.723C101.575 24.1962 101.993 23.9799 102.504 23.3445C102.581 23.2207 102.674 23.097 102.751 22.9732L103.293 23.2051L104.021 23.437L104.842 23.8083L105.6 24.0714L106.018 23.9945C106.219 23.6388 106.652 22.6477 106.683 22.2608C106.715 21.9051 106.652 21.5796 106.637 21.2395L106.639 21.2385ZM105.757 22.6633L103.357 21.8427C103.497 21.5484 103.713 21.2083 103.899 20.837C104.178 20.8058 104.379 20.7601 104.627 20.7601C104.952 20.7445 105.154 20.8214 105.37 21.0388C105.509 21.2863 105.617 21.4881 105.695 21.7668C105.788 22.1381 105.835 22.4324 105.757 22.6643V22.6633Z" fill="white"/>
</svg>
