<svg width="188" height="45" viewBox="0 0 188 45" fill="none" xmlns="http://www.w3.org/2000/svg">
<g clip-path="url(#clip0_1154_2127)">
<path d="M153.544 20.183C154.473 21.195 154.94 22.3119 154.94 23.5327C154.94 24.5296 154.695 25.6534 154.206 26.9065C153.717 28.1596 153.159 29.3688 152.533 30.5342C151.908 31.6996 151.106 33.045 150.127 34.5715H144.785C143.903 34.5715 143.177 34.3269 142.608 33.8365C142.038 33.3461 141.577 32.7242 141.225 31.9684C140.871 31.2138 140.591 30.4061 140.383 29.5465C140.174 28.6869 140.006 27.8711 139.878 27.1004C139.749 26.3296 139.621 25.695 139.493 25.1965C139.558 26.16 139.542 27.1811 139.445 28.2577C139.349 29.3342 139.111 30.3507 138.735 31.3061C138.357 32.2627 137.764 33.045 136.954 33.6554C136.145 34.2669 135.026 34.5715 133.598 34.5715C132.683 34.5715 131.857 34.4504 131.12 34.2104C130.381 33.9692 129.715 33.6323 129.122 33.1984L127.221 39.9946C125.602 41.3446 123.717 42.4292 121.568 43.2484C119.418 44.0677 117.004 44.4773 114.325 44.4773C111.951 44.4773 109.85 43.8946 108.022 42.7303C106.192 41.565 104.825 40.043 103.92 38.1634C103.013 36.2838 102.712 34.2427 103.016 32.0423C103.322 29.8407 104.38 27.6727 106.192 25.5346C108.006 23.3977 110.732 21.4938 114.374 19.823C112.032 21.4465 110.451 23.4946 109.634 25.9684C108.817 28.4434 108.792 30.773 109.562 32.9573C110.187 34.5807 111.294 35.8615 112.882 36.8007C114.47 37.7411 116.282 38.2269 118.32 38.2592C120.838 38.2269 122.952 37.6765 124.661 36.608C126.369 35.5396 127.728 34.3061 128.74 32.9088C127.216 31.5588 126.165 29.8407 125.588 27.7511L127.248 21.533C127.263 22.0154 127.424 22.6142 127.729 23.3284C128.034 24.0438 128.467 24.7627 129.029 25.485C129.59 26.2084 130.28 26.8188 131.098 27.3161C131.916 27.8146 132.854 28.0638 133.913 28.0638C134.65 28.0638 135.284 27.9519 135.814 27.7257C136.344 27.5007 136.784 27.2042 137.137 26.8338C137.491 26.4646 137.779 26.0584 138.004 25.6165C138.228 25.1746 138.405 24.7327 138.534 24.2907C138.662 23.8488 138.758 23.4438 138.823 23.0734C138.886 22.7042 138.938 22.4065 138.978 22.1815C139.019 21.9565 139.066 21.84 139.122 21.8319C139.179 21.8238 139.263 21.9565 139.375 22.23C139.502 22.5519 139.687 23.025 139.929 23.6515C140.169 24.278 140.478 24.9254 140.855 25.5911C141.232 26.2581 141.689 26.8361 142.226 27.3265C142.763 27.8169 143.385 28.0615 144.091 28.0615H152.32C150.845 26.9688 148.768 25.3061 146.088 23.0723L148.494 12.9738C148.605 14.0988 149.164 15.2711 150.166 16.4919C151.168 17.7127 152.296 18.9427 153.547 20.1796L153.544 20.183Z" fill="#F2F2F2"/>
<path d="M187.75 19.6338C188.112 21.6438 188.518 26.3042 186.474 27.0773C183.796 28.0892 180.922 28.5461 178.246 29.625C175.991 30.533 174.098 31.5727 172.567 32.7415C171.036 33.9115 169.52 35.3411 168.018 37.0338C167.068 38.0769 166.029 39.098 164.902 40.0938C163.774 41.0896 162.531 41.9827 161.172 42.7707C159.813 43.5588 158.315 44.1542 156.679 44.5546C154.42 45.1084 152.372 45.1765 150.536 44.7588C148.7 44.3411 147.08 43.5761 145.677 42.4638C144.274 41.3515 142.681 39.9392 141.723 38.3538C140.766 36.7696 140.446 35.1369 139.938 33.3265C141.703 39.1292 145.918 41.0988 152.58 39.2331C155.093 38.4346 157.304 37.2761 159.211 35.7577C161.119 34.2392 162.867 32.6238 164.455 30.9104C166.042 29.1981 167.621 27.6484 169.19 26.2627C170.759 24.8769 172.466 23.9077 174.314 23.3561C173.925 21.5654 173.975 19.8784 174.463 18.2954C174.951 16.7111 175.616 15.3115 176.459 14.0965C177.301 12.8815 178.443 11.5754 179.886 10.1792C181.175 11.468 182.335 12.5642 183.366 13.4688C184.318 14.3054 185.759 15.0369 186.551 16.0015C187.229 16.8288 187.508 18.3911 187.711 19.4157C187.725 19.4838 187.739 19.5565 187.751 19.6327L187.75 19.6338ZM179.326 22.0777L182.926 21.195C182.165 20.6538 181.459 20.1323 180.808 19.6304C180.041 19.058 179.149 18.6392 178.136 18.375C177.121 18.1107 176.267 18.1465 175.574 18.4823C174.879 18.818 174.61 19.6038 174.763 20.8396C174.823 21.2215 175.013 21.5561 175.331 21.8411C175.649 22.1273 176.126 22.3038 176.76 22.3719C177.396 22.4388 178.251 22.3407 179.327 22.0777H179.326Z" fill="#F2F2F2"/>
<path d="M185.58 29.9746L187.593 32.0112C183.053 32.0388 178.082 34.4515 171.776 40.3985L170.776 38.7346C174.797 33.8688 179.853 31.2092 185.579 29.9746H185.58Z" fill="#F2F2F2"/>
<path d="M158.255 -0.0288743C160.636 5.37228 161.936 10.4723 162.151 15.2723C162.367 20.0723 161.797 24.3069 160.446 27.975C159.094 31.6442 157.273 34.4619 154.981 36.4304C156.433 33.9369 158.639 26.0573 158.506 23.1369C158.373 20.2165 157.847 17.43 156.932 14.7796C156.016 12.1292 155.238 9.11881 153.369 5.6792L158.256 -0.0300293L158.255 -0.0288743Z" fill="#F2F2F2"/>
<path d="M122.304 21.7385C123.016 22.2635 123.476 23.055 123.685 24.1131C123.893 25.1723 123.81 26.1727 123.434 27.1165C122.868 28.1227 122.053 28.6061 120.985 28.5635C119.917 28.5219 119.195 27.9658 118.818 26.8961C118.546 27.4211 118.137 27.8711 117.593 28.2484C117.048 28.6258 116.295 28.815 115.332 28.815C114.369 28.815 113.772 28.4688 113.416 27.7765C113.229 27.42 113.124 27.0219 113.102 26.5811C113.059 25.4481 113.343 24.4004 113.95 23.4358C113.781 24.2331 113.761 24.8411 113.887 25.26C114.013 25.68 114.211 25.9569 114.484 26.0931C114.756 26.2292 115.019 26.2973 115.27 26.2973C116.066 26.2973 116.688 26.1715 117.138 25.92C117.589 25.6685 117.918 25.3431 118.128 24.945C118.337 24.5469 118.473 24.1269 118.536 23.6861L119.447 24.0635C119.404 24.9658 119.29 25.71 119.101 26.2973H123.404C122.482 25.3119 121.54 24.5354 120.577 23.97L122.305 21.7361L122.304 21.7385Z" fill="#F2F2F2"/>
<path d="M2.73705 32.4104L4.84284 27.6669H5.78514V34.8508H4.80367V29.4704L4.85321 29.7865L3.08725 33.8527H2.38686L0.620901 29.8858L0.670436 29.4704V34.8508H-0.311035V27.6669H0.631268L2.73705 32.4104Z" fill="#F2F2F2"/>
<path d="M11.1959 34.9246C10.4829 34.9246 9.92991 34.725 9.53824 34.3269C9.14658 33.9288 8.95074 33.3623 8.95074 32.6273V32.0492C8.95074 31.2854 9.13851 30.6935 9.5152 30.2758C9.8919 29.8581 10.4218 29.6481 11.1061 29.6481C11.75 29.6481 12.25 29.8846 12.6036 30.36C12.9573 30.8342 13.1335 31.5 13.1335 32.3562V32.6919H9.68109V31.8819H12.1774C12.1474 31.4665 12.0403 31.1423 11.8548 30.9092C11.6694 30.6762 11.4194 30.5585 11.1072 30.5585C10.7294 30.5585 10.4345 30.6831 10.2248 30.9335C10.014 31.1838 9.90917 31.5381 9.90917 31.9962V32.6481C9.90917 33.0727 10.0221 33.3992 10.2467 33.6265C10.4713 33.8539 10.7881 33.9681 11.1959 33.9681C11.3998 33.9681 11.6026 33.9265 11.803 33.8446C12.0034 33.7627 12.1831 33.6473 12.341 33.4985L13.0022 34.1608C12.7488 34.4042 12.4642 34.5935 12.1486 34.7261C11.8329 34.8588 11.515 34.9258 11.1971 34.9258L11.1959 34.9246Z" fill="#F2F2F2"/>
<path d="M16.1516 34.8508V29.7219H17.1573V34.8508H16.1516ZM18.9682 30.9381C18.8795 30.8296 18.7677 30.7465 18.633 30.6912C18.4982 30.6358 18.3415 30.6069 18.1641 30.6069C17.845 30.6069 17.5974 30.6946 17.4223 30.8712C17.246 31.0477 17.1585 31.2923 17.1585 31.605L17.0548 30.6173C17.2091 30.3138 17.4119 30.0773 17.6642 29.9054C17.9153 29.7346 18.1929 29.6481 18.4947 29.6481C18.7286 29.6481 18.9394 29.6815 19.1283 29.7496C19.3172 29.8165 19.4831 29.9169 19.6237 30.0485L18.9682 30.9381Z" fill="#F2F2F2"/>
<path d="M23.7373 34.9246C23.1095 34.9246 22.6383 34.7942 22.3238 34.5346C22.0094 34.275 21.8527 33.8758 21.8527 33.3392C21.8527 32.8027 21.9967 32.4473 22.2847 32.1958C22.5727 31.9442 23.0035 31.8173 23.5795 31.8173H25.0344L25.1035 32.6273H23.5841C23.3237 32.6273 23.1291 32.6862 22.9966 32.8027C22.8653 32.9192 22.7996 33.0981 22.7996 33.3392C22.7996 33.6 22.8872 33.7927 23.0611 33.9173C23.235 34.0419 23.4965 34.1054 23.8456 34.1054C24.2269 34.1054 24.5126 34.0638 24.7038 33.9819C24.895 33.9 24.9895 33.7708 24.9895 33.5965L25.0932 34.3177C25.0045 34.4562 24.8939 34.5692 24.7625 34.6581C24.6312 34.7469 24.4803 34.8138 24.311 34.8577C24.1416 34.9015 23.9504 34.9246 23.7361 34.9246H23.7373ZM24.9895 34.8508V31.6004C24.9895 31.2646 24.8996 31.0038 24.7211 30.8169C24.5414 30.6311 24.2879 30.5377 23.9585 30.5377C23.758 30.5377 23.5599 30.5677 23.3641 30.6288C23.1682 30.69 22.9931 30.7777 22.8388 30.8931L22.1038 30.3888C22.2973 30.1546 22.5531 29.9735 22.871 29.8431C23.1878 29.7127 23.5415 29.6481 23.9285 29.6481C24.5702 29.6481 25.0667 29.8142 25.418 30.1465C25.7694 30.4788 25.9456 30.9485 25.9456 31.5542V34.8496H24.9883L24.9895 34.8508Z" fill="#F2F2F2"/>
<path d="M30.9232 34.9246C30.4693 34.9246 30.0581 34.8577 29.6872 34.725C29.3162 34.5923 28.9856 34.3915 28.693 34.125L29.2897 33.3888C29.5697 33.6 29.845 33.7581 30.1157 33.8631C30.3864 33.9681 30.656 34.0211 30.9221 34.0211C31.3195 34.0211 31.6179 33.9588 31.8171 33.8354C32.0164 33.7119 32.1155 33.5262 32.1155 33.2792C32.1155 33.0877 32.0487 32.9527 31.9162 32.8742C31.7826 32.7958 31.6086 32.7438 31.3932 32.7185C31.1778 32.6942 30.9463 32.6735 30.6997 32.6562C30.4924 32.64 30.2873 32.6146 30.0834 32.58C29.8795 32.5454 29.6941 32.4831 29.5259 32.3919C29.3577 32.3019 29.2241 32.1669 29.1239 31.9892C29.0236 31.8115 28.973 31.5727 28.973 31.2727C28.973 30.7292 29.1388 30.3219 29.4706 30.0519C29.8024 29.7819 30.2977 29.6469 30.9555 29.6469C31.3564 29.6469 31.7296 29.7011 32.0752 29.8096C32.4208 29.9181 32.7445 30.0842 33.0474 30.3081L32.4404 31.0442C32.1835 30.8792 31.9312 30.7558 31.6835 30.6738C31.4347 30.5919 31.1928 30.5504 30.9555 30.5504C30.6133 30.5504 30.3565 30.6092 30.186 30.7258C30.0155 30.8423 29.9291 31.0177 29.9291 31.2519C29.9291 31.4065 29.9878 31.5185 30.1065 31.5854C30.2251 31.6523 30.3806 31.6961 30.5753 31.7158C30.7689 31.7354 30.9785 31.7538 31.202 31.77C31.4163 31.7827 31.6317 31.8069 31.8505 31.8415C32.0694 31.8761 32.271 31.9431 32.4553 32.0411C32.6396 32.1392 32.7871 32.2869 32.8988 32.4808C33.0106 32.6746 33.067 32.94 33.067 33.2758C33.067 33.8262 32.8885 34.2381 32.5314 34.5104C32.1743 34.7838 31.6374 34.92 30.9209 34.92L30.9232 34.9246Z" fill="#F2F2F2"/>
<path d="M42.8518 30.9819H45.3377V32.2373C45.3377 32.7773 45.2329 33.2492 45.0244 33.6531C44.8159 34.0569 44.5233 34.3696 44.1489 34.5923C43.7745 34.815 43.3333 34.9258 42.8265 34.9258C42.3196 34.9258 41.8715 34.8208 41.4902 34.6119C41.1089 34.4031 40.8128 34.1077 40.602 33.7281C40.3912 33.3473 40.2864 32.9042 40.2864 32.3965V30.2769C40.2864 29.7369 40.3912 29.2662 40.5997 28.8635C40.8082 28.4619 41.1008 28.1492 41.4752 27.9277C41.8496 27.705 42.2908 27.5942 42.7977 27.5942C43.2147 27.5942 43.596 27.6831 43.9392 27.8608C44.2825 28.0385 44.5717 28.2877 44.8044 28.6062C45.0382 28.9258 45.196 29.2996 45.2778 29.7277H44.1881C44.0959 29.3562 43.9162 29.0712 43.6501 28.8727C43.384 28.6742 43.0995 28.5762 42.7965 28.5762C42.3495 28.5762 41.9913 28.7319 41.7217 29.0435C41.4522 29.355 41.3174 29.7658 41.3174 30.2758V32.3954C41.3174 32.8627 41.4556 33.2377 41.7321 33.5192C42.0086 33.8008 42.3737 33.9415 42.8276 33.9415C43.2815 33.9415 43.6328 33.7939 43.9024 33.4973C44.1719 33.2008 44.3067 32.7877 44.3067 32.2569V31.9454H42.8518V30.9819Z" fill="#F2F2F2"/>
<path d="M49.5101 27.6669V33.5262C49.5101 33.6485 49.5378 33.7431 49.5919 33.8123C49.646 33.8815 49.7221 33.9162 49.8211 33.9162H50.2946V34.875H49.7025C49.3247 34.875 49.0297 34.7562 48.8201 34.5196C48.6093 34.2831 48.5045 33.9485 48.5045 33.5169V27.6669H49.5101Z" fill="#F2F2F2"/>
<path d="M55.028 34.9246C54.3576 34.9246 53.838 34.7296 53.4694 34.3396C53.1008 33.9496 52.9165 33.4004 52.9165 32.6919V31.8565C52.9165 31.155 53.1008 30.6115 53.4694 30.2261C53.838 29.8408 54.3576 29.6481 55.028 29.6481C55.6985 29.6481 56.218 29.8408 56.5866 30.2261C56.9552 30.6115 57.1396 31.155 57.1396 31.8565V32.7069C57.1396 33.4119 56.9552 33.9577 56.5866 34.3442C56.218 34.7308 55.6985 34.9246 55.028 34.9246ZM55.028 33.9669C55.3794 33.9669 55.6524 33.8562 55.8448 33.6358C56.0371 33.4154 56.1328 33.105 56.1328 32.7069V31.8565C56.1328 31.4585 56.0371 31.1504 55.8448 30.9323C55.6524 30.7142 55.3805 30.6058 55.028 30.6058C54.6755 30.6058 54.4083 30.7142 54.2147 30.9323C54.0201 31.1492 53.9233 31.4573 53.9233 31.8565V32.7069C53.9233 33.105 54.0201 33.4154 54.2147 33.6358C54.4083 33.8562 54.6801 33.9669 55.028 33.9669Z" fill="#F2F2F2"/>
<path d="M60.2061 34.8508V27.6669H61.2129V34.8508H60.2061ZM62.4996 34.9246C62.1805 34.9246 61.9029 34.8485 61.6656 34.695C61.4283 34.5415 61.2544 34.3258 61.1426 34.0454L61.2117 32.9735C61.2117 33.1939 61.2509 33.3819 61.3304 33.5365C61.4099 33.6912 61.5239 33.81 61.6737 33.8919C61.8234 33.9738 62.0054 34.0154 62.2186 34.0154C62.5503 34.0154 62.8084 33.9139 62.9904 33.7119C63.1724 33.51 63.2645 33.2238 63.2645 32.8546V31.7435C63.2645 31.3685 63.1735 31.0765 62.9904 30.8689C62.8084 30.6612 62.5503 30.5573 62.2186 30.5573C62.0043 30.5573 61.8234 30.5965 61.6737 30.6762C61.5239 30.7546 61.4099 30.87 61.3304 31.0223C61.2509 31.1735 61.2117 31.3581 61.2117 31.5762L61.1081 30.5885C61.2624 30.2885 61.4652 30.0577 61.7152 29.8938C61.9651 29.7312 62.2427 29.6492 62.5492 29.6492C63.0987 29.6492 63.5226 29.8315 63.8221 30.195C64.1216 30.5585 64.2714 31.0742 64.2714 31.7388V32.8558C64.2714 33.5112 64.117 34.02 63.8083 34.3823C63.4995 34.7446 63.0629 34.9258 62.5008 34.9258L62.4996 34.9246Z" fill="#F2F2F2"/>
<path d="M68.976 34.9246C68.3481 34.9246 67.877 34.7942 67.5625 34.5346C67.248 34.275 67.0913 33.8758 67.0913 33.3392C67.0913 32.8027 67.2353 32.4473 67.5233 32.1958C67.8113 31.9442 68.2422 31.8173 68.8181 31.8173H70.2731L70.3422 32.6273H68.8227C68.5624 32.6273 68.3677 32.6862 68.2352 32.8027C68.1039 32.9192 68.0383 33.0981 68.0383 33.3392C68.0383 33.6 68.1258 33.7927 68.2998 33.9173C68.4737 34.0419 68.7352 34.1054 69.0842 34.1054C69.4655 34.1054 69.7512 34.0638 69.9424 33.9819C70.1337 33.9 70.2281 33.7708 70.2281 33.5965L70.3318 34.3177C70.2431 34.4562 70.1325 34.5692 70.0012 34.6581C69.8699 34.7469 69.719 34.8138 69.5496 34.8577C69.3803 34.9015 69.1891 34.9246 68.9748 34.9246H68.976ZM70.2281 34.8508V31.6004C70.2281 31.2646 70.1383 31.0038 69.9597 30.8169C69.78 30.6311 69.5266 30.5377 69.1971 30.5377C68.9967 30.5377 68.7986 30.5677 68.6027 30.6288C68.4069 30.69 68.2318 30.7777 68.0774 30.8931L67.3425 30.3888C67.536 30.1546 67.7917 29.9735 68.1097 29.8431C68.4265 29.7127 68.7801 29.6481 69.1672 29.6481C69.8088 29.6481 70.3053 29.8142 70.6567 30.1465C71.008 30.4788 71.1843 30.9485 71.1843 31.5542V34.8496H70.227L70.2281 34.8508Z" fill="#F2F2F2"/>
<path d="M75.3567 27.6669V33.5262C75.3567 33.6485 75.3843 33.7431 75.4385 33.8123C75.4926 33.8815 75.5686 33.9162 75.6677 33.9162H76.1412V34.875H75.5491C75.1712 34.875 74.8763 34.7562 74.6666 34.5196C74.4558 34.2831 74.351 33.9485 74.351 33.5169V27.6669H75.3567Z" fill="#F2F2F2"/>
<path d="M85.7082 34.9246C85.2082 34.9246 84.7705 34.8139 84.3961 34.5912C84.0217 34.3685 83.7303 34.0569 83.5229 33.6554C83.3156 33.2539 83.2119 32.7842 83.2119 32.2477V30.2769C83.2119 29.7369 83.3156 29.2662 83.5229 28.8635C83.7303 28.4619 84.0217 28.1492 84.3961 27.9277C84.7705 27.705 85.2082 27.5942 85.7082 27.5942C86.1229 27.5942 86.5019 27.6831 86.8452 27.8608C87.1885 28.0385 87.4764 28.2877 87.708 28.6062C87.9395 28.9258 88.0973 29.2996 88.1791 29.7277H87.1481C87.0859 29.4969 86.9811 29.295 86.8348 29.1219C86.6885 28.9489 86.5169 28.815 86.3199 28.7192C86.1229 28.6235 85.919 28.5762 85.7082 28.5762C85.267 28.5762 84.9133 28.7319 84.6449 29.0435C84.3765 29.355 84.2429 29.7658 84.2429 30.2758V32.2465C84.2429 32.7565 84.3765 33.1673 84.6449 33.4765C84.9133 33.7858 85.267 33.9404 85.7082 33.9404C86.0204 33.9404 86.3153 33.8412 86.5906 33.6438C86.8671 33.4465 87.0525 33.1615 87.1481 32.7889H88.1791C88.0973 33.2169 87.9395 33.5908 87.7057 33.9104C87.4718 34.23 87.1838 34.4781 86.8429 34.6569C86.5007 34.8346 86.1229 34.9235 85.7082 34.9235V34.9246Z" fill="#F2F2F2"/>
<path d="M93.1107 34.9246C92.4403 34.9246 91.9207 34.7296 91.5521 34.3396C91.1835 33.9496 90.9991 33.4004 90.9991 32.6919V31.8565C90.9991 31.155 91.1835 30.6115 91.5521 30.2261C91.9207 29.8408 92.4403 29.6481 93.1107 29.6481C93.7811 29.6481 94.3007 29.8408 94.6693 30.2261C95.0379 30.6115 95.2222 31.155 95.2222 31.8565V32.7069C95.2222 33.4119 95.0379 33.9577 94.6693 34.3442C94.3007 34.7308 93.7811 34.9246 93.1107 34.9246ZM93.1107 33.9669C93.462 33.9669 93.7351 33.8562 93.9274 33.6358C94.1198 33.4154 94.2154 33.105 94.2154 32.7069V31.8565C94.2154 31.4585 94.1198 31.1504 93.9274 30.9323C93.7351 30.7142 93.4632 30.6058 93.1107 30.6058C92.7582 30.6058 92.4909 30.7142 92.2974 30.9323C92.1039 31.1492 92.006 31.4573 92.006 31.8565V32.7069C92.006 33.105 92.1027 33.4154 92.2974 33.6358C92.4909 33.8562 92.7628 33.9669 93.1107 33.9669Z" fill="#F2F2F2"/>
<path d="M4.45807 15.4835L4.52603 16.4181L4.54331 17.37L4.49263 18.2539C4.49263 18.4073 4.40738 19.7665 4.7138 20.0054C4.93498 20.2269 5.29094 20.2604 5.83466 20.2604L5.81738 21.5181L5.3589 21.7904C4.93498 21.8238 4.57787 21.705 4.30601 21.5689C4.00074 21.45 3.79684 21.2285 3.69547 21.0254C3.5941 20.7877 3.49157 20.6008 3.40748 20.3792C3.3568 20.5489 3.25427 20.7023 3.11949 20.8039C2.7117 21.0254 2.2705 21.0254 1.84657 21.0415C1.55858 21.0923 1.15079 21.0081 0.84552 20.8719C0.608216 20.7865 0.404319 20.5315 0.251108 20.2604C0.115177 20.0054 -0.00347522 19.6996 0.0299316 19.2404C-0.00347522 18.8492 0.0633397 18.5262 0.21655 18.2377C0.352482 17.9827 0.539098 17.6769 0.708436 17.5235C0.94574 17.2512 1.23488 17.1669 1.59084 16.9627C1.91339 16.8612 2.20138 16.725 2.49052 16.6742C2.84648 16.6235 3.10106 16.5046 3.3902 16.47V16.4192L3.37292 15.5008L4.45922 15.4835H4.45807ZM0.960716 12.7627C1.14733 12.7627 1.36851 12.8135 1.48716 12.9669C1.62309 13.1204 1.70834 13.29 1.70834 13.5104C1.70834 13.6973 1.62309 13.8842 1.48716 14.0377C1.36851 14.1565 1.14733 14.2754 0.960716 14.2754C0.552922 14.2754 0.214246 13.9015 0.214246 13.5104C0.214246 13.0685 0.519515 12.7627 0.960716 12.7627ZM3.33721 19.5808C3.33721 19.4792 3.31993 19.3592 3.31993 19.2242L3.40518 18.3231L3.37177 17.5235C2.99854 17.5742 2.59074 17.6596 2.26819 17.7958C1.91224 17.8812 1.70834 18.0173 1.38579 18.2042C1.19917 18.3577 0.961868 18.4927 0.791378 18.7142C0.774098 18.8331 0.723413 19.1562 0.706134 19.2242C0.892752 19.3604 1.11393 19.5646 1.30054 19.6327C1.53785 19.7181 1.84427 19.7342 2.14954 19.7342C2.52278 19.7342 2.84532 19.7169 3.33721 19.5808ZM2.91329 12.7627C3.09991 12.7627 3.32108 12.8135 3.43974 12.9669C3.57567 13.1204 3.66091 13.29 3.66091 13.5104C3.66091 13.6973 3.57567 13.8842 3.43974 14.0377C3.32108 14.1565 3.09991 14.2754 2.91329 14.2754C2.5055 14.2754 2.16682 13.9015 2.16682 13.5104C2.16682 13.0685 2.47209 12.7627 2.91329 12.7627Z" fill="#F2F2F2"/>
<path d="M7.42781 20.1589L7.35985 17.5408L8.58208 17.5073L8.61549 18.765V19.1896C8.59821 19.5808 8.66617 19.9039 8.8021 20.04C9.03941 20.1762 9.32855 20.2442 9.8884 20.2616V21.435L9.41264 21.7916C8.73414 21.7916 8.20769 21.5873 7.85058 20.9758C7.8333 20.9423 7.7999 20.9077 7.78262 20.8742L7.46007 21.3508C6.96818 21.7073 6.16987 21.7927 5.35544 21.7927V20.7046L5.8312 20.2627C6.56154 20.2627 7.05343 20.2292 7.42666 20.1612L7.42781 20.1589ZM6.57997 23.1346C6.76659 23.1346 6.98777 23.1854 7.10642 23.3389C7.24235 23.4923 7.32759 23.6619 7.32759 23.8835C7.32759 24.0704 7.24235 24.2573 7.10642 24.4108C6.98777 24.5296 6.76659 24.6485 6.57997 24.6485C6.17218 24.6485 5.8335 24.2746 5.8335 23.8835C5.8335 23.4416 6.13877 23.1358 6.57997 23.1358V23.1346ZM8.53139 23.1346C8.71801 23.1346 8.93919 23.1854 9.05784 23.3389C9.19377 23.4923 9.27901 23.6619 9.27901 23.8835C9.27901 24.0704 9.19377 24.2573 9.05784 24.4108C8.93919 24.5296 8.71801 24.6485 8.53139 24.6485C8.1236 24.6485 7.78492 24.2746 7.78492 23.8835C7.78492 23.4416 8.09019 23.1358 8.53139 23.1358V23.1346Z" fill="#F2F2F2"/>
<path d="M10.9586 20.1589C10.9413 20.1081 10.9413 20.0573 10.9413 20.0054C10.924 19.665 10.9586 19.3085 11.0093 19.1043C11.0945 18.7812 11.2132 18.4927 11.3825 18.1858C11.5357 17.9308 11.7903 17.7773 11.993 17.5904C12.2142 17.437 12.4515 17.1658 12.7395 17.0804C13.0955 16.9616 13.3673 17.0297 13.7072 16.9789L14.4882 16.9962C14.6414 17.7439 14.8787 18.4927 15.116 19.2231C15.2347 19.4608 15.5065 19.7839 15.6759 19.92C15.9304 20.1923 16.253 20.2766 16.5755 20.2604V21.4166L16.0998 21.7904C15.8279 21.7904 15.4892 21.7397 15.336 21.5862C15.2508 21.5354 15.1828 21.4846 15.0987 21.4166L14.7255 22.3004L13.5033 21.9773C13.266 21.892 12.5183 21.637 12.3824 21.5862C11.8387 21.382 11.4827 21.2123 11.2615 20.9747C11.2281 20.9239 11.1936 20.8731 11.1602 20.8385C11.0922 21.06 10.939 21.2804 10.7017 21.4846C10.2259 21.7396 9.80201 21.7904 9.4115 21.7904V20.7023L9.88726 20.2604C10.3791 20.2604 10.7017 20.227 10.9563 20.1589H10.9586ZM12.2154 18.4593C12.0115 18.8158 11.8421 19.3096 11.7569 19.5473C11.7569 19.785 11.9435 19.8531 12.2154 19.972L13.1657 20.3804L14.2348 20.7035L14.6425 20.857C14.5746 20.7208 14.5066 20.5685 14.4214 20.3977C14.2348 20.092 14.0988 19.7343 13.9802 19.4631C13.827 19.0893 13.6749 18.6808 13.5044 18.307C13.1646 18.3243 12.6047 18.3923 12.2142 18.4604L12.2154 18.4593Z" fill="#F2F2F2"/>
<path d="M16.1021 20.4992L16.5778 20.2616C17.019 20.2616 17.4775 20.16 17.7655 20.0573V19.1227L17.8508 18.2042L17.8335 17.2858L17.7655 15.5169L17.7989 14.5823V13.6477L17.7655 12.7466L18.9371 12.7292L18.9543 13.7319L18.8864 16.5035C18.8864 16.6569 18.9198 17.235 18.9198 17.37C18.9198 17.5396 18.9371 18.135 18.9371 18.2712V19.2058C18.9371 20.0216 18.7504 20.5489 18.2747 21.195C18.0535 21.45 17.6803 21.5689 17.3923 21.6877C16.9845 21.7892 16.6285 21.7893 16.1021 21.7893V20.4969V20.4992Z" fill="#F2F2F2"/>
<path d="M21.5336 18.9173C21.5336 19.3938 21.5843 19.92 21.8055 20.0734C22.0935 20.2777 22.5692 20.2777 22.909 20.2604V21.5181L22.4333 21.7904C22.1614 21.7904 21.9414 21.7904 21.7548 21.7569C21.1442 21.6888 20.6858 21.06 20.5498 20.4992C20.4485 20.1254 20.4312 19.6996 20.4139 19.4111V19.2069L20.4473 18.4246L20.3966 17.5061V17.3019L20.43 16.5023L20.3793 15.5838L20.4127 13.6961L20.3793 12.795L21.567 12.8123L21.499 13.7815L21.567 14.8188V16.9615L21.5843 18.0323C21.5843 18.1684 21.5336 18.525 21.5336 18.9161V18.9173Z" fill="#F2F2F2"/>
<path d="M24.9803 20.1416C24.4365 19.7169 23.9619 19.1389 23.5207 18.6116L23.894 17.0816C24.3524 16.8439 25.5747 16.5035 26.0838 16.5035C26.4571 16.5035 26.8821 16.5716 27.2381 16.7077C27.8659 16.9119 28.3417 17.7277 28.3751 18.3566C28.3924 18.6289 28.3244 18.8666 28.2219 19.1042C28.0525 19.5635 27.7979 19.92 27.4074 20.2269C27.6286 20.2604 27.8486 20.2604 28.1205 20.2604C28.4258 20.2604 28.7656 20.2431 29.1895 20.2604V21.7396L28.7138 21.7904C28.018 21.7904 26.5412 21.3485 26.0493 20.9573C26.032 20.94 26.0159 20.9239 25.9813 20.9066C25.7267 20.9919 25.5228 21.0762 25.2682 21.195C25.2176 21.2123 25.0643 21.2965 25.0309 21.3139C24.6911 21.4673 24.4538 21.5008 24.1485 21.5862C23.7926 21.6716 23.5034 21.6716 23.1982 21.705C22.9263 21.7385 22.6544 21.8065 22.4344 21.7904V20.5154L22.9102 20.2604C23.318 20.2431 23.6739 20.2269 24.0817 20.2269C24.319 20.2269 24.6589 20.1935 24.9814 20.1416H24.9803ZM26.3211 19.9385C26.593 19.7008 26.9328 19.5473 27.2035 19.3431C27.4581 19.1389 27.6954 18.8331 27.7127 18.5781C27.6275 18.1189 26.8637 18.0335 26.3039 18.0335H26.0493C25.5908 18.0669 24.8777 18.1523 24.4711 18.3566V18.4754C24.7764 18.7477 25.0655 19.0027 25.2521 19.2069C25.456 19.4446 25.6426 19.5808 25.8972 19.7169C26.0504 19.8023 26.1518 19.8358 26.2532 19.9039C26.2704 19.9212 26.2866 19.9212 26.3211 19.9373V19.9385Z" fill="#F2F2F2"/>
<path d="M28.7137 20.4992L29.1895 20.2616C29.6307 20.2616 30.0892 20.16 30.3772 20.0573V19.1227L30.4624 18.2042L30.4451 17.2858L30.3772 15.5169L30.4106 14.5823V13.6477L30.3772 12.7466L31.5487 12.7292L31.566 13.7319L31.498 16.5035C31.498 16.6569 31.5314 17.235 31.5314 17.37C31.5314 17.5396 31.5487 18.135 31.5487 18.2712V19.2058C31.5487 20.0216 31.3621 20.5489 30.8863 21.195C30.6652 21.45 30.2919 21.5689 30.0039 21.6877C29.5961 21.7892 29.2402 21.7893 28.7137 21.7893V20.4969V20.4992Z" fill="#F2F2F2"/>
<path d="M34.5369 21.825L33.2974 21.7915L33.2467 19.9892L33.264 19.1054L33.3147 18.1708L33.264 17.3377C33.264 16.7088 33.2813 16.1308 33.3492 15.5008L33.332 14.6169V13.7158L33.2813 12.7465L34.4355 12.78L34.5208 13.7319C34.5035 14.0042 34.4874 14.2927 34.4874 14.5823C34.4874 14.8719 34.5208 15.1604 34.5381 15.45L34.5208 16.3846V17.235L34.5381 18.1534L34.4528 19.0719V19.9904L34.5208 20.8742L34.4874 21.7927L34.5381 21.8261L34.5369 21.825Z" fill="#F2F2F2"/>
<path d="M44.127 18.7304L45.0267 18.3738C45.0774 18.4927 45.1626 18.765 45.2478 19.0708C45.2985 19.2577 45.3838 19.4792 45.4517 19.7169C45.4517 19.7504 45.469 19.785 45.469 19.8184C45.6222 19.92 45.7743 20.0227 45.893 20.0734C46.0968 20.175 46.3848 20.2269 46.674 20.2269C47.1325 20.2269 47.6589 20.1934 48.0494 19.9384C48.2706 19.4111 48.3892 19.02 48.4906 18.2896L49.5769 18.5619C49.441 18.9531 49.3557 19.2415 49.2544 19.4965C49.221 19.5981 49.2037 19.7008 49.1691 19.8023C49.1518 19.8704 49.1357 19.9384 49.1184 19.9892C49.509 20.2108 49.9329 20.3804 50.3914 20.4138C50.5953 20.3965 50.8326 20.3284 51.0019 20.2777C51.0353 20.1761 51.1033 19.9892 51.1378 19.8011C51.1378 19.5796 51.0192 18.9854 50.9685 18.7638C50.9178 18.4581 50.7819 17.9988 50.7312 17.6758L50.9178 17.5904L51.8348 17.3688C51.9027 17.7092 52.0041 18.0323 52.0721 18.3715C52.1228 18.6438 52.1734 18.9496 52.1734 19.2219C52.1907 19.3754 52.2068 19.5277 52.2068 19.6638C52.2068 19.9361 52.1562 20.1565 52.1055 20.3781C52.0721 20.5315 52.0375 20.6665 52.0041 20.8027C51.8682 20.9561 51.7668 21.1084 51.6481 21.2273C51.5629 21.3288 51.4615 21.4315 51.3256 21.4996C51.1724 21.6358 51.0203 21.7211 50.8498 21.7546C50.6805 21.8054 50.4939 21.8227 50.2393 21.8227C50.1379 21.8227 50.0181 21.8227 49.9167 21.8054C49.7474 21.7881 49.5942 21.7373 49.441 21.6358C49.2717 21.5677 49.1012 21.4661 48.9318 21.3635C48.8132 21.2781 48.6945 21.1938 48.592 21.0911C48.5747 21.0577 48.5413 21.0404 48.524 21.0058C48.4906 21.0392 48.4733 21.0738 48.4561 21.1073C48.4054 21.1581 48.3547 21.2088 48.3029 21.2434C48.1496 21.3796 47.9803 21.4811 47.7591 21.6173C47.6912 21.6508 47.6405 21.6681 47.5725 21.6854C47.3686 21.7534 47.1486 21.7708 46.8422 21.7708H46.7235C46.4355 21.7708 46.1971 21.7373 45.8745 21.6346C45.8572 21.6173 45.8238 21.6173 45.8066 21.6011C45.8066 22.0777 45.7893 22.5023 45.6879 22.9615C45.6372 23.115 45.5693 23.2338 45.5186 23.37C45.4506 23.4888 45.3826 23.625 45.2813 23.7784C45.2133 23.8638 45.1119 23.9481 44.9921 24.0334C44.8562 24.1523 44.7041 24.2711 44.5682 24.4073C44.4668 24.4754 44.3643 24.5261 44.2629 24.5608C44.0763 24.6461 43.8897 24.6969 43.7365 24.7984C43.6351 24.8492 43.5499 24.9 43.4473 24.9346C43.2434 25.02 43.0234 25.0708 42.7688 25.1215C42.7354 25.1388 42.7009 25.1388 42.6675 25.155C42.3956 25.2058 42.0396 25.2231 41.7505 25.2231C41.3773 25.2231 41.0374 25.2231 40.6976 25.155C40.6642 25.1377 40.6296 25.1377 40.5962 25.1215C40.3082 25.0534 40.0018 24.9519 39.6966 24.7811C39.4592 24.5942 39.2888 24.4754 39.1021 24.1858C38.9328 24.0161 38.7623 23.6584 38.6782 23.37C38.5596 23.0815 38.457 22.6731 38.4743 22.3327C38.4916 22.2473 38.4916 22.1792 38.5077 22.1111C38.5584 21.7027 38.6609 21.3796 38.7796 21.0058C38.9489 20.5131 39.1194 20.0192 39.3394 19.56L39.9845 19.7296L39.7127 20.7842L39.5433 21.7188C39.4581 22.1781 39.5767 22.5184 39.7645 22.7896L39.8325 22.8911C40.0191 23.1461 40.2403 23.3838 40.5455 23.4865C40.5962 23.52 40.6642 23.5373 40.7322 23.5719C41.0374 23.6734 41.4279 23.7081 41.8864 23.7415H41.9878C42.7516 23.7081 43.5153 23.5038 44.2284 23.2315C44.5682 23.01 44.7548 22.9431 44.8907 22.755C44.9242 22.5854 44.8735 22.3465 44.8228 22.0408C44.7721 21.7523 44.6868 21.48 44.5855 21.1742C44.5521 21.1061 44.5348 21.0381 44.5002 20.9527C44.3816 20.5961 44.3136 20.2892 44.1777 19.95C44.1604 19.8646 44.127 19.7965 44.0924 19.7123C43.9911 19.4065 43.8551 19.0327 43.7699 18.8458L44.1258 18.7269L44.127 18.7304Z" fill="#F2F2F2"/>
<path d="M55.1777 21.825L53.9382 21.7915L53.8875 19.9892L53.9048 19.1054L53.9555 18.1708L53.9048 17.3377C53.9048 16.7088 53.9221 16.1308 53.9901 15.5008L53.9728 14.6169V13.7158L53.9221 12.7465L55.0764 12.78L55.1616 13.7319C55.1443 14.0042 55.1282 14.2927 55.1282 14.5823C55.1282 14.8719 55.1616 15.1604 55.1789 15.45L55.1616 16.3846V17.235L55.1789 18.1534L55.0936 19.0719V19.9904L55.1616 20.8742L55.1282 21.7927L55.1789 21.8261L55.1777 21.825Z" fill="#F2F2F2"/>
<path d="M58.0634 18.1362C58.1314 18.4246 58.25 18.6969 58.3514 18.9519C58.4528 19.2242 58.47 19.5808 58.5553 19.8196C58.7419 19.9385 58.9113 20.0412 59.0817 20.1081L59.2004 20.1415C59.455 20.1923 59.7268 20.295 60.2533 20.2604V21.4846L59.7775 21.7904C59.5057 21.7904 59.2338 21.7731 58.9631 21.6369C58.8617 21.5862 58.7592 21.5181 58.6405 21.4673C58.6071 21.8585 58.4366 22.6742 58.2327 22.9639L58.1821 23.0827C58.0461 23.3712 57.9275 23.61 57.7063 23.7796C57.4851 24.0173 57.2305 24.2389 56.9598 24.4085C56.8066 24.4765 56.6039 24.4939 56.3654 24.51H56.0095C55.5176 24.51 55.2112 24.3912 54.9059 24.2215V23.2869C55.483 23.2869 55.9069 23.2362 56.332 23.1508C56.62 22.9812 56.8757 22.845 57.0958 22.6742C57.1292 22.6569 57.1464 22.6235 57.181 22.6062C57.3342 22.47 57.5208 22.2658 57.6222 22.0789C57.6556 21.8412 57.6729 21.705 57.6902 21.4673C57.7236 21.2458 57.6729 21.0427 57.5888 20.6169C57.5036 20.3446 57.4356 20.0896 57.3342 19.7665C57.3008 19.6812 57.2835 19.5969 57.249 19.5115C57.1303 19.1885 57.113 18.78 56.9944 18.525L58.0634 18.1339V18.1362Z" fill="#F2F2F2"/>
<path d="M64.6999 23.3723L63.5456 23.6781L61.9674 24.2734L60.9491 24.5284V23.6781L61.9847 23.4231L62.6471 23.1681L63.6827 22.8115L64.701 22.5565V23.3723H64.6999Z" fill="#F2F2F2"/>
<path d="M61.7301 20.8558C61.1702 21.5527 60.7118 21.7904 59.7775 21.7904V20.5154L60.236 20.2604C60.5413 20.2604 61.0677 20.1923 61.373 20.0054C61.6276 19.6823 61.8488 19.3766 62.0354 19.0535C62.1886 18.6969 62.3579 18.2885 62.4939 18.0162C62.6805 17.6423 63.2749 16.9454 63.6654 16.7746C63.8693 16.6731 64.1746 16.5877 64.4464 16.5877C64.8024 16.5877 65.0915 16.6892 65.3461 16.86C65.5834 17.0642 65.77 17.2685 65.9232 17.5742C66.0926 17.8627 66.2458 18.1523 66.2631 18.5435C66.2803 18.9173 66.3483 19.275 66.3138 19.6662C66.2803 20.0908 65.8046 21.1789 65.5834 21.57L65.1249 21.6554L64.2932 21.3669L63.3935 20.9585L62.5952 20.7035L62.0008 20.4485C61.9156 20.5846 61.8142 20.7208 61.7289 20.8569L61.7301 20.8558ZM62.6632 19.2069L65.2943 20.1081C65.3795 19.8531 65.3277 19.53 65.2263 19.1215C65.1411 18.8158 65.0224 18.5942 64.8703 18.3219C64.633 18.0842 64.4119 17.9989 64.0559 18.0162C63.784 18.0162 63.564 18.0669 63.2576 18.1016C63.0537 18.51 62.8164 18.8839 62.6632 19.2069Z" fill="#F2F2F2"/>
<path d="M74.4431 15.4835L74.5111 16.4181L74.5284 17.37L74.4777 18.2539C74.4777 18.4073 74.3925 19.7665 74.6989 20.0054C74.9201 20.2269 75.276 20.2604 75.8197 20.2604L75.8025 21.5181L75.344 21.7904C74.9201 21.8238 74.5629 21.705 74.2911 21.5689C73.9858 21.45 73.7819 21.2285 73.6805 21.0254C73.5792 20.7877 73.4767 20.6008 73.3926 20.3792C73.3419 20.5489 73.2393 20.7023 73.1046 20.8039C72.6968 21.0254 72.2556 21.0254 71.8317 21.0415C71.5437 21.0923 71.1359 21.0081 70.8306 20.8719C70.5933 20.7865 70.3894 20.5315 70.2362 20.2604C70.1003 20.0054 69.9816 19.6996 70.015 19.2404C69.9816 18.8492 70.0484 18.5262 70.2016 18.2377C70.3376 17.9827 70.5242 17.6769 70.6935 17.5235C70.9308 17.2512 71.22 17.1669 71.5759 16.9627C71.8985 16.8612 72.1865 16.725 72.4756 16.6742C72.8316 16.6235 73.0861 16.5046 73.3753 16.47V16.4192L73.358 15.5008L74.4443 15.4835H74.4431ZM70.9469 12.7627C71.1336 12.7627 71.3547 12.8135 71.4734 12.9669C71.6093 13.1204 71.6946 13.29 71.6946 13.5104C71.6946 13.6973 71.6093 13.8842 71.4734 14.0377C71.3547 14.1565 71.1336 14.2754 70.9469 14.2754C70.5392 14.2754 70.2005 13.9015 70.2005 13.5104C70.2005 13.0685 70.5057 12.7627 70.9469 12.7627ZM73.3234 19.5808C73.3234 19.4792 73.3062 19.3592 73.3062 19.2242L73.3914 18.3231L73.358 17.5235C72.9848 17.5742 72.577 17.6596 72.2544 17.7958C71.8985 17.8812 71.6946 18.0173 71.372 18.2042C71.1854 18.3577 70.9481 18.4927 70.7776 18.7142C70.7603 18.8331 70.7096 19.1562 70.6924 19.2242C70.879 19.3604 71.1002 19.5646 71.2868 19.6327C71.5241 19.7181 71.8305 19.7342 72.1358 19.7342C72.509 19.7342 72.8316 19.7169 73.3234 19.5808ZM72.8984 12.7627C73.085 12.7627 73.3062 12.8135 73.4248 12.9669C73.5607 13.1204 73.646 13.29 73.646 13.5104C73.646 13.6973 73.5607 13.8842 73.4248 14.0377C73.3062 14.1565 73.085 14.2754 72.8984 14.2754C72.4906 14.2754 72.1519 13.9015 72.1519 13.5104C72.1519 13.0685 72.4572 12.7627 72.8984 12.7627Z" fill="#F2F2F2"/>
<path d="M75.9879 20.2615L76.3105 20.2442C76.7344 20.2442 77.1422 20.2108 77.55 20.1762C77.8898 20.1427 78.331 20.0908 78.6363 20.0573C78.9761 20.0239 79.1961 19.8877 79.4853 19.7515C79.4346 19.5819 79.3321 19.3269 79.1973 19.0546C79.18 19.0212 79.1639 18.9865 79.1466 18.9358C79.0613 18.7823 78.96 18.5954 78.7906 18.4085L78.5361 18.1027C78.4508 17.9839 78.3494 17.865 78.1962 17.7623C78.0096 17.6089 77.823 17.4566 77.5857 17.3031C77.4843 17.235 77.3818 17.1842 77.2804 17.1162C76.9406 16.9119 76.6353 16.7423 76.1941 16.47L76.4153 15.4835L76.5846 14.4969L81.0324 13.0004L82.1187 12.6439L82.1359 13.4262V13.9027L81.2708 14.2258L80.4218 14.4473L79.5567 14.7704L78.657 15.0081L77.7573 15.2804L76.9763 15.6208C77.5361 15.8077 78.0799 16.1989 78.5038 16.6235C79.2675 17.1681 79.9472 17.9665 80.1672 18.885C80.1845 18.9531 80.1845 19.0212 80.2006 19.0719C80.2179 19.2589 80.234 19.395 80.234 19.4804C80.234 19.7527 80.1661 19.9731 80.0808 20.1773C80.0301 20.2627 79.9956 20.3469 79.9449 20.4323C79.809 20.7208 79.6396 20.9596 79.4185 21.0785C78.1962 21.7246 77.1606 21.7927 75.769 21.7927H75.3451V20.6192L75.8036 20.2627H75.9902L75.9879 20.2615Z" fill="#F2F2F2"/>
<path d="M82.8628 18.1362C82.9308 18.4246 83.0494 18.6969 83.1508 18.9519C83.2522 19.2242 83.2695 19.5808 83.3547 19.8196C83.5413 19.9385 83.7107 20.0412 83.8811 20.1081L83.9998 20.1415C84.2544 20.1923 84.5263 20.295 85.0527 20.2604V21.4846L84.5769 21.7904C84.3051 21.7904 84.0344 21.7731 83.7625 21.6369C83.6611 21.5862 83.5586 21.5181 83.44 21.4673C83.4065 21.8585 83.2361 22.6742 83.0322 22.9639L82.9815 23.0827C82.8455 23.3712 82.7269 23.61 82.5057 23.7796C82.2845 24.0173 82.03 24.2389 81.7592 24.4085C81.606 24.4765 81.4033 24.4939 81.1648 24.51H80.8089C80.317 24.51 80.0106 24.3912 79.7053 24.2215V23.2869C80.2824 23.2869 80.7063 23.2362 81.1314 23.1508C81.4206 22.9812 81.6751 22.845 81.8952 22.6742C81.9286 22.6569 81.9459 22.6235 81.9804 22.6062C82.1336 22.47 82.3202 22.2658 82.4216 22.0789C82.455 21.8412 82.4723 21.705 82.4896 21.4673C82.523 21.2458 82.4723 21.0427 82.3882 20.6169C82.303 20.3446 82.235 20.0896 82.1336 19.7665C82.1002 19.6812 82.0829 19.5969 82.0484 19.5115C81.9297 19.1885 81.9124 18.78 81.7938 18.525L82.8628 18.1339V18.1362Z" fill="#F2F2F2"/>
<path d="M93.4724 17.5916L94.3893 17.37C94.4573 17.7104 94.5587 18.0335 94.6266 18.3727C94.6773 18.645 94.728 18.9508 94.728 19.2231C94.7453 19.3766 94.7614 19.5289 94.7614 19.665C94.7614 19.9373 94.7107 20.1577 94.66 20.3793C94.6266 20.5327 94.5921 20.6677 94.5587 20.8039C94.4227 20.9573 94.3214 21.1096 94.2027 21.2285C94.1175 21.33 94.0161 21.4327 93.8802 21.5008C93.727 21.637 93.5749 21.7223 93.4044 21.7558C93.2351 21.8066 93.0485 21.8239 92.7939 21.8239C92.6925 21.8239 92.5727 21.8239 92.4713 21.8066C92.302 21.7893 92.1488 21.7385 91.9956 21.637C91.8262 21.5689 91.6557 21.4673 91.4864 21.3646C91.3677 21.2793 91.2491 21.195 91.1466 21.0923C91.0959 21.0416 91.0613 20.9908 91.0106 20.9389C90.892 21.1085 90.7561 21.2446 90.6374 21.3473C90.4162 21.5008 90.2135 21.6023 90.0096 21.7039C89.7216 21.7546 89.5177 21.8227 89.2113 21.8227C88.2609 21.6693 87.6331 21.3981 86.9707 20.7C86.9373 20.7508 86.8855 20.8016 86.8521 20.8362C86.3256 21.465 85.3752 21.7881 84.5769 21.7881V20.4958L85.0527 20.2581C85.5285 20.2581 85.8844 20.1727 86.1563 20.0712C86.2922 19.7827 86.4443 19.5785 86.5802 19.3743C86.7495 19.1019 86.9361 18.8135 87.1746 18.3877L87.4626 18.5412L88.125 18.847C87.9384 19.1527 87.7851 19.425 87.6331 19.68C87.8543 19.8335 88.0743 19.9685 88.2782 20.0712C88.618 20.1727 88.974 20.2408 89.3138 20.2408C89.5857 20.2408 89.8737 20.2235 90.1282 20.1393C90.2976 19.9016 90.4508 19.7308 90.536 19.5104C90.6374 19.1873 90.7226 18.8643 90.9265 18.2527L91.2825 18.3381L92.029 18.5758C91.8424 19.0177 91.7744 19.4089 91.6385 19.8173C91.6212 19.8508 91.605 19.9027 91.5705 19.9535C91.7237 20.0216 91.8585 20.0896 91.9944 20.1577C92.2663 20.2939 92.6902 20.3954 92.9448 20.4127C93.1487 20.3954 93.386 20.3273 93.5553 20.2766C93.5887 20.175 93.6567 19.9881 93.6912 19.8C93.6912 19.5785 93.5726 18.9843 93.5219 18.7627C93.4712 18.457 93.3353 17.9977 93.2846 17.6746L93.4712 17.5893L93.4724 17.5916ZM89.9577 15.3808C90.1444 15.3808 90.3655 15.4316 90.4842 15.585C90.6201 15.7385 90.7054 15.9081 90.7054 16.1285C90.7054 16.3154 90.6201 16.5023 90.4842 16.6558C90.3655 16.7746 90.1444 16.8935 89.9577 16.8935C89.5499 16.8935 89.2113 16.5196 89.2113 16.1285C89.2113 15.6866 89.5165 15.3808 89.9577 15.3808ZM90.9427 13.4943C91.1293 13.4943 91.3505 13.545 91.4691 13.6985C91.605 13.852 91.6903 14.0216 91.6903 14.2431C91.6903 14.43 91.605 14.617 91.4691 14.7704C91.3505 14.8893 91.1293 15.0081 90.9427 15.0081C90.5349 15.0081 90.1962 14.6343 90.1962 14.2431C90.1962 13.8012 90.5015 13.4954 90.9427 13.4954V13.4943ZM91.9103 15.3808C92.0969 15.3808 92.3181 15.4316 92.4368 15.585C92.5727 15.7385 92.6579 15.9081 92.6579 16.1285C92.6579 16.3154 92.5727 16.5023 92.4368 16.6558C92.3181 16.7746 92.0969 16.8935 91.9103 16.8935C91.5025 16.8935 91.1638 16.5196 91.1638 16.1285C91.1638 15.6866 91.4691 15.3808 91.9103 15.3808Z" fill="#F2F2F2"/>
</g>
<defs>
<clipPath id="clip0_1154_2127">
<rect width="188" height="45" fill="white"/>
</clipPath>
</defs>
</svg>
