<svg width="162" height="102" viewBox="0 0 162 102" fill="none" xmlns="http://www.w3.org/2000/svg">
<path d="M91.9727 28.3868C93.2459 29.771 93.8845 31.297 93.8845 32.9663C93.8845 34.3285 93.5491 35.8662 92.8796 37.5793C92.2088 39.2924 91.4464 40.9462 90.5898 42.5381C89.7333 44.1312 88.6342 45.9695 87.2952 48.0567H79.9809C78.7721 48.0567 77.7788 47.7213 76.9997 47.0518C76.2192 46.3823 75.5884 45.5309 75.1047 44.4976C74.6209 43.4656 74.2365 42.3613 73.9514 41.1862C73.6663 40.011 73.4354 38.8964 73.26 37.8425C73.0832 36.7885 72.9078 35.9204 72.7324 35.2393C72.8201 36.5564 72.7981 37.9521 72.6666 39.424C72.535 40.8959 72.2099 42.2852 71.6952 43.592C71.1779 44.8988 70.3652 45.9695 69.2571 46.8041C68.1477 47.64 66.6165 48.0567 64.6608 48.0567C63.4082 48.0567 62.2769 47.8916 61.2668 47.5626C60.2555 47.2337 59.3447 46.7719 58.532 46.1785L55.9288 55.4703C53.71 57.315 51.13 58.7985 48.1862 59.9183C45.2425 61.0393 41.9362 61.5991 38.2687 61.5991C35.0179 61.5991 32.1412 60.8032 29.636 59.21C27.1321 57.6169 25.2591 55.5361 24.0181 52.9664C22.7758 50.3968 22.3656 47.6065 22.7823 44.5969C23.2002 41.5873 24.6502 38.6229 27.1309 35.7011C29.6128 32.7805 33.3474 30.1773 38.3332 27.8927C35.1263 30.1115 32.9629 32.9121 31.8432 36.2945C30.7222 39.6769 30.69 42.8619 31.7439 45.8495C32.6005 48.0683 34.1162 49.8188 36.2899 51.105C38.4648 52.3898 40.9468 53.0542 43.737 53.098C47.1852 53.0542 50.08 52.3021 52.4187 50.8405C54.7588 49.379 56.6203 47.6942 58.0031 45.7824C55.9159 43.9377 54.4776 41.5874 53.6868 38.7313L55.9611 30.2302C55.9817 30.8894 56.2023 31.7072 56.6203 32.6851C57.0369 33.6629 57.6303 34.6459 58.3992 35.634C59.168 36.6221 60.1136 37.4581 61.2333 38.1379C62.3543 38.819 63.6391 39.1596 65.0878 39.1596C66.0979 39.1596 66.9661 39.0061 67.691 38.6978C68.416 38.3907 69.0197 37.9844 69.5035 37.4787C69.9872 36.9743 70.382 36.4196 70.6903 35.8146C70.9973 35.2109 71.2385 34.6072 71.4153 34.0021C71.5907 33.3984 71.7223 32.8437 71.8113 32.3381C71.8977 31.8324 71.97 31.4273 72.0254 31.119C72.0796 30.812 72.1454 30.652 72.2228 30.6417C72.3002 30.6314 72.415 30.812 72.5685 31.1848C72.744 31.6247 72.9968 32.2723 73.327 33.1288C73.656 33.9854 74.0791 34.8703 74.5951 35.7811C75.1111 36.6931 75.7368 37.4839 76.4734 38.1534C77.2087 38.8242 78.0601 39.1583 79.0263 39.1583H90.2944C88.273 37.6645 85.4298 35.3915 81.7611 32.3381L85.0557 18.5325C85.2092 20.0702 85.9729 21.6736 87.3455 23.3429C88.718 25.0121 90.2622 26.693 91.9753 28.3842L91.9727 28.3868Z" fill="#884B50"/>
<path d="M138.813 27.636C139.308 30.3837 139.865 36.755 137.066 37.8115C133.4 39.1944 129.465 39.8188 125.8 41.2945C122.712 42.5368 120.121 43.9571 118.024 45.5554C115.928 47.1537 113.851 49.1106 111.795 51.4236C110.493 52.8503 109.07 54.2448 107.528 55.6058C105.983 56.968 104.281 58.1871 102.419 59.2655C100.558 60.3427 98.5066 61.1567 96.2671 61.7049C93.1737 62.4621 90.3692 62.5563 87.855 61.9848C85.3408 61.4134 83.1233 60.3672 81.2012 58.8475C79.2804 57.3279 77.0977 55.3955 75.7884 53.2296C74.4777 51.0624 74.0391 48.8307 73.3425 46.3565C75.76 54.29 81.5302 56.9809 90.6517 54.4306C94.0935 53.3393 97.1198 51.7551 99.7321 49.6795C102.344 47.6039 104.737 45.3954 106.912 43.0528C109.086 40.7114 111.248 38.5933 113.396 36.6995C115.544 34.8058 117.882 33.481 120.411 32.7251C119.879 30.2766 119.946 27.9714 120.616 25.8055C121.284 23.6409 122.195 21.7265 123.348 20.065C124.501 18.4035 126.066 16.6181 128.041 14.7102C129.807 16.4711 131.395 17.9713 132.806 19.2084C134.111 20.3514 136.084 21.3524 137.168 22.6708C138.097 23.8008 138.48 25.9384 138.756 27.3393C138.774 27.4322 138.793 27.5315 138.811 27.636H138.813ZM127.276 30.9771L132.205 29.7697C131.164 29.0292 130.198 28.3171 129.307 27.6296C128.255 26.8465 127.036 26.2751 125.647 25.9139C124.258 25.5539 123.089 25.6017 122.138 26.0609C121.187 26.5202 120.817 27.5934 121.027 29.2846C121.11 29.8071 121.369 30.2637 121.804 30.6546C122.239 31.0455 122.891 31.2867 123.762 31.3796C124.633 31.4712 125.804 31.337 127.276 30.9771Z" fill="#884B50"/>
<path d="M135.84 41.7731L138.598 44.557C132.382 44.5957 125.573 47.8929 116.939 56.0225L115.571 53.7469C121.078 47.0944 128.001 43.4579 135.84 41.7719V41.7731Z" fill="#331D1F"/>
<path d="M98.424 0.755005C101.685 8.13896 103.464 15.1114 103.758 21.6736C104.052 28.2346 103.274 34.0241 101.423 39.0396C99.5708 44.0551 97.0773 47.9084 93.94 50.5993C95.9279 47.1911 98.9491 36.4183 98.7659 32.4258C98.5827 28.4332 97.8629 24.6239 96.609 21.0003C95.3551 17.3767 94.2909 13.2616 91.7302 8.5595L98.4227 0.755005H98.424Z" fill="#331D1F"/>
<path d="M49.1937 30.5127C50.1677 31.23 50.7985 32.3123 51.0862 33.7596C51.3725 35.207 51.2577 36.5757 50.7417 37.8657C49.9677 39.2421 48.8493 39.9013 47.3877 39.8433C45.9262 39.7865 44.9367 39.0267 44.4207 37.5639C44.0479 38.2811 43.4893 38.8964 42.7437 39.4124C41.9981 39.9284 40.9661 40.1864 39.6477 40.1864C38.3293 40.1864 37.5115 39.713 37.0239 38.7674C36.7659 38.2798 36.6227 37.7354 36.5943 37.133C36.5363 35.585 36.9233 34.1518 37.7553 32.8321C37.5257 33.9222 37.4973 34.7529 37.6689 35.327C37.8404 35.901 38.1126 36.2803 38.4854 36.4661C38.8582 36.6531 39.2169 36.746 39.5613 36.746C40.6501 36.746 41.5027 36.5731 42.1194 36.23C42.736 35.8856 43.1875 35.4418 43.4739 34.8974C43.7602 34.353 43.9473 33.779 44.0324 33.1766L45.2799 33.6926C45.2218 34.9258 45.0657 35.9436 44.8064 36.746H50.6979C49.4362 35.3979 48.145 34.3376 46.8266 33.5636L49.1924 30.5101L49.1937 30.5127Z" fill="#331D1F"/>
<path d="M5.08992 98.0958L8.00274 91.5464H9.30564V101.467H7.94856V94.0374L8.01693 94.4734L5.57496 100.089H4.60617L2.1642 94.6102L2.23257 94.0374V101.467H0.875488V91.5464H2.17839L5.09121 98.0958H5.08992Z" fill="#331D1F"/>
<path d="M14.525 101.568C13.5382 101.568 12.7745 101.294 12.2327 100.743C11.6909 100.192 11.4213 99.4103 11.4213 98.3964V97.5978C11.4213 96.5426 11.6818 95.726 12.203 95.1481C12.7242 94.5702 13.4569 94.2812 14.4037 94.2812C15.2951 94.2812 15.9853 94.6089 16.4742 95.2642C16.9631 95.9195 17.2082 96.838 17.2082 98.021V98.4854H12.4326V97.3669H15.8847C15.8434 96.7942 15.695 96.3452 15.4383 96.0227C15.1816 95.7002 14.8372 95.539 14.405 95.539C13.8813 95.539 13.4749 95.7119 13.1834 96.0576C12.8919 96.4033 12.7474 96.8922 12.7474 97.5243V98.4247C12.7474 99.0117 12.9035 99.4619 13.2144 99.7754C13.5253 100.089 13.9639 100.246 14.5276 100.246C14.8101 100.246 15.0887 100.189 15.3674 100.076C15.6447 99.9624 15.8924 99.8024 16.1104 99.5986L17.025 100.513C16.6741 100.85 16.282 101.111 15.8447 101.295C15.4074 101.479 14.9688 101.571 14.5276 101.571L14.525 101.568Z" fill="#331D1F"/>
<path d="M19.1161 101.467V94.3845H20.508V101.467H19.1161ZM23.0119 96.0627C22.8893 95.9131 22.7345 95.7996 22.5475 95.7222C22.3604 95.6448 22.145 95.6061 21.8999 95.6061C21.4587 95.6061 21.1169 95.7273 20.8731 95.9711C20.6293 96.215 20.508 96.5516 20.508 96.9838L20.3648 95.619C20.5789 95.201 20.8589 94.8734 21.2072 94.636C21.5555 94.3999 21.9386 94.2812 22.3566 94.2812C22.6791 94.2812 22.9719 94.3277 23.2338 94.4206C23.4956 94.5134 23.724 94.6515 23.92 94.8334L23.0132 96.0615L23.0119 96.0627Z" fill="#331D1F"/>
<path d="M27.3451 101.568C26.4756 101.568 25.8241 101.389 25.3907 101.029C24.956 100.669 24.7393 100.12 24.7393 99.378C24.7393 98.6363 24.9379 98.1461 25.3365 97.7991C25.7338 97.4508 26.3311 97.2766 27.127 97.2766H29.1394L29.2349 98.395H27.1335C26.7736 98.395 26.504 98.4763 26.3221 98.6376C26.1402 98.7988 26.0486 99.0465 26.0486 99.378C26.0486 99.7379 26.1686 100.004 26.4098 100.177C26.651 100.349 27.0122 100.436 27.4947 100.436C28.0223 100.436 28.4183 100.379 28.6815 100.266C28.9447 100.152 29.0775 99.974 29.0775 99.7341L29.2207 100.73C29.0982 100.921 28.9459 101.078 28.7641 101.201C28.5822 101.323 28.3745 101.416 28.1397 101.477C27.9049 101.539 27.6405 101.568 27.3451 101.568ZM29.0775 101.467V96.9773C29.0775 96.5129 28.9537 96.153 28.706 95.8963C28.4583 95.6396 28.1062 95.5106 27.6521 95.5106C27.3747 95.5106 27.1 95.5532 26.8304 95.637C26.5595 95.7209 26.3169 95.8434 26.1041 96.0021L25.0876 95.3068C25.3559 94.9843 25.7093 94.7327 26.1479 94.5534C26.5865 94.3741 27.0742 94.2838 27.6108 94.2838C28.4983 94.2838 29.1846 94.5134 29.6709 94.9727C30.1573 95.4319 30.4011 96.0808 30.4011 96.9167V101.468H29.0775V101.467Z" fill="#331D1F"/>
<path d="M35.0192 101.568C34.391 101.568 33.8221 101.477 33.31 101.292C32.7978 101.108 32.3399 100.832 31.9348 100.463L32.7604 99.4464C33.1474 99.738 33.528 99.956 33.9033 100.102C34.2787 100.247 34.6503 100.32 35.0192 100.32C35.57 100.32 35.9828 100.235 36.2576 100.064C36.5324 99.894 36.6704 99.6373 36.6704 99.2968C36.6704 99.0336 36.5788 98.8466 36.3943 98.7369C36.2099 98.6273 35.9686 98.5563 35.6706 98.5215C35.3727 98.4879 35.0527 98.4596 34.7122 98.4363C34.4258 98.4131 34.142 98.3783 33.8595 98.3306C33.577 98.2828 33.3203 98.1964 33.0881 98.0713C32.8559 97.9461 32.6701 97.7604 32.5321 97.5153C32.3928 97.2702 32.3244 96.9399 32.3244 96.5259C32.3244 95.7751 32.554 95.2139 33.0133 94.8411C33.4725 94.4683 34.1575 94.2812 35.0669 94.2812C35.6216 94.2812 36.1376 94.3561 36.6149 94.507C37.0922 94.6566 37.5399 94.8863 37.9591 95.1959L37.1206 96.2124C36.7659 95.9853 36.4163 95.8151 36.0731 95.7003C35.73 95.5867 35.3946 95.53 35.0669 95.53C34.5935 95.53 34.2388 95.6112 34.0027 95.7725C33.7666 95.9337 33.6479 96.1763 33.6479 96.4988C33.6479 96.7129 33.7292 96.8664 33.893 96.9593C34.0569 97.0522 34.2723 97.1128 34.5406 97.1399C34.8089 97.167 35.0979 97.1928 35.4075 97.2147C35.7029 97.2328 36.0022 97.2663 36.3053 97.314C36.6072 97.3618 36.8858 97.4534 37.1413 97.5901C37.3967 97.7268 37.6005 97.9294 37.7553 98.1977C37.9101 98.466 37.9875 98.8324 37.9875 99.2955C37.9875 100.055 37.7411 100.624 37.247 101.001C36.753 101.379 36.0112 101.567 35.0192 101.567V101.568Z" fill="#331D1F"/>
<path d="M43.6506 101.467V91.5465H45.0361V101.467H43.6506ZM44.4685 101.467V100.177H47.1569C47.8935 100.177 48.4159 100.036 48.7229 99.7534C49.0299 99.4709 49.1834 99.1007 49.1834 98.6415V98.6208C49.1834 98.1293 49.0532 97.7372 48.7913 97.4443C48.5294 97.1515 48.0986 97.0044 47.4987 97.0044H44.4698V95.7493H47.4987C48.0121 95.7493 48.4004 95.628 48.6623 95.3842C48.9242 95.1404 49.0544 94.7844 49.0544 94.3161C49.0544 93.8207 48.9087 93.4492 48.6184 93.2041C48.3269 92.959 47.8909 92.8352 47.3091 92.8352H44.4711V91.5452H47.5619C48.5397 91.5452 49.2673 91.789 49.7446 92.2753C50.2219 92.7616 50.4606 93.4144 50.4606 94.2335C50.4606 94.7289 50.3148 95.183 50.0245 95.5945C49.733 96.006 49.2763 96.2691 48.6533 96.3827C49.2673 96.4743 49.7433 96.7439 50.0826 97.1941C50.4219 97.6443 50.5908 98.1603 50.5908 98.7434V98.764C50.5908 99.5741 50.329 100.227 49.8065 100.722C49.2841 101.218 48.5746 101.465 47.678 101.465H44.4711L44.4685 101.467Z" fill="#331D1F"/>
<path d="M53.9241 94.3845V98.6892C53.9241 99.1845 54.0506 99.5677 54.3034 99.8386C54.5562 100.109 54.911 100.245 55.3715 100.245C55.832 100.245 56.1842 100.124 56.4319 99.8799C56.6796 99.636 56.8034 99.2942 56.8034 98.853L56.8989 100.334C56.7712 100.653 56.5493 100.938 56.2307 101.19C55.912 101.443 55.4966 101.568 54.9819 101.568C54.2002 101.568 53.5952 101.317 53.1708 100.815C52.7451 100.312 52.5322 99.6038 52.5322 98.6905V94.3857H53.9241V94.3845ZM56.8034 101.467V94.3845H58.1889V101.467H56.8034Z" fill="#331D1F"/>
<path d="M62.807 101.568C62.1788 101.568 61.6099 101.477 61.0978 101.292C60.5857 101.108 60.1277 100.832 59.7227 100.463L60.5483 99.4464C60.9353 99.738 61.3158 99.956 61.6912 100.102C62.0666 100.247 62.4381 100.32 62.807 100.32C63.3579 100.32 63.7707 100.235 64.0454 100.064C64.3202 99.894 64.4582 99.6373 64.4582 99.2968C64.4582 99.0336 64.3667 98.8466 64.1822 98.7369C63.9977 98.6273 63.7565 98.5563 63.4585 98.5215C63.1605 98.4879 62.8406 98.4596 62.5 98.4363C62.2136 98.4131 61.9298 98.3783 61.6473 98.3306C61.3648 98.2828 61.1081 98.1964 60.8759 98.0713C60.6437 97.9461 60.458 97.7604 60.3199 97.5153C60.1806 97.2702 60.1122 96.9399 60.1122 96.5259C60.1122 95.7751 60.3419 95.2139 60.8011 94.8411C61.2603 94.4683 61.9453 94.2812 62.8548 94.2812C63.4095 94.2812 63.9255 94.3561 64.4028 94.507C64.8801 94.6566 65.3277 94.8863 65.747 95.1959L64.9085 96.2124C64.5537 95.9853 64.2041 95.8151 63.861 95.7003C63.5178 95.5867 63.1824 95.53 62.8548 95.53C62.3813 95.53 62.0266 95.6112 61.7905 95.7725C61.5545 95.9337 61.4358 96.1763 61.4358 96.4988C61.4358 96.7129 61.517 96.8664 61.6809 96.9593C61.8447 97.0522 62.0601 97.1128 62.3285 97.1399C62.5968 97.167 62.8857 97.1928 63.1953 97.2147C63.4907 97.2328 63.79 97.2663 64.0932 97.314C64.395 97.3618 64.6737 97.4534 64.9291 97.5901C65.1845 97.7268 65.3883 97.9294 65.5431 98.1977C65.6979 98.466 65.7753 98.8324 65.7753 99.2955C65.7753 100.055 65.5289 100.624 65.0349 101.001C64.5408 101.379 63.7991 101.567 62.807 101.567V101.568Z" fill="#331D1F"/>
<path d="M67.5491 92.9383V91.5464H68.941V92.9383H67.5491ZM67.5491 101.467V94.3844H68.941V101.467H67.5491Z" fill="#331D1F"/>
<path d="M71.0553 101.467V94.3845H72.4472V101.467H71.0553ZM75.3536 101.467V97.1747C75.3536 96.6742 75.2246 96.2872 74.9679 96.015C74.7112 95.7415 74.3461 95.6061 73.8727 95.6061C73.3992 95.6061 73.0664 95.726 72.8187 95.9673C72.5711 96.2085 72.4472 96.5478 72.4472 96.9838L72.304 95.619C72.522 95.192 72.8071 94.8617 73.1606 94.6295C73.5127 94.3973 73.9036 94.2812 74.3306 94.2812C75.0995 94.2812 75.6941 94.5328 76.1147 95.0346C76.5352 95.5377 76.7455 96.2485 76.7455 97.167V101.465H75.3536V101.467Z" fill="#331D1F"/>
<path d="M81.7597 101.568C80.7729 101.568 80.0092 101.294 79.4674 100.743C78.9256 100.192 78.656 99.4103 78.656 98.3964V97.5978C78.656 96.5426 78.9166 95.726 79.4377 95.1481C79.9589 94.5702 80.6916 94.2812 81.6385 94.2812C82.5299 94.2812 83.22 94.6089 83.7089 95.2642C84.1978 95.9195 84.4429 96.838 84.4429 98.021V98.4854H79.6674V97.3669H83.1194C83.0781 96.7942 82.9298 96.3452 82.6731 96.0227C82.4163 95.7002 82.0719 95.539 81.6398 95.539C81.116 95.539 80.7097 95.7119 80.4181 96.0576C80.1266 96.4033 79.9821 96.8922 79.9821 97.5243V98.4247C79.9821 99.0117 80.1382 99.4619 80.4491 99.7754C80.76 100.089 81.1986 100.246 81.7623 100.246C82.0448 100.246 82.3235 100.189 82.6021 100.076C82.8795 99.9624 83.1271 99.8024 83.3452 99.5986L84.2598 100.513C83.9089 100.85 83.5167 101.111 83.0794 101.295C82.6421 101.479 82.2035 101.571 81.7623 101.571L81.7597 101.568Z" fill="#331D1F"/>
<path d="M88.8561 101.568C88.2279 101.568 87.659 101.477 87.1469 101.292C86.6347 101.108 86.1768 100.832 85.7717 100.463L86.5973 99.4464C86.9843 99.738 87.3649 99.956 87.7403 100.102C88.1157 100.247 88.4872 100.32 88.8561 100.32C89.407 100.32 89.8197 100.235 90.0945 100.064C90.3693 99.894 90.5073 99.6373 90.5073 99.2968C90.5073 99.0336 90.4157 98.8466 90.2313 98.7369C90.0468 98.6273 89.8056 98.5563 89.5076 98.5215C89.2096 98.4879 88.8897 98.4596 88.5491 98.4363C88.2627 98.4131 87.9789 98.3783 87.6964 98.3306C87.4139 98.2828 87.1572 98.1964 86.925 98.0713C86.6928 97.9461 86.507 97.7604 86.369 97.5153C86.2297 97.2702 86.1613 96.9399 86.1613 96.5259C86.1613 95.7751 86.3909 95.2139 86.8502 94.8411C87.3094 94.4683 87.9944 94.2812 88.9039 94.2812C89.4586 94.2812 89.9746 94.3561 90.4519 94.507C90.9292 94.6566 91.3768 94.8863 91.796 95.1959L90.9575 96.2124C90.6028 95.9853 90.2532 95.8151 89.91 95.7003C89.5669 95.5867 89.2315 95.53 88.9039 95.53C88.4304 95.53 88.0757 95.6112 87.8396 95.7725C87.6035 95.9337 87.4849 96.1763 87.4849 96.4988C87.4849 96.7129 87.5661 96.8664 87.73 96.9593C87.8938 97.0522 88.1092 97.1128 88.3775 97.1399C88.6458 97.167 88.9348 97.1928 89.2444 97.2147C89.5398 97.2328 89.8391 97.2663 90.1422 97.314C90.4441 97.3618 90.7227 97.4534 90.9782 97.5901C91.2336 97.7268 91.4374 97.9294 91.5922 98.1977C91.747 98.466 91.8244 98.8324 91.8244 99.2955C91.8244 100.055 91.578 100.624 91.084 101.001C90.5899 101.379 89.8481 101.567 88.8561 101.567V101.568Z" fill="#331D1F"/>
<path d="M96.1008 101.568C95.4725 101.568 94.9036 101.477 94.3915 101.292C93.8794 101.108 93.4214 100.832 93.0164 100.463L93.842 99.4464C94.229 99.738 94.6095 99.956 94.9849 100.102C95.3603 100.247 95.7318 100.32 96.1008 100.32C96.6516 100.32 97.0644 100.235 97.3391 100.064C97.6139 99.894 97.7519 99.6373 97.7519 99.2968C97.7519 99.0336 97.6604 98.8466 97.4759 98.7369C97.2914 98.6273 97.0502 98.5563 96.7522 98.5215C96.4542 98.4879 96.1343 98.4596 95.7937 98.4363C95.5074 98.4131 95.2235 98.3783 94.941 98.3306C94.6585 98.2828 94.4018 98.1964 94.1696 98.0713C93.9374 97.9461 93.7517 97.7604 93.6136 97.5153C93.4743 97.2702 93.4059 96.9399 93.4059 96.5259C93.4059 95.7751 93.6356 95.2139 94.0948 94.8411C94.554 94.4683 95.239 94.2812 96.1485 94.2812C96.7032 94.2812 97.2192 94.3561 97.6965 94.507C98.1738 94.6566 98.6214 94.8863 99.0407 95.1959L98.2022 96.2124C97.8474 95.9853 97.4978 95.8151 97.1547 95.7003C96.8115 95.5867 96.4761 95.53 96.1485 95.53C95.6751 95.53 95.3203 95.6112 95.0842 95.7725C94.8482 95.9337 94.7295 96.1763 94.7295 96.4988C94.7295 96.7129 94.8107 96.8664 94.9746 96.9593C95.1384 97.0522 95.3538 97.1128 95.6222 97.1399C95.8905 97.167 96.1794 97.1928 96.489 97.2147C96.7844 97.2328 97.0837 97.2663 97.3869 97.314C97.6887 97.3618 97.9674 97.4534 98.2228 97.5901C98.4782 97.7268 98.682 97.9294 98.8368 98.1977C98.9916 98.466 99.069 98.8324 99.069 99.2955C99.069 100.055 98.8226 100.624 98.3286 101.001C97.8345 101.379 97.0928 101.567 96.1008 101.567V101.568Z" fill="#331D1F"/>
<path d="M107.713 101.568C107.231 101.568 106.778 101.523 106.352 101.432C105.927 101.34 105.529 101.205 105.159 101.023C104.789 100.841 104.442 100.614 104.118 100.34L104.985 99.2761C105.363 99.6038 105.778 99.8489 106.234 100.013C106.688 100.177 107.182 100.258 107.715 100.258C108.433 100.258 108.99 100.124 109.386 99.8553C109.782 99.587 109.98 99.2116 109.98 98.7292V98.7227C109.98 98.3447 109.879 98.0558 109.679 97.8558C109.479 97.6559 109.216 97.5062 108.891 97.4095C108.566 97.3115 108.21 97.2315 107.823 97.167C107.45 97.1038 107.073 97.0289 106.694 96.9412C106.315 96.8548 105.965 96.7193 105.647 96.5349C105.328 96.3504 105.073 96.0859 104.879 95.7402C104.686 95.3945 104.589 94.9327 104.589 94.3548V94.3483C104.589 93.4247 104.896 92.71 105.51 92.2031C106.124 91.6961 106.991 91.442 108.109 91.442C108.641 91.442 109.162 91.5271 109.671 91.6974C110.181 91.8677 110.676 92.1282 111.159 92.4791L110.368 93.5846C109.99 93.3021 109.615 93.0932 109.239 92.9564C108.864 92.8197 108.487 92.7513 108.111 92.7513C107.433 92.7513 106.907 92.8868 106.532 93.1577C106.156 93.4286 105.969 93.8117 105.969 94.307V94.3135C105.969 94.6863 106.079 94.9714 106.297 95.1662C106.515 95.361 106.8 95.5067 107.153 95.5996C107.506 95.6925 107.885 95.7802 108.29 95.8628C108.654 95.935 109.017 96.0228 109.381 96.126C109.745 96.2279 110.075 96.3762 110.373 96.5697C110.671 96.7632 110.91 97.0277 111.089 97.3644C111.269 97.701 111.359 98.1396 111.359 98.6814V98.6956C111.359 99.6102 111.04 100.317 110.404 100.818C109.767 101.318 108.872 101.568 107.716 101.568H107.713Z" fill="#331D1F"/>
<path d="M115.914 101.568C114.986 101.568 114.268 101.299 113.758 100.76C113.249 100.22 112.995 99.4619 112.995 98.4841V97.3308C112.995 96.362 113.249 95.6112 113.758 95.0798C114.268 94.547 114.986 94.2812 115.914 94.2812C116.841 94.2812 117.56 94.547 118.069 95.0798C118.579 95.6112 118.833 96.362 118.833 97.3308V98.5047C118.833 99.4787 118.579 100.232 118.069 100.766C117.56 101.3 116.841 101.567 115.914 101.567V101.568ZM115.914 100.245C116.4 100.245 116.777 100.093 117.043 99.7883C117.308 99.4838 117.441 99.0555 117.441 98.506V97.3321C117.441 96.7813 117.308 96.3569 117.043 96.0563C116.777 95.7557 116.4 95.6061 115.914 95.6061C115.427 95.6061 115.056 95.7557 114.788 96.0563C114.519 96.3569 114.385 96.7813 114.385 97.3321V98.506C114.385 99.0568 114.519 99.4838 114.788 99.7883C115.056 100.093 115.431 100.245 115.914 100.245Z" fill="#331D1F"/>
<path d="M122.204 91.5465V99.6373C122.204 99.805 122.241 99.9379 122.316 100.033C122.391 100.129 122.497 100.177 122.633 100.177H123.289V101.5H122.47C121.947 101.5 121.54 101.336 121.248 101.009C120.956 100.681 120.812 100.219 120.812 99.6231V91.5452H122.204V91.5465Z" fill="#331D1F"/>
<path d="M126.181 94.3845V98.6892C126.181 99.1845 126.307 99.5677 126.56 99.8386C126.813 100.109 127.168 100.245 127.628 100.245C128.089 100.245 128.441 100.124 128.689 99.8799C128.936 99.636 129.06 99.2942 129.06 98.853L129.156 100.334C129.028 100.653 128.806 100.938 128.487 101.19C128.169 101.443 127.753 101.568 127.239 101.568C126.457 101.568 125.852 101.317 125.428 100.815C125.002 100.312 124.789 99.6038 124.789 98.6905V94.3857H126.181V94.3845ZM129.06 101.467V94.3845H130.446V101.467H129.06Z" fill="#331D1F"/>
<path d="M132.014 95.6397V94.3845H135.207V95.6397H132.014ZM134.402 101.5C133.82 101.5 133.398 101.339 133.137 101.016C132.875 100.694 132.744 100.229 132.744 99.6245V92.3243H134.136V99.6387C134.136 99.8064 134.17 99.9392 134.238 100.035C134.307 100.13 134.406 100.178 134.539 100.178H135.207V101.501H134.402V101.5Z" fill="#331D1F"/>
<path d="M137.118 92.9383V91.5464H138.509V92.9383H137.118ZM137.118 101.467V94.3844H138.509V101.467H137.118Z" fill="#331D1F"/>
<path d="M143.339 101.568C142.412 101.568 141.693 101.299 141.184 100.76C140.674 100.22 140.42 99.4619 140.42 98.4841V97.3308C140.42 96.362 140.674 95.6112 141.184 95.0798C141.693 94.547 142.412 94.2812 143.339 94.2812C144.267 94.2812 144.985 94.547 145.495 95.0798C146.004 95.6112 146.258 96.362 146.258 97.3308V98.5047C146.258 99.4787 146.004 100.232 145.495 100.766C144.985 101.3 144.267 101.567 143.339 101.567V101.568ZM143.339 100.245C143.826 100.245 144.202 100.093 144.468 99.7883C144.734 99.4838 144.867 99.0555 144.867 98.506V97.3321C144.867 96.7813 144.734 96.3569 144.468 96.0563C144.202 95.7557 143.826 95.6061 143.339 95.6061C142.853 95.6061 142.481 95.7557 142.213 96.0563C141.945 96.3569 141.811 96.7813 141.811 97.3321V98.506C141.811 99.0568 141.945 99.4838 142.213 99.7883C142.481 100.093 142.857 100.245 143.339 100.245Z" fill="#331D1F"/>
<path d="M148.239 101.467V94.3845H149.631V101.467H148.239ZM152.536 101.467V97.1747C152.536 96.6742 152.407 96.2872 152.15 96.015C151.893 95.7415 151.528 95.6061 151.055 95.6061C150.581 95.6061 150.248 95.726 150.001 95.9673C149.753 96.2085 149.629 96.5478 149.629 96.9838L149.486 95.619C149.704 95.192 149.989 94.8617 150.343 94.6295C150.695 94.3973 151.086 94.2812 151.513 94.2812C152.282 94.2812 152.876 94.5328 153.297 95.0346C153.717 95.5377 153.928 96.2485 153.928 97.167V101.465H152.536V101.467Z" fill="#331D1F"/>
<path d="M158.547 101.568C157.919 101.568 157.35 101.477 156.838 101.292C156.326 101.108 155.868 100.832 155.463 100.463L156.288 99.4464C156.675 99.738 157.056 99.956 157.431 100.102C157.807 100.247 158.178 100.32 158.547 100.32C159.098 100.32 159.511 100.235 159.785 100.064C160.06 99.894 160.198 99.6373 160.198 99.2968C160.198 99.0336 160.107 98.8466 159.922 98.7369C159.738 98.6273 159.496 98.5563 159.198 98.5215C158.9 98.4879 158.581 98.4596 158.24 98.4363C157.954 98.4131 157.67 98.3783 157.387 98.3306C157.105 98.2828 156.848 98.1964 156.616 98.0713C156.384 97.9461 156.198 97.7604 156.06 97.5153C155.921 97.2702 155.852 96.9399 155.852 96.5259C155.852 95.7751 156.082 95.2139 156.541 94.8411C157 94.4683 157.685 94.2812 158.595 94.2812C159.149 94.2812 159.665 94.3561 160.143 94.507C160.62 94.6566 161.068 94.8863 161.487 95.1959L160.648 96.2124C160.294 95.9853 159.944 95.8151 159.601 95.7003C159.258 95.5867 158.922 95.53 158.595 95.53C158.121 95.53 157.767 95.6112 157.531 95.7725C157.294 95.9337 157.176 96.1763 157.176 96.4988C157.176 96.7129 157.257 96.8664 157.421 96.9593C157.585 97.0522 157.8 97.1128 158.068 97.1399C158.337 97.167 158.626 97.1928 158.935 97.2147C159.231 97.2328 159.53 97.2663 159.833 97.314C160.135 97.3618 160.414 97.4534 160.669 97.5901C160.925 97.7268 161.128 97.9294 161.283 98.1977C161.438 98.466 161.515 98.8324 161.515 99.2955C161.515 100.055 161.269 100.624 160.775 101.001C160.281 101.379 159.539 101.567 158.547 101.567V101.568Z" fill="#331D1F"/>
<path d="M8.66715 70.9877L10.1223 70.9413L10.2164 72.3977L10.1455 73.689L10.1919 75.1209V76.4599L10.1687 77.915L10.1919 79.1599V80.6395L10.1455 82.025C10.1455 82.5887 10.099 82.9873 10.0281 83.4801C9.55854 84.7482 9.1122 85.9221 7.77447 86.5322C7.37586 86.7438 6.99918 86.8134 6.52962 87.0018C6.1065 87.1424 5.73111 87.1656 5.14416 87.2133C4.25148 87.1669 3.26592 86.9786 2.53836 86.4626C2.18619 86.2278 1.99785 85.9466 1.71663 85.7118C1.4109 85.2887 1.20063 84.9365 1.08324 84.5147C0.965847 84.1393 1.0368 83.6465 1.01229 83.0828C0.989068 82.4494 1.03551 81.9553 1.17612 81.4161C1.31673 80.9001 1.48185 80.3828 1.69212 79.9597C1.80951 79.6539 1.97334 79.2553 2.04429 78.9496L3.07758 79.2553L2.63124 80.664L2.30229 82.0727C2.34873 83.2234 2.65446 83.9045 3.57036 84.5843C4.08636 84.8901 4.65009 84.9597 5.28477 84.9597C6.50511 84.9133 7.58613 84.8191 8.64264 84.138L8.54847 81.438L8.57169 80.1699L8.54847 78.8077V74.9803L8.61942 73.5948L8.54847 72.3745L8.59491 70.989H8.66586L8.66715 70.9877Z" fill="#331D1F"/>
<path d="M14.1367 79.4643C14.1367 80.1222 14.2077 80.8498 14.5121 81.0614C14.9107 81.3426 15.5686 81.3426 16.0382 81.3194V83.057L15.3803 83.4324C15.0049 83.4324 14.6992 83.4324 14.4412 83.3859C13.5962 83.2918 12.9615 82.4236 12.7745 81.6483C12.6339 81.1323 12.6106 80.5454 12.5861 80.1455V79.8642L12.6326 78.7845L12.5616 77.5164V77.2352L12.6081 76.1323L12.5371 74.8642L12.5836 72.2584L12.5371 71.0135L14.1806 71.0368L14.0864 72.3745L14.1806 73.8064V76.7644L14.2038 78.244C14.2038 78.4323 14.1328 78.9251 14.1328 79.4643H14.1367Z" fill="#331D1F"/>
<path d="M19.3018 81.3193V82.7757C19.3018 83.1743 18.9961 83.4336 18.6439 83.4336H15.3802V81.9785C15.3802 81.5554 15.7092 81.3206 16.0381 81.3206H19.3018V81.3193Z" fill="#331D1F"/>
<path d="M22.5656 81.3193V82.7757C22.5656 83.1743 22.2599 83.4336 21.9077 83.4336H18.644V81.9785C18.644 81.5554 18.973 81.3206 19.3019 81.3206H22.5656V81.3193Z" fill="#331D1F"/>
<path d="M25.8293 81.3193V82.7757C25.8293 83.1743 25.5236 83.4336 25.1714 83.4336H21.9077V81.9785C21.9077 81.5554 22.2367 81.3206 22.5656 81.3206H25.8293V81.3193Z" fill="#331D1F"/>
<path d="M27.3076 81.1787C27.2844 81.1078 27.2844 81.0382 27.2844 80.9672C27.2612 80.4976 27.3076 80.0049 27.3786 79.7223C27.496 79.276 27.6598 78.8774 27.8946 78.4543C28.1061 78.1021 28.4583 77.8905 28.7395 77.6325C29.0453 77.421 29.3729 77.0456 29.7728 76.9282C30.2656 76.7644 30.641 76.8573 31.1106 76.7876L32.1903 76.8108C32.4018 77.8441 32.7308 78.8774 33.0584 79.8862C33.2223 80.2151 33.599 80.6615 33.8337 80.8485C34.1859 81.2239 34.6323 81.3413 35.0786 81.3181V82.9151L34.4207 83.4311C34.0453 83.4311 33.5757 83.3601 33.3642 83.1499C33.2468 83.0789 33.1526 83.0093 33.0352 82.9151L32.5192 84.1354L30.8293 83.6891C30.5004 83.5717 29.4671 83.2195 29.28 83.1486C28.5293 82.8674 28.0352 82.6326 27.7308 82.3036C27.6843 82.2327 27.6366 82.163 27.5901 82.1153C27.496 82.421 27.2844 82.7255 26.9555 83.008C26.2976 83.3601 25.7106 83.4311 25.1714 83.4311V81.9282L25.8293 81.3181C26.5104 81.3181 26.9567 81.2716 27.3089 81.1775L27.3076 81.1787ZM29.0453 78.8297C28.764 79.3224 28.5293 80.0036 28.4119 80.3325C28.4119 80.6615 28.6699 80.7556 29.0453 80.9195L30.3598 81.4832L31.8394 81.9295L32.4031 82.1411C32.309 81.9528 32.2148 81.7425 32.0974 81.5077C31.8394 81.0846 31.6511 80.5918 31.4872 80.2164C31.2757 79.7004 31.0641 79.1367 30.8293 78.6194C30.3598 78.6426 29.5845 78.7368 29.0453 78.831V78.8297Z" fill="#331D1F"/>
<path d="M38.3436 81.3193V82.7757C38.3436 83.1743 38.0379 83.4336 37.6857 83.4336H34.422V81.9785C34.422 81.5554 34.751 81.3206 35.0799 81.3206H38.3436V81.3193Z" fill="#331D1F"/>
<path d="M43.3913 77.8918C42.8753 77.6803 42.429 77.657 41.9117 77.5861C41.606 77.5861 40.9958 77.657 40.7146 77.7977C40.3624 78.1266 40.0567 78.5484 40.0567 78.9006C40.0567 79.6514 40.3856 79.8165 40.9249 80.2628C41.1829 80.4512 41.535 80.7556 41.9581 80.9904C43.2262 80.9904 44.6349 80.8021 45.8798 80.6382L45.9971 81.0614L46.0913 82.2585C45.5753 82.3527 45.1986 82.5165 44.6826 82.6339C44.3305 82.728 43.9551 82.7977 43.5797 82.8454C43.2507 82.8919 42.9218 82.986 42.5941 83.057L41.8188 83.1976C41.4202 83.1976 40.9739 83.315 40.574 83.3614C40.1509 83.3614 39.729 83.3846 39.3059 83.4324H37.6857V81.6251L38.3436 81.3194C38.9537 81.2961 39.2827 81.3426 39.7058 81.2961C39.3769 80.8266 39.0247 79.841 39.0479 79.3715C39.0479 78.831 39.5407 77.3991 39.8929 77.0004C40.6436 76.1078 41.4422 75.7801 42.5928 75.7801C43.0624 75.7801 43.461 75.8743 43.8377 76.1323C44.1898 76.2961 44.542 76.5786 44.8232 76.954C45.0348 77.1655 45.1754 77.4468 45.316 77.7048L44.4479 78.6903C44.0015 78.3149 43.6726 78.1266 43.3913 77.8918Z" fill="#331D1F"/>
<path d="M54.261 80.3325C54.1436 80.9427 54.1436 81.2007 53.932 81.647C53.8378 81.8109 53.7682 81.976 53.674 82.1166C53.5334 82.3514 53.3683 82.5397 53.1335 82.6803L52.8523 82.8209C52.5001 83.0093 52.1479 83.1963 51.7248 83.2673C51.4191 83.3382 51.0669 83.3847 50.6915 83.4079C50.5032 83.4311 50.2929 83.4311 50.0581 83.4079C49.8943 83.3847 49.4712 83.4079 49.0726 83.4079H48.674C48.1812 83.3847 47.5465 83.2196 47.3827 83.1499L47.5942 81.3181C48.0406 81.3413 48.5101 81.3645 48.9565 81.3645C49.3796 81.3645 49.8014 81.2936 50.2013 81.2936H50.3897C51.4926 81.3168 52.0796 81.3168 52.5259 81.153C52.9245 80.9891 53.1361 80.8472 53.3476 80.637C53.2535 80.2139 52.949 79.3457 52.6897 78.9935C52.6665 78.9471 52.6433 78.8993 52.5956 78.8761C52.455 78.7355 52.3376 78.5239 52.197 78.3601L52.0563 78.2195C51.0231 77.3036 49.9433 76.5296 48.7462 75.824C47.9709 75.3544 47.1969 74.7907 46.4694 74.2515L47.1027 72.4674C47.5491 72.7254 47.9709 73.0543 48.4173 73.4065C48.7926 73.6645 49.168 73.9225 49.5679 74.1573C50.0143 74.4153 50.3187 74.721 50.7651 75.0255C51.094 75.237 51.3288 75.4486 51.61 75.6589C51.7042 75.753 51.8216 75.8227 51.9157 75.8936C52.0796 76.0342 52.2911 76.1994 52.4795 76.3864C52.5969 76.527 52.7375 76.6676 52.8316 76.785C53.3244 77.372 53.7243 77.9125 54.0055 78.6168C54.052 78.7342 54.0997 78.8516 54.1462 78.9922C54.2635 79.3444 54.3809 79.7675 54.2868 80.2126C54.2868 80.259 54.2635 80.2835 54.2635 80.33L54.261 80.3325Z" fill="#331D1F"/>
<path d="M52.1711 72.7486L52.1246 71.011L53.6042 71.0574L53.581 72.7009L53.4868 74.4617C53.4636 74.9777 53.4868 75.4009 53.4159 75.7298C53.3927 75.8704 53.3927 76.011 53.3927 76.1284C53.3695 76.4342 53.3927 76.6444 53.3462 76.9037C53.2521 77.2791 53.065 77.6545 52.9708 78.0067C52.8535 78.4298 52.7361 78.5936 52.4303 79.0399C52.3839 79.0864 52.2665 79.2515 52.2188 79.3212C52.0782 79.5327 51.9131 79.6733 51.6551 79.9081C51.5841 79.9791 51.4667 80.0719 51.3493 80.1893C51.1378 80.3777 50.8798 80.5647 50.6914 80.7053C50.316 81.0807 49.6814 81.4561 49.2118 81.6909C49.0944 81.7373 48.8132 81.8547 48.3668 82.0663C48.2495 82.1127 47.9437 82.2546 47.6393 82.4185V81.5967C48.0624 81.4329 48.4842 81.2213 48.8132 81.0098C49.0015 80.9156 49.1421 80.8214 49.2827 80.7286C49.4711 80.6344 49.6814 80.4938 49.8233 80.3996C50.1045 80.1881 50.316 79.9765 50.4334 79.8591C50.5972 79.7185 50.7392 79.5534 50.832 79.4605C51.1842 79.0619 51.6305 78.2866 51.7944 77.7938C51.8408 77.6055 51.9118 77.2533 51.9582 76.8779C52.0756 76.3142 52.0756 76.291 52.0756 75.6808C52.0988 75.3054 52.1698 72.9808 52.1698 72.746L52.1711 72.7486Z" fill="#331D1F"/>
<path d="M58.0651 83.4788L56.3507 83.4324L56.2798 80.9439L56.303 79.7236L56.374 78.4323L56.303 77.2816C56.303 76.4135 56.3262 75.615 56.4204 74.7455L56.3972 73.5252V72.2803L56.3262 70.9413L57.9232 70.9877L58.0406 72.3022C58.0174 72.6776 57.9942 73.0775 57.9942 73.4761C57.9942 73.8747 58.0406 74.2747 58.0651 74.6733L58.0419 75.9646V77.1384L58.0651 78.4065L57.9478 79.6746V80.9427L58.0419 82.163L57.9955 83.4311L58.0664 83.4775L58.0651 83.4788Z" fill="#331D1F"/>
<path d="M71.1651 70.9877L72.6202 70.9413L72.7144 72.3977L72.6434 73.689L72.6899 75.1209V76.4599L72.6666 77.915L72.6899 79.1599V80.6395L72.6434 82.025C72.6434 82.5887 72.597 82.9873 72.526 83.4801C72.0565 84.7482 71.6101 85.9221 70.2724 86.5322C69.8738 86.7438 69.4971 86.8134 69.0275 87.0018C68.6044 87.1424 68.229 87.1656 67.6421 87.2133C66.7494 87.1669 65.7638 86.9786 65.0363 86.4626C64.6841 86.2278 64.4958 85.9466 64.2146 85.7118C63.9088 85.2887 63.6986 84.9365 63.5812 84.5147C63.4638 84.1393 63.5347 83.6465 63.5102 83.0828C63.487 82.4494 63.5334 81.9553 63.674 81.4161C63.8147 80.9001 63.9798 80.3828 64.19 79.9597C64.3074 79.6539 64.4713 79.2553 64.5422 78.9496L65.5755 79.2553L65.1292 80.664L64.8002 82.0727C64.8467 83.2234 65.1524 83.9045 66.0683 84.5843C66.5843 84.8901 67.148 84.9597 67.7827 84.9597C69.003 84.9133 70.0841 84.8191 71.1406 84.138L71.0464 81.438L71.0696 80.1699L71.0464 78.8077V74.9803L71.1173 73.5948L71.0464 72.3745L71.0928 70.989H71.1638L71.1651 70.9877Z" fill="#331D1F"/>
<path d="M77.1055 83.4324C76.6824 83.4324 76.3302 83.4092 76.0722 83.2208C75.6968 83.0325 75.462 82.8222 75.2505 82.3759C75.0866 82.0237 74.8274 81.6006 74.8519 80.944C74.8751 80.5454 74.8519 80.1455 74.9693 79.5817C75.0402 79.2063 75.275 78.7368 75.4853 78.3614C76.0013 77.4455 76.5185 76.7411 77.6924 76.7411C78.4432 76.7411 79.4301 77.3513 79.7822 78.0092C79.9938 78.3846 80.1576 78.8774 80.346 79.3715C80.5098 79.841 80.5098 80.2164 80.5808 80.6627C80.6272 80.8975 80.6517 81.1091 80.6749 81.3207H81.9198V82.9873L81.2619 83.4337H80.6517C80.6517 83.5046 80.6285 83.5511 80.6285 83.622C80.5575 84.1148 80.5111 84.467 80.2995 84.9597C79.8532 86.6264 78.6793 87.7062 76.872 87.7062C76.1909 87.7062 75.6517 87.4714 74.7358 87.2134L74.6893 85.9685C75.5343 85.9453 76.098 85.9453 76.6617 85.8743C77.5544 85.8743 78.211 85.5222 78.9154 85.0294C79.4082 84.7005 79.5488 83.9729 79.6661 83.4324H77.1068H77.1055ZM77.2938 81.4367H79.501C79.4546 80.8962 79.2895 80.4267 79.0779 80.0745C78.7967 79.6282 78.6548 79.2528 78.3968 79.0889C78.0214 78.8309 77.5518 78.76 77.1287 78.76C76.7056 78.76 76.4244 78.8774 76.2838 78.9483C76.0025 79.3715 75.8852 79.7468 75.8852 80.357C75.8852 81.4135 76.7533 81.4367 77.2938 81.4367Z" fill="#331D1F"/>
<path d="M85.1822 81.3193V82.7757C85.1822 83.1743 84.8765 83.4336 84.5243 83.4336H81.2606V81.9785C81.2606 81.5554 81.5896 81.3206 81.9185 81.3206H85.1822V81.3193Z" fill="#331D1F"/>
<path d="M86.8257 81.2252C86.8025 80.8266 86.7315 80.4976 86.7548 80.1454L86.6838 78.76L86.7548 77.5396L86.778 76.131L86.6838 74.8629L86.778 73.5484L86.7316 72.3035L86.778 70.989H88.375V73.8064L88.2808 75.2628L88.3273 76.6947L88.2808 78.1511L88.3041 78.9961V79.5366C88.3273 80.4292 88.375 80.7337 88.7027 80.9685C88.9374 81.1568 89.2432 81.2497 90.1113 81.3206V83.035L89.4534 83.4337C89.0071 83.4569 88.5853 83.3395 88.1389 83.1989C87.7868 83.0583 87.552 82.7758 87.3172 82.4945C87.2708 82.4481 87.223 82.4004 87.1998 82.3307C87.0592 82.519 86.8941 82.6596 86.7303 82.8235C86.0491 83.3395 85.2984 83.4337 84.5231 83.4337V81.954L85.181 81.3206C85.7447 81.3206 86.2607 81.2974 86.8244 81.2265L86.8257 81.2252Z" fill="#331D1F"/>
<path d="M93.3763 81.3193V82.7757C93.3763 83.1743 93.0706 83.4336 92.7184 83.4336H89.4547V81.9785C89.4547 81.5554 89.7837 81.3206 90.1126 81.3206H93.3763V81.3193Z" fill="#331D1F"/>
<path d="M94.0806 79.3469L93.353 78.4788C93.7761 77.9628 94.692 76.8817 95.208 76.5773C95.4893 76.4367 95.9124 76.2019 96.4052 76.2019C97.2269 76.2019 97.7906 76.5309 98.424 77.0004C98.5414 77.0714 98.6123 77.1642 98.7297 77.2352C99.9978 78.0801 101.501 78.6439 103.027 78.738H103.802L103.848 80.4047L103.167 80.3815C102.909 80.4047 102.651 80.428 102.392 80.4525C102.463 80.5466 102.533 80.6408 102.604 80.7337C103.096 81.3206 104.27 81.3206 104.975 81.3206L104.998 82.8003L104.34 83.4337C103.495 83.4337 102.485 83.4104 101.898 82.6584C101.523 82.1888 101.334 81.1787 101.263 80.5686C100.817 80.6395 100.465 80.7569 100.066 80.9439C99.2909 81.3671 98.4937 81.7657 97.6474 82.0469C97.272 82.1643 96.9199 82.3526 96.5445 82.5165C96.1459 82.7048 95.7692 82.8686 95.417 82.986C95.1113 83.0802 94.3373 83.2208 94.0793 83.315C93.6562 83.4556 93.1402 83.4091 92.717 83.4324V81.7889L93.375 81.3193C93.891 81.3426 94.2908 81.3193 94.643 81.3193C94.8068 81.3193 94.9952 81.2729 95.1358 81.2484C96.0749 81.06 97.014 80.6382 97.9532 80.4267C98.5401 80.3093 99.1271 80.0977 99.6908 79.8629C99.7617 79.8397 99.8314 79.8165 99.8791 79.792C99.527 79.6281 99.198 79.5108 98.8691 79.3934C98.4227 79.2295 98.1879 78.9703 97.7416 78.7587C97.3894 78.5949 97.0605 78.5007 96.756 78.4065C96.4039 78.2891 96.0517 78.1008 95.7705 78.1717L94.0806 79.3456V79.3469Z" fill="#331D1F"/>
<path d="M108.262 81.3193V82.7757C108.262 83.1743 107.956 83.4336 107.604 83.4336H104.34V81.9785C104.34 81.5554 104.669 81.3206 104.998 81.3206H108.262V81.3193Z" fill="#331D1F"/>
<path d="M107.604 81.6483L108.262 81.3194C108.872 81.3194 109.506 81.1787 109.905 81.0381V79.7468L110.022 78.4788L109.999 77.2107L109.905 74.7687L109.951 73.4774V72.1862L109.905 70.9413L111.525 70.9181L111.548 72.3035L111.454 76.131C111.454 76.3425 111.501 77.141 111.501 77.3281C111.501 77.5629 111.524 78.3846 111.524 78.5729V79.8642C111.524 80.9917 111.266 81.7193 110.608 82.6107C110.302 82.9628 109.786 83.1266 109.388 83.2918C108.824 83.4324 108.331 83.4324 107.604 83.4324V81.6483Z" fill="#331D1F"/>
<path d="M124.461 79.2063L125.706 78.7135C125.777 78.8774 125.895 79.254 126.012 79.6759C126.083 79.9339 126.2 80.2396 126.293 80.5685C126.293 80.615 126.316 80.6627 126.316 80.7092C126.528 80.8498 126.74 80.9904 126.903 81.0613C127.185 81.2019 127.585 81.2729 127.983 81.2729C128.617 81.2729 129.345 81.2264 129.885 80.8743C130.19 80.1467 130.354 79.6062 130.495 78.5974L131.998 78.9728C131.809 79.5133 131.692 79.9119 131.551 80.2641C131.505 80.4047 131.48 80.5453 131.434 80.6872C131.411 80.7814 131.387 80.8756 131.363 80.9452C131.903 81.251 132.49 81.4857 133.124 81.5322C133.405 81.509 133.734 81.4148 133.969 81.3438C134.015 81.2032 134.109 80.9452 134.157 80.6859C134.157 80.3802 133.993 79.5585 133.922 79.254C133.851 78.8309 133.664 78.1975 133.593 77.7512L133.851 77.6338L135.119 77.3281C135.214 77.7976 135.354 78.244 135.448 78.7135C135.519 79.0889 135.589 79.512 135.589 79.8874C135.612 80.099 135.635 80.3106 135.635 80.4976C135.635 80.873 135.564 81.1787 135.495 81.4832C135.448 81.6947 135.401 81.8818 135.354 82.0701C135.166 82.2817 135.025 82.4932 134.861 82.6571C134.744 82.7977 134.603 82.9383 134.415 83.0325C134.204 83.2208 133.992 83.3382 133.757 83.3846C133.522 83.4556 133.264 83.4788 132.912 83.4788C132.772 83.4788 132.607 83.4788 132.466 83.4556C132.231 83.4323 132.02 83.3614 131.808 83.2208C131.573 83.1266 131.338 82.986 131.104 82.8454C130.94 82.728 130.775 82.6106 130.634 82.47C130.611 82.4236 130.563 82.3991 130.54 82.3526C130.494 82.3991 130.469 82.4468 130.446 82.4932C130.375 82.5642 130.305 82.6338 130.234 82.6816C130.023 82.8699 129.788 83.0105 129.483 83.1976C129.389 83.244 129.32 83.2685 129.225 83.2917C128.944 83.3859 128.638 83.4091 128.215 83.4091H128.052C127.653 83.4091 127.324 83.3627 126.878 83.2208C126.854 83.1976 126.807 83.1976 126.783 83.1744C126.783 83.8323 126.76 84.4192 126.62 85.0526C126.549 85.2641 126.456 85.428 126.385 85.6163C126.291 85.7801 126.197 85.9685 126.056 86.18C125.962 86.2974 125.821 86.4148 125.657 86.5322C125.469 86.696 125.259 86.8612 125.07 87.0482C124.93 87.1424 124.789 87.212 124.647 87.2598C124.389 87.3772 124.131 87.4481 123.92 87.5887C123.779 87.6597 123.662 87.7293 123.521 87.7771C123.24 87.8945 122.934 87.9654 122.582 88.0351C122.535 88.0583 122.488 88.0583 122.441 88.0815C122.066 88.1525 121.573 88.1757 121.173 88.1757C120.657 88.1757 120.188 88.1757 119.718 88.0815C119.672 88.0583 119.624 88.0583 119.578 88.0351C119.179 87.9409 118.756 87.8003 118.333 87.5655C118.004 87.3075 117.769 87.1424 117.511 86.7438C117.276 86.509 117.041 86.0162 116.924 85.6163C116.76 85.2177 116.618 84.654 116.643 84.1844C116.666 84.067 116.666 83.9729 116.689 83.8787C116.76 83.315 116.901 82.8686 117.065 82.3526C117.299 81.6715 117.534 80.9904 117.84 80.357L118.733 80.5918L118.357 82.0469L118.122 83.3382C118.005 83.9729 118.169 84.4411 118.428 84.8178L118.522 84.9584C118.78 85.3106 119.086 85.6395 119.508 85.7801C119.579 85.8266 119.672 85.8511 119.766 85.8975C120.189 86.0382 120.728 86.0859 121.363 86.1323H121.503C122.56 86.0859 123.617 85.8034 124.603 85.428C125.073 85.1222 125.331 85.0294 125.519 84.7701C125.566 84.5353 125.496 84.2064 125.425 83.7845C125.354 83.3859 125.237 83.0092 125.096 82.5874C125.05 82.4932 125.025 82.3991 124.979 82.2817C124.815 81.7889 124.721 81.3658 124.532 80.8962C124.509 80.7788 124.461 80.6846 124.415 80.5673C124.274 80.1441 124.086 79.6281 123.969 79.3701L124.461 79.2063Z" fill="#331D1F"/>
<path d="M139.745 83.4788L138.031 83.4324L137.96 80.9439L137.983 79.7236L138.054 78.4323L137.983 77.2816C137.983 76.4135 138.006 75.615 138.101 74.7455L138.077 73.5252V72.2803L138.006 70.9413L139.603 70.9877L139.721 72.3022C139.698 72.6776 139.674 73.0775 139.674 73.4761C139.674 73.8747 139.721 74.2747 139.745 74.6733L139.722 75.9646V77.1384L139.745 78.4065L139.628 79.6746V80.9427L139.722 82.163L139.676 83.4311L139.747 83.4775L139.745 83.4788Z" fill="#331D1F"/>
<path d="M143.737 78.3846C143.831 78.7832 143.995 79.1599 144.135 79.5121C144.276 79.8875 144.299 80.3802 144.416 80.7092C144.674 80.873 144.909 81.0149 145.144 81.1078L145.308 81.1542C145.66 81.2252 146.035 81.3658 146.763 81.3181V83.008L146.105 83.4311C145.73 83.4311 145.354 83.4079 144.978 83.2195C144.837 83.1486 144.696 83.0557 144.531 82.9847C144.485 83.5252 144.25 84.6514 143.967 85.0513L143.897 85.2152C143.708 85.6138 143.544 85.9427 143.239 86.1775C142.933 86.5064 142.581 86.8109 142.205 87.0457C141.994 87.1398 141.713 87.1631 141.384 87.1863H140.891C140.21 87.1863 139.788 87.0225 139.365 86.7877V85.4964C140.163 85.4964 140.75 85.4254 141.337 85.308C141.736 85.0733 142.088 84.8849 142.394 84.6501C142.44 84.6269 142.465 84.5792 142.511 84.556C142.723 84.3676 142.981 84.0864 143.121 83.8284C143.168 83.4995 143.192 83.3124 143.215 82.9835C143.262 82.6777 143.192 82.3965 143.075 81.8096C142.957 81.4342 142.863 81.082 142.723 80.6357C142.676 80.5183 142.652 80.4009 142.605 80.2835C142.441 79.8371 142.417 79.2734 142.253 78.9212L143.733 78.3807L143.737 78.3846Z" fill="#331D1F"/>
<path d="M150.029 81.3193V82.7757C150.029 83.1743 149.724 83.4336 149.371 83.4336H146.108V81.9785C146.108 81.5554 146.437 81.3206 146.766 81.3206H150.029V81.3193Z" fill="#331D1F"/>
<path d="M153.293 81.3193V82.7757C153.293 83.1743 152.987 83.4336 152.635 83.4336H149.371V81.9785C149.371 81.5554 149.7 81.3206 150.029 81.3206H153.293V81.3193Z" fill="#331D1F"/>
<path d="M159.444 85.6151L157.847 86.0382L155.663 86.8599L154.254 87.2121V86.0382L155.686 85.686L156.602 85.3338L158.034 84.8411L159.442 84.4889V85.6164L159.444 85.6151Z" fill="#331D1F"/>
<path d="M155.335 82.1411C154.56 83.1034 153.926 83.4324 152.635 83.4324V81.6715L153.268 81.3193C153.692 81.3193 154.419 81.2252 154.841 80.9672C155.193 80.5208 155.499 80.099 155.757 79.6527C155.968 79.1599 156.203 78.5962 156.39 78.2208C156.648 77.7048 157.47 76.7411 158.01 76.5064C158.292 76.3657 158.715 76.2484 159.09 76.2484C159.583 76.2484 159.983 76.389 160.335 76.6237C160.664 76.905 160.922 77.1875 161.134 77.6093C161.368 78.0079 161.58 78.4078 161.603 78.947C161.626 79.463 161.72 79.9571 161.674 80.4963C161.628 81.0833 160.97 82.5861 160.664 83.1253L160.031 83.2427L158.88 82.8441L157.635 82.2804L156.532 81.9282L155.71 81.5761C155.593 81.7644 155.452 81.9514 155.335 82.1398V82.1411ZM156.626 79.8629L160.265 81.1078C160.383 80.7556 160.312 80.3093 160.171 79.7455C160.054 79.3224 159.89 79.018 159.678 78.6426C159.349 78.3136 159.045 78.1963 158.551 78.2195C158.176 78.2195 157.87 78.2904 157.448 78.3369C157.167 78.9006 156.838 79.4166 156.626 79.8629Z" fill="#331D1F"/>
</svg>
