<svg width="63" height="35" viewBox="0 0 63 35" fill="none" xmlns="http://www.w3.org/2000/svg">
<g clip-path="url(#clip0_340_3911)">
<path d="M50.0029 0L32.6692 35H45.0168L62.3753 0H50.0029Z" fill="#037166"/>
<path d="M32.508 35H44.8556L36.1356 17.6688H23.7898L32.508 35Z" fill="#00AD69"/>
<path d="M31.7888 8.98926H19.4147L22.7216 15.5904H35.0958L31.7888 8.98926Z" fill="#F4B21F"/>
<path d="M2.50788 11.2637H3.01447C3.08468 11.2623 3.15166 11.2324 3.20148 11.1802C3.2513 11.1281 3.28012 11.0578 3.28193 10.9838V10.3364C3.28012 10.2624 3.2513 10.1921 3.20148 10.1399C3.15166 10.0878 3.08468 10.0579 3.01447 10.0565H2.50788C2.43798 10.0584 2.37144 10.0885 2.32199 10.1406C2.27255 10.1927 2.24398 10.2628 2.24219 10.3364V10.9875C2.24245 11.0228 2.24968 11.0575 2.2634 11.0897C2.27712 11.1218 2.29704 11.1505 2.3219 11.1741C2.3435 11.2037 2.37194 11.2269 2.4045 11.2416C2.43706 11.2563 2.47265 11.262 2.50788 11.2581" fill="white"/>
<path d="M12.8823 16.7976C12.8768 16.7381 12.8586 16.6807 12.8291 16.6296L12.3491 15.3367L12.2428 15.0269C12.0638 14.5271 11.8213 14.0551 11.5219 13.6239C11.2952 13.294 11.0152 13.0085 10.6947 12.7806C10.4001 12.5842 10.0762 12.4416 9.73647 12.3589C9.37689 12.2774 9.00958 12.2398 8.64183 12.247C8.46431 12.2443 8.28682 12.2537 8.11044 12.2749C7.89789 12.3048 7.71014 12.3328 7.55072 12.3589C7.49216 12.3746 7.43768 12.4039 7.39131 12.4447C7.35674 12.4823 7.3371 12.5323 7.3364 12.5847V13.0903C7.3364 13.2302 7.41788 13.2862 7.60386 13.2582C7.67569 13.2611 7.74748 13.2517 7.81641 13.2302C7.89762 13.2349 7.97901 13.2254 8.05731 13.2022C8.12982 13.2084 8.20276 13.1989 8.27163 13.1742H8.40448C9.12362 13.1742 9.70991 13.3142 10.1102 13.6239C10.5631 13.9738 10.914 14.4501 11.1234 14.999L11.3909 15.6464L11.816 16.6856H3.20224V13.0903C3.19647 13.0303 3.17834 12.9723 3.1491 12.9205C3.12253 12.8664 3.06939 12.8664 3.01448 12.8664H2.45476C2.39781 12.8712 2.34267 12.8897 2.29357 12.9205C2.26434 12.9723 2.2462 13.0303 2.24044 13.0903V18.4842C2.2408 18.7006 2.22302 18.9167 2.18729 19.1298C2.1771 19.2039 2.15287 19.2752 2.11606 19.3393C2.07924 19.4033 2.03059 19.459 1.97297 19.5029C1.85453 19.5912 1.71798 19.6487 1.57443 19.6709C1.37049 19.6961 1.16505 19.7054 0.959801 19.6988H0.72068C0.587835 19.6988 0.532923 19.7548 0.532923 19.8668V20.4022C0.526363 20.4507 0.53574 20.5001 0.559494 20.5422C0.60467 20.5814 0.662193 20.6014 0.72068 20.5981C0.816186 20.5694 0.917435 20.5694 1.01294 20.5981H1.25383C1.61509 20.6128 1.97571 20.5552 2.3166 20.4284C2.58686 20.3128 2.8126 20.1052 2.9578 19.8388C3.03769 19.6618 3.09145 19.4731 3.11721 19.279C3.15018 19.0367 3.16794 18.7924 3.17036 18.5477V17.7622H12.5298C12.5774 17.768 12.6257 17.7635 12.6717 17.7491C12.7177 17.7347 12.7604 17.7106 12.7972 17.6782C12.8258 17.6493 12.8477 17.614 12.8615 17.5749C12.8753 17.5358 12.8806 17.494 12.877 17.4525V17.0047C12.8901 16.9736 12.897 16.9399 12.897 16.9058C12.897 16.8717 12.8901 16.838 12.877 16.8069" fill="white"/>
<path d="M16.8818 11.2636H17.3884C17.4236 11.2647 17.4585 11.2577 17.491 11.2432C17.5234 11.2288 17.5524 11.2071 17.5761 11.1796C17.601 11.1561 17.6209 11.1273 17.6346 11.0952C17.6483 11.0631 17.6556 11.0283 17.6558 10.9931V10.3456C17.6568 10.3089 17.6502 10.2723 17.6364 10.2385C17.6227 10.2046 17.6021 10.1744 17.5761 10.1497C17.5524 10.1223 17.5234 10.1006 17.491 10.0861C17.4585 10.0717 17.4236 10.0647 17.3884 10.0658H16.8818C16.8119 10.0677 16.7453 10.0978 16.6959 10.1498C16.6464 10.2019 16.6179 10.272 16.6161 10.3456V10.9875C16.6179 11.0611 16.6464 11.1312 16.6959 11.1833C16.7453 11.2354 16.8119 11.2654 16.8818 11.2673" fill="white"/>
<path d="M17.6558 13.7638C17.6587 13.5297 17.6498 13.2955 17.6292 13.0623C17.6236 13.002 17.6048 12.9439 17.5743 12.8925C17.5495 12.8366 17.4964 12.8366 17.4149 12.8366H16.8569C16.8071 12.8372 16.7592 12.8571 16.7223 12.8925C16.6931 12.9444 16.6749 13.0023 16.6692 13.0623C16.6692 13.3702 16.6957 13.6799 16.6957 13.9318V16.292C16.6957 16.4897 16.6692 16.6297 16.616 16.6651C16.4779 16.7096 16.3335 16.7285 16.1892 16.7211H15.8349C15.7279 16.7283 15.6205 16.7189 15.5161 16.6931C15.4332 16.674 15.3525 16.6459 15.2752 16.6091C15.2096 16.5446 15.1556 16.4681 15.1158 16.3834C15.0775 16.2568 15.059 16.1244 15.0609 15.9916V9.21323C15.056 9.15388 15.0385 9.09646 15.0095 9.04531C14.991 9.0187 14.9667 8.99718 14.9386 8.98257C14.9106 8.96795 14.8796 8.96067 14.8483 8.96135H14.2886C14.258 8.96348 14.2282 8.97201 14.2008 8.98642C14.1735 9.00084 14.1491 9.02085 14.1292 9.04531C14.1084 9.06702 14.0927 9.09344 14.0832 9.12255C14.0737 9.15166 14.0706 9.18268 14.0743 9.21323V16.2117C14.0618 16.4699 14.0986 16.7281 14.1823 16.9711C14.2378 17.1543 14.3387 17.3185 14.4746 17.4469C14.6165 17.565 14.7799 17.6513 14.9546 17.7006C15.0234 17.7253 15.0964 17.7348 15.1689 17.7286C15.2463 17.7533 15.3274 17.7628 15.408 17.7566H16.3415C16.4843 17.7612 16.6272 17.7519 16.7684 17.7286C16.9012 17.7286 17.0358 17.7006 17.1421 17.7006C17.2249 17.7018 17.3067 17.6827 17.3812 17.6446C17.457 17.6226 17.5228 17.573 17.5672 17.5047C17.5956 17.4469 17.6221 17.3648 17.6487 17.3069C17.6753 17.111 17.6753 16.8573 17.7018 16.5215V14.3012C17.6753 14.1333 17.6753 13.928 17.6487 13.7676" fill="white"/>
<path d="M5.38798 27.7534C5.37939 27.817 5.35143 27.8759 5.30831 27.9213C5.26518 27.9668 5.20923 27.9962 5.14886 28.0053H4.58914C4.52703 28.0006 4.46915 27.9705 4.42795 27.9213C4.40491 27.9003 4.38613 27.8746 4.37274 27.8457C4.35935 27.8169 4.35162 27.7855 4.35002 27.7534V23.7364C4.35549 23.4805 4.32807 23.2251 4.26853 22.977C4.22744 22.8 4.14528 22.6365 4.02942 22.5012C3.91681 22.3846 3.77965 22.2977 3.62911 22.2475C3.44737 22.1882 3.25782 22.1599 3.06761 22.1635C2.80519 22.1714 2.54518 22.2186 2.29533 22.3035C2.02036 22.3917 1.75309 22.5047 1.49649 22.6412V27.7795C1.49414 27.8118 1.48573 27.8432 1.47174 27.8721C1.45776 27.9009 1.43847 27.9265 1.41501 27.9474C1.39507 27.9719 1.3707 27.9919 1.34333 28.0063C1.31596 28.0207 1.28613 28.0292 1.25559 28.0314H0.749008C0.686905 28.0267 0.62902 27.9966 0.587824 27.9474C0.544377 27.8915 0.517301 27.8234 0.509888 27.7515V21.5441C0.515026 21.4848 0.532568 21.4275 0.561254 21.3762C0.579638 21.3495 0.603919 21.3279 0.632001 21.3132C0.660083 21.2986 0.691122 21.2914 0.72244 21.2922H1.30873C1.33927 21.2944 1.36909 21.3029 1.39646 21.3173C1.42384 21.3317 1.4482 21.3517 1.46815 21.3762C1.48876 21.398 1.50441 21.4244 1.51392 21.4535C1.52343 21.4826 1.52656 21.5136 1.52306 21.5441V21.7699C1.80631 21.5889 2.11052 21.4472 2.42818 21.3482C2.73139 21.2548 3.04574 21.2077 3.36164 21.2083C4.05421 21.2083 4.5608 21.434 4.8814 21.8538C5.202 22.3035 5.36141 22.921 5.36141 23.7364V27.7534H5.38798Z" fill="white"/>
<path d="M10.3493 24.7476H9.4955C9.21009 24.7477 8.92496 24.7664 8.64174 24.8036C8.45576 24.8383 8.27632 24.9045 8.11036 24.9995C7.98532 25.0898 7.89196 25.2209 7.84467 25.3727C7.78472 25.5523 7.75709 25.7421 7.76319 25.9324V26.0723C7.76319 26.5238 7.84467 26.8037 8.03066 26.9436C8.26023 27.0998 8.52981 27.178 8.80293 27.1675C9.06481 27.1734 9.32595 27.1362 9.57698 27.0574C9.84691 26.9625 10.1064 26.8374 10.351 26.6843L10.3493 24.7476ZM11.3624 27.7534C11.3529 27.8169 11.3245 27.8756 11.2811 27.9209C11.2378 27.9662 11.1819 27.9957 11.1215 28.0053H10.5901C10.5298 27.9962 10.4738 27.9667 10.4307 27.9213C10.3876 27.8759 10.3596 27.817 10.351 27.7534V27.4716C10.0795 27.6399 9.79369 27.781 9.49727 27.8933C9.19827 28.0081 8.88203 28.065 8.56381 28.0612C8.3219 28.0611 8.08074 28.0329 7.84467 27.9773C7.62349 27.9209 7.41633 27.8153 7.23712 27.6676C7.05322 27.4978 6.9069 27.2876 6.80847 27.0518C6.69253 26.748 6.63823 26.422 6.64906 26.0947V25.9548C6.64777 25.6592 6.69265 25.3655 6.7819 25.0853C6.8883 24.8386 7.05371 24.6251 7.26192 24.4659C7.52035 24.2853 7.81073 24.1615 8.11567 24.1021C8.54621 24.0143 8.98452 23.9762 9.42288 23.9882H10.2749V23.5106C10.2749 23.0069 10.1969 22.6412 10.0092 22.4434C9.82142 22.2456 9.50259 22.1355 9.04914 22.1355C8.6754 22.1355 8.32823 22.1355 8.06254 22.1635C7.76851 22.1915 7.53116 22.2195 7.28849 22.2195H7.23712C7.19053 22.227 7.1429 22.2171 7.1025 22.1915C7.04937 22.1635 7.04937 22.1076 7.04937 22.0217V21.6019C7.04937 21.4601 7.12908 21.4042 7.28849 21.3762C7.52939 21.3482 7.79508 21.2922 8.06254 21.2642C8.39916 21.2277 8.73731 21.2091 9.07571 21.2083C9.87633 21.2083 10.4626 21.4042 10.808 21.8258C11.1534 22.2475 11.3394 22.7811 11.3394 23.505L11.3624 27.7534Z" fill="white"/>
<path d="M13.968 27.9212C13.9798 28.1884 13.9437 28.4555 13.8617 28.7086C13.8053 28.8942 13.7144 29.0661 13.5943 29.2142C13.4723 29.3467 13.3135 29.435 13.1408 29.4661C12.9411 29.5234 12.7349 29.5516 12.528 29.55H12.2091C12.1276 29.55 12.0214 29.5221 11.8885 29.5221C11.7557 29.5221 11.6742 29.4381 11.6742 29.3355V28.8858C11.6742 28.772 11.7557 28.7179 11.9151 28.7179H12.3951C12.4718 28.7284 12.5497 28.7212 12.6234 28.6967C12.6971 28.6722 12.7649 28.631 12.822 28.5761C12.9017 28.4922 12.9283 28.2683 12.9283 27.9585V21.544C12.9341 21.4846 12.9522 21.4273 12.9814 21.3761C12.9974 21.3473 13.0209 21.324 13.0492 21.3091C13.0776 21.2942 13.1094 21.2883 13.1408 21.2921H13.7554C13.786 21.2943 13.8158 21.3028 13.8432 21.3172C13.8706 21.3316 13.8949 21.3517 13.9149 21.3761C13.9441 21.4273 13.9622 21.4846 13.968 21.544V27.9212Z" fill="white"/>
<path d="M16.8021 27.7534C16.8 27.7856 16.7919 27.817 16.7783 27.8458C16.7646 27.8746 16.7456 27.9003 16.7224 27.9213C16.6818 27.9704 16.6245 28.0006 16.5629 28.0053H16.0032C15.9425 27.9966 15.8862 27.9673 15.8427 27.9219C15.7992 27.8764 15.771 27.8173 15.7623 27.7534V21.5441C15.7668 21.4792 15.7955 21.4189 15.842 21.3762C15.8622 21.3515 15.8868 21.3314 15.9145 21.317C15.9422 21.3025 15.9724 21.2941 16.0032 21.2922H16.5629C16.6233 21.3013 16.6793 21.3307 16.7224 21.3762C16.7655 21.4216 16.7935 21.4805 16.8021 21.5441V27.7534Z" fill="white"/>
<path d="M22.8243 27.7533C22.8224 27.7857 22.8142 27.8173 22.8002 27.8462C22.7861 27.875 22.7666 27.9006 22.7429 27.9212C22.7229 27.9457 22.6986 27.9657 22.6712 27.9801C22.6438 27.9945 22.614 28.003 22.5835 28.0052H19.1224C19.0262 28.0178 18.9286 28.0075 18.8366 27.9753C18.7447 27.943 18.6608 27.8895 18.591 27.8186C18.4883 27.6936 18.4311 27.5342 18.4298 27.3689V27.1432C18.4312 27.0014 18.4497 26.8603 18.4847 26.7234C18.5302 26.5848 18.6026 26.4577 18.6973 26.3502L21.6836 22.4452C21.7102 22.3892 21.7368 22.3612 21.7368 22.3332C21.7368 22.2773 21.7102 22.2493 21.6305 22.2493H18.7752C18.7447 22.2471 18.7148 22.2386 18.6875 22.2242C18.6601 22.2098 18.6357 22.1898 18.6158 22.1653C18.5923 22.144 18.573 22.1181 18.559 22.089C18.545 22.0598 18.5366 22.0281 18.5343 21.9955V21.5757C18.5364 21.5431 18.5447 21.5113 18.5587 21.4821C18.5727 21.453 18.5921 21.4271 18.6158 21.4059C18.6357 21.3815 18.6601 21.3615 18.6875 21.3471C18.7148 21.3326 18.7447 21.3241 18.7752 21.322H22.1619C22.2527 21.3126 22.3444 21.3227 22.4314 21.3516C22.5185 21.3804 22.5991 21.4275 22.6685 21.4899C22.7196 21.5507 22.7581 21.6221 22.7813 21.6996C22.8044 21.7771 22.8119 21.8588 22.8031 21.9396V22.2213C22.8033 22.3357 22.7848 22.4494 22.7482 22.5571C22.6959 22.6732 22.6238 22.7781 22.5356 22.8668L19.5245 26.8559C19.4913 26.8942 19.4724 26.9439 19.4713 26.9958C19.4695 27.0073 19.4702 27.019 19.4736 27.0301C19.4769 27.0412 19.4828 27.0513 19.4906 27.0595C19.4984 27.0677 19.5079 27.0738 19.5185 27.0774C19.529 27.0809 19.5401 27.0817 19.551 27.0798H22.5905C22.6211 27.0819 22.6509 27.0904 22.6783 27.1048C22.7056 27.1192 22.73 27.1393 22.75 27.1637C22.7736 27.1848 22.793 27.2107 22.807 27.2399C22.821 27.2691 22.8293 27.3009 22.8314 27.3335L22.8243 27.7533Z" fill="white"/>
<path d="M12.9354 19.1577C12.9368 19.0834 12.9654 19.0126 13.0153 18.9601C13.0651 18.9076 13.1324 18.8774 13.2029 18.876H13.7077C13.7429 18.8748 13.7779 18.8817 13.8104 18.8962C13.8428 18.9107 13.8718 18.9324 13.8955 18.9599C13.9215 18.9849 13.9421 19.0155 13.9558 19.0497C13.9696 19.0838 13.9762 19.1207 13.9752 19.1577V19.8033C13.9731 19.8354 13.965 19.8669 13.9514 19.8957C13.9377 19.9245 13.9187 19.9502 13.8955 19.9712C13.8722 19.9993 13.8433 20.0217 13.8108 20.0365C13.7783 20.0514 13.7431 20.0584 13.7077 20.057H13.2029C13.1675 20.0581 13.1324 20.051 13.0999 20.0362C13.0675 20.0213 13.0385 19.9991 13.0151 19.9712C12.9919 19.9502 12.9729 19.9245 12.9592 19.8957C12.9455 19.8669 12.9375 19.8354 12.9354 19.8033V19.1577Z" fill="#00AD69"/>
<path d="M15.7889 19.1577C15.7903 19.0838 15.8187 19.0132 15.8681 18.9607C15.9176 18.9082 15.9844 18.8779 16.0546 18.876H16.5612C16.5964 18.8748 16.6315 18.8817 16.6639 18.8962C16.6963 18.9107 16.7253 18.9324 16.749 18.9599C16.775 18.9849 16.7956 19.0155 16.8093 19.0497C16.8231 19.0838 16.8297 19.1207 16.8287 19.1577V19.8033C16.8267 19.8354 16.8186 19.8669 16.8049 19.8957C16.7912 19.9245 16.7722 19.9502 16.749 19.9712C16.7257 19.9993 16.6968 20.0217 16.6643 20.0365C16.6318 20.0514 16.5966 20.0584 16.5612 20.057H16.0546C16.021 20.0566 15.9879 20.0488 15.9574 20.034C15.9269 20.0192 15.8996 19.9978 15.8775 19.9712C15.8543 19.9502 15.8353 19.9245 15.8216 19.8957C15.8079 19.8669 15.7998 19.8354 15.7978 19.8033L15.7889 19.1577Z" fill="#F4B21F"/>
<path d="M10.1084 19.1577C10.1106 19.0837 10.1395 19.0134 10.1892 18.9611C10.2389 18.9087 10.3056 18.8783 10.3759 18.876H10.8824C10.9174 18.8749 10.9521 18.8819 10.9842 18.8964C11.0163 18.9109 11.0451 18.9326 11.0684 18.9599C11.0945 18.9849 11.115 19.0155 11.1288 19.0496C11.1426 19.0838 11.1492 19.1206 11.1481 19.1577V19.8032C11.1461 19.8354 11.138 19.8668 11.1243 19.8957C11.1107 19.9245 11.0916 19.9502 11.0684 19.9712C11.0454 19.9991 11.0168 20.0212 10.9846 20.0361C10.9524 20.0509 10.9175 20.0581 10.8824 20.057H10.3759C10.3407 20.0583 10.3058 20.0513 10.2736 20.0365C10.2414 20.0216 10.2128 19.9993 10.1899 19.9712C10.1661 19.9505 10.1466 19.925 10.1326 19.8961C10.1186 19.8672 10.1103 19.8356 10.1084 19.8032V19.1577Z" fill="#037166"/>
<path d="M16.8021 27.7534C16.8 27.7856 16.7919 27.817 16.7783 27.8458C16.7646 27.8746 16.7456 27.9003 16.7224 27.9213C16.6818 27.9704 16.6245 28.0006 16.5629 28.0053H16.0032C15.9425 27.9966 15.8862 27.9673 15.8427 27.9219C15.7992 27.8764 15.771 27.8173 15.7623 27.7534V21.5441C15.7668 21.4792 15.7955 21.4189 15.842 21.3762C15.8622 21.3515 15.8868 21.3314 15.9145 21.317C15.9422 21.3025 15.9724 21.2941 16.0032 21.2922H16.5629C16.6233 21.3013 16.6793 21.3307 16.7224 21.3762C16.7655 21.4216 16.7935 21.4805 16.8021 21.5441V27.7534Z" fill="white"/>
<path d="M0.934844 30.5053V30.3654C0.934844 30.3374 0.934845 30.3374 0.961414 30.3374H1.06769C1.09426 30.3374 1.09426 30.3374 1.09426 30.3654V30.5053C1.09426 30.5333 1.09426 30.5333 1.06769 30.5333L0.934844 30.5053ZM0.616013 30.5053V30.3654C0.616013 30.3374 0.616015 30.3374 0.642584 30.3374H0.77543C0.801999 30.3374 0.801998 30.3374 0.801998 30.3654V30.5053C0.801998 30.5333 0.801999 30.5333 0.77543 30.5333L0.616013 30.5053ZM0.881705 31.8524H1.20231V31.3244C1.20093 31.2355 1.16665 31.1506 1.10677 31.0879C1.0469 31.0251 0.966145 30.9895 0.881705 30.9886C0.798738 30.9942 0.720531 31.0314 0.661579 31.0931C0.602628 31.1549 0.566931 31.237 0.561104 31.3244V31.511C0.566931 31.5983 0.602628 31.6805 0.661579 31.7423C0.720531 31.804 0.798738 31.8412 0.881705 31.8468M1.7886 32.0446H0.881705C0.81433 32.0475 0.747237 32.0339 0.685744 32.0047C0.624252 31.9756 0.570053 31.9317 0.527449 31.8767C0.436413 31.7744 0.380321 31.6431 0.368036 31.5035V31.3244C0.364835 31.2534 0.377607 31.1825 0.405309 31.1177C0.433011 31.0529 0.47486 30.9958 0.527449 30.9512C0.62459 30.8551 0.749105 30.7955 0.881705 30.7815C0.94783 30.7796 1.01345 30.794 1.07339 30.8235C1.13334 30.853 1.18596 30.8967 1.22711 30.9512C1.31972 31.0526 1.37661 31.1843 1.38829 31.3244V31.858H1.76203L1.7886 32.0446Z" fill="white"/>
<path d="M2.37502 32.3039V32.4438C2.37502 32.4718 2.37502 32.4718 2.34845 32.4718H2.24217C2.2156 32.4718 2.21561 32.4718 2.21561 32.4438V32.3039C2.21561 32.2741 2.2156 32.2741 2.24217 32.2741H2.34845C2.37502 32.2741 2.37502 32.3039 2.37502 32.3039ZM2.05442 32.3039V32.4438C2.05442 32.4718 2.05442 32.4718 2.02785 32.4718H1.895C1.86844 32.4718 1.86844 32.4718 1.86844 32.4438V32.3039C1.86844 32.2741 1.86844 32.2741 1.895 32.2741H2.02785C2.05442 32.2741 2.05442 32.3039 2.05442 32.3039ZM2.1359 31.7125V30.871C2.1359 30.843 2.1359 30.843 2.16247 30.843H2.26875C2.29532 30.843 2.29531 30.843 2.29531 30.871V31.7684C2.29531 31.7983 2.29531 31.8263 2.32188 31.8263C2.36228 31.8519 2.4099 31.8618 2.4565 31.8543H2.56101V32.0502H2.48307C2.38722 32.0571 2.29224 32.0272 2.21561 31.9662C2.15732 32.0226 2.08039 32.0528 2.00128 32.0502H1.65588V31.8543H2.02785C2.10933 31.8543 2.1359 31.7983 2.1359 31.7125Z" fill="white"/>
<path d="M3.20221 30.3654V30.5053C3.20221 30.5333 3.20221 30.5333 3.17565 30.5333H3.06759C3.04103 30.5333 3.04103 30.5333 3.04103 30.5053V30.3654C3.04103 30.3356 3.04103 30.3356 3.06759 30.3356H3.17565C3.20221 30.3094 3.20221 30.3356 3.20221 30.3654ZM3.01623 31.7125V30.871C3.01623 30.843 3.01623 30.843 3.04103 30.843H3.17565C3.20221 30.843 3.20221 30.843 3.20221 30.871V31.7125C3.20323 31.7559 3.19541 31.799 3.17928 31.839C3.16316 31.8789 3.1391 31.9148 3.10873 31.9441C3.07836 31.9734 3.04238 31.9956 3.0032 32.0091C2.96403 32.0225 2.92257 32.027 2.88161 32.0222H2.50964V31.8263H2.90818C2.98966 31.8543 3.01623 31.8263 3.01623 31.7125Z" fill="white"/>
<path d="M4.00103 31.8543H4.32163V31.3244C4.3207 31.2352 4.28663 31.1498 4.22671 31.0867C4.16678 31.0236 4.08577 30.9877 4.00103 30.9867C3.91809 30.9929 3.84008 31.0305 3.78145 31.0926C3.72283 31.1547 3.68756 31.237 3.68219 31.3244V31.511C3.68965 31.5976 3.7256 31.6788 3.78381 31.7404C3.84202 31.8021 3.91885 31.8404 4.00103 31.8487M4.35528 32.0726L4.03468 32.0446C3.96872 32.0465 3.90323 32.0324 3.84332 32.0032C3.78342 31.9741 3.7307 31.9308 3.68928 31.8767C3.59737 31.7749 3.5406 31.6434 3.52809 31.5035V31.317C3.52524 31.2458 3.53835 31.1749 3.56636 31.1101C3.59436 31.0453 3.63647 30.9883 3.68928 30.9438C3.7838 30.8494 3.90517 30.7904 4.03468 30.7759C4.10211 30.7725 4.16934 30.786 4.2309 30.8152C4.29246 30.8443 4.34661 30.8884 4.38894 30.9438C4.48155 31.0452 4.53843 31.1768 4.55012 31.317V32.0707C4.55027 32.1337 4.53843 32.196 4.51531 32.254C4.49219 32.312 4.45825 32.3645 4.4155 32.4084C4.37106 32.4568 4.31713 32.4944 4.25747 32.5186C4.19782 32.5428 4.13387 32.5529 4.0701 32.5484H3.82921C3.80264 32.5484 3.80264 32.5484 3.80264 32.5204V32.4084C3.80264 32.3805 3.80264 32.3805 3.82921 32.3805H4.04885C4.12638 32.3795 4.20045 32.3465 4.25511 32.2886C4.30977 32.2306 4.34065 32.1524 4.34111 32.0707" fill="white"/>
<path d="M5.01595 32.1341V30.871C5.01595 30.843 5.01595 30.843 5.04252 30.843H5.14879C5.17536 30.843 5.17536 30.843 5.17536 30.871V31.8543H5.57567V32.0502H5.20194V32.1341C5.20748 32.1909 5.20094 32.2483 5.18278 32.3022C5.16463 32.356 5.13532 32.4049 5.09698 32.4452C5.05864 32.4856 5.01224 32.5165 4.96115 32.5356C4.91006 32.5548 4.85556 32.5616 4.80163 32.5558H4.66878C4.64221 32.5558 4.64221 32.5558 4.64221 32.5278V32.4159C4.64221 32.3879 4.64221 32.3879 4.66878 32.3879H4.77506C4.8078 32.3929 4.84119 32.3898 4.87258 32.3788C4.90398 32.3678 4.93251 32.3493 4.9559 32.3246C4.97929 32.3 4.9969 32.2699 5.00733 32.2369C5.01775 32.2038 5.0207 32.1686 5.01595 32.1341Z" fill="white"/>
<path d="M6.13544 30.5054V30.3654C6.13544 30.3356 6.13544 30.3356 6.16201 30.3356H6.26829C6.29663 30.3356 6.29663 30.3356 6.29663 30.3654V30.5054C6.29663 30.5333 6.29663 30.5333 6.26829 30.5333H6.16201C6.15496 30.5333 6.14821 30.5304 6.14322 30.5251C6.13824 30.5199 6.13544 30.5128 6.13544 30.5054ZM5.81661 30.5054V30.3654C5.81661 30.3356 5.81661 30.3356 5.84141 30.3356H5.97603C6.0026 30.3356 6.0026 30.3356 6.0026 30.3654V30.5054C6.0026 30.5333 6.0026 30.5333 5.97603 30.5333H5.84141C5.838 30.5334 5.83462 30.5326 5.83149 30.5312C5.82836 30.5298 5.82555 30.5277 5.82322 30.525C5.82089 30.5224 5.8191 30.5193 5.81796 30.5159C5.81683 30.5125 5.81637 30.5089 5.81661 30.5054ZM5.97603 31.7125V30.871C5.97603 30.8431 5.97603 30.8431 6.0026 30.8431H6.10887C6.13544 30.8431 6.13544 30.8431 6.13544 30.871V31.7685C6.13544 31.7983 6.13544 31.8263 6.16201 31.8263C6.2024 31.8519 6.25003 31.8618 6.29663 31.8543H6.40113V32.0502H6.3232C6.22735 32.0571 6.13236 32.0273 6.05573 31.9663C5.99745 32.0227 5.92052 32.0528 5.84141 32.0502H5.44287V31.8543H5.86798C5.94946 31.8543 5.97603 31.7983 5.97603 31.7125Z" fill="white"/>
<path d="M7.30797 30.3094H7.49573C7.5223 30.3094 7.5223 30.3094 7.5223 30.3374V30.4494C7.5223 30.4773 7.5223 30.4773 7.49573 30.4773H7.30797C7.25324 30.4732 7.19828 30.4811 7.14658 30.5005C7.09488 30.5199 7.04756 30.5503 7.0076 30.59C6.96765 30.6296 6.93594 30.6775 6.91447 30.7307C6.893 30.7839 6.88224 30.8412 6.88287 30.899H7.33454C7.40501 30.8939 7.47563 30.9064 7.5406 30.9356C7.60558 30.9648 7.66304 31.0098 7.70828 31.0669C7.80382 31.1855 7.86036 31.3334 7.86947 31.4886V31.7685C7.86947 31.7965 7.86947 31.8263 7.89604 31.8263C7.93577 31.8519 7.98285 31.8618 8.02888 31.8543H8.16173V32.0502H8.05545C7.95964 32.0567 7.86476 32.027 7.78799 31.9662C7.75724 32.0008 7.72025 32.0285 7.67918 32.0477C7.63811 32.0669 7.5938 32.0773 7.54887 32.0782H6.37451V31.8841H7.54887C7.56658 31.8852 7.58431 31.8824 7.6009 31.8757C7.61748 31.8691 7.63254 31.8588 7.64509 31.8456C7.65764 31.8323 7.66739 31.8165 7.6737 31.799C7.68001 31.7815 7.68274 31.7629 7.68171 31.7442V31.511C7.68601 31.4599 7.67995 31.4084 7.66394 31.36C7.64792 31.3116 7.62232 31.2673 7.58882 31.23C7.55533 31.1928 7.5147 31.1635 7.46964 31.1441C7.42458 31.1246 7.37612 31.1155 7.32746 31.1173H6.79608C6.77535 31.116 6.7558 31.1067 6.74111 31.0912C6.72643 31.0758 6.71763 31.0552 6.71637 31.0334C6.6898 30.5837 6.90412 30.3038 7.30266 30.3038" fill="white"/>
<path d="M8.47709 31.7125V30.2535C8.47709 30.2255 8.47709 30.2255 8.50366 30.2255H8.60994C8.63651 30.2255 8.63651 30.2255 8.63651 30.2535V31.7125C8.63852 31.7536 8.63236 31.7946 8.61841 31.833C8.60446 31.8715 8.58304 31.9064 8.55551 31.9355C8.52798 31.9647 8.49497 31.9875 8.45858 32.0024C8.4222 32.0173 8.38325 32.0241 8.34425 32.0222H8.07678V31.8263H8.34425C8.45052 31.8543 8.47709 31.7983 8.47709 31.7125Z" fill="white"/>
<path d="M9.33614 31.6006V30.4494C9.33614 30.4214 9.33614 30.4214 9.36094 30.4214H9.46899C9.49556 30.4214 9.49556 30.4214 9.49556 30.4494V31.6006C9.49556 31.6286 9.49556 31.6286 9.46899 31.6286L9.33614 31.6006ZM9.38751 32.4159V32.5558H9.6284C9.65674 32.5558 9.65675 32.5558 9.65675 32.5857V32.6398C9.65675 32.6678 9.65674 32.6678 9.6284 32.6678H9.22809C9.20152 32.6678 9.20153 32.6678 9.20153 32.6398V32.5857C9.20153 32.5558 9.20152 32.5558 9.22809 32.5558H9.30958V32.4159C9.3083 32.3898 9.31224 32.3638 9.32114 32.3394C9.33004 32.315 9.34369 32.2929 9.36122 32.2744C9.37875 32.2559 9.39977 32.2416 9.42291 32.2322C9.44605 32.2228 9.4708 32.2187 9.49556 32.22C9.53067 32.2154 9.56619 32.2242 9.59573 32.2447C9.62527 32.2652 9.6469 32.2962 9.65675 32.332V32.3599C9.65675 32.3638 9.65601 32.3676 9.65457 32.3711C9.65312 32.3746 9.651 32.3778 9.64835 32.3804C9.64569 32.383 9.64255 32.3851 9.63912 32.3864C9.63569 32.3876 9.63204 32.3882 9.6284 32.3879L9.57527 32.4159C9.56822 32.4159 9.56146 32.413 9.55648 32.4077C9.5515 32.4025 9.54869 32.3954 9.54869 32.3879V32.3599C9.52213 32.332 9.49556 32.3021 9.46899 32.3021C9.41585 32.332 9.38751 32.3599 9.38751 32.4159ZM9.949 31.6006V30.2535C9.949 30.2236 9.949 30.2236 9.97557 30.2236H10.0819C10.1084 30.2236 10.1084 30.2236 10.1084 30.2535V31.6006C10.114 31.6574 10.1074 31.7148 10.0893 31.7686C10.0711 31.8224 10.0418 31.8713 10.0035 31.9117C9.96513 31.9521 9.91872 31.9829 9.86763 32.0021C9.81654 32.0212 9.76205 32.0281 9.70811 32.0222H8.98898C8.96241 32.0222 8.9624 32.0222 8.9624 31.9942V31.8842C8.9624 31.8562 8.96241 31.8562 8.98898 31.8562H9.71697C9.74963 31.8608 9.78287 31.8574 9.81409 31.8463C9.84532 31.8352 9.87368 31.8166 9.89699 31.7921C9.92029 31.7675 9.93791 31.7376 9.94846 31.7047C9.95902 31.6719 9.96224 31.6368 9.95786 31.6024" fill="white"/>
<path d="M10.6415 32.0502H10.5352C10.5087 32.0502 10.5087 32.0502 10.5087 32.0222V30.2516C10.5087 30.2255 10.5087 30.2255 10.5352 30.2255H10.6415C10.6681 30.2255 10.6681 30.2255 10.6681 30.2516L10.6415 32.0502C10.6681 32.0502 10.6681 32.0222 10.6415 32.0502Z" fill="white"/>
<path d="M12.1082 30.5053V30.3654C12.1082 30.3374 12.1082 30.3374 12.1348 30.3374H12.241C12.2676 30.3374 12.2676 30.3374 12.2676 30.3654V30.5053C12.2676 30.5333 12.2676 30.5333 12.241 30.5333L12.1082 30.5053C12.1348 30.5333 12.1082 30.5333 12.1082 30.5053ZM11.7894 30.5053V30.3654C11.7894 30.3374 11.7894 30.3374 11.8159 30.3374H11.9488C11.9753 30.3374 11.9753 30.3374 11.9753 30.3654V30.5053C11.9753 30.5333 11.9753 30.5333 11.9488 30.5333L11.7894 30.5053C11.8159 30.5333 11.7894 30.5333 11.7894 30.5053ZM12.0816 31.8524H12.4022V31.3244C12.4022 31.2348 12.3684 31.1489 12.3083 31.0856C12.2482 31.0223 12.1666 30.9867 12.0816 30.9867C11.9966 30.9867 11.915 31.0223 11.8549 31.0856C11.7948 31.1489 11.761 31.2348 11.761 31.3244V31.511C11.7624 31.5999 11.7967 31.6848 11.8565 31.7475C11.9164 31.8102 11.9972 31.8459 12.0816 31.8468M12.9673 32.0446H12.0816C12.0142 32.048 11.947 32.0345 11.8854 32.0053C11.8238 31.9761 11.7697 31.9321 11.7274 31.8767C11.6351 31.7751 11.5783 31.6435 11.5662 31.5035V31.3244C11.5629 31.2532 11.5758 31.1822 11.6038 31.1172C11.6319 31.0523 11.6742 30.9954 11.7274 30.9512C11.824 30.8544 11.9488 30.7946 12.0816 30.7815C12.1492 30.7785 12.2165 30.7923 12.278 30.8218C12.3396 30.8513 12.3936 30.8956 12.4359 30.9512C12.4866 30.9975 12.5272 31.0548 12.5548 31.1192C12.5823 31.1837 12.5961 31.2537 12.5953 31.3244V31.858H12.969L12.9673 32.0446Z" fill="white"/>
<path d="M13.5748 32.3039V32.4438C13.5748 32.4718 13.5748 32.4718 13.55 32.4718H13.4366C13.4101 32.4718 13.4101 32.4718 13.4101 32.4438V32.3039C13.4101 32.2741 13.4101 32.2741 13.4366 32.2741L13.5748 32.3039ZM13.256 32.3039V32.4438C13.256 32.4718 13.256 32.4718 13.2294 32.4718H13.0948C13.0682 32.4718 13.0682 32.4718 13.0682 32.4438V32.3039C13.0682 32.2741 13.0682 32.2741 13.0948 32.2741L13.256 32.3039ZM13.3357 31.7125V30.871C13.3357 30.843 13.3357 30.843 13.3623 30.843H13.4685C13.4951 30.843 13.4951 30.843 13.4951 30.871V31.7684C13.4951 31.7983 13.4951 31.8263 13.5234 31.8263C13.5632 31.8519 13.6103 31.8618 13.6563 31.8543H13.7626V32.0502H13.6829C13.587 32.0571 13.492 32.0272 13.4154 31.9662C13.3577 32.0223 13.2814 32.0525 13.2028 32.0502H12.8291V31.8543H13.2028C13.3091 31.8543 13.3357 31.7983 13.3357 31.7125Z" fill="white"/>
<path d="M14.1452 31.7125V30.2535C14.1452 30.2255 14.1452 30.2255 14.17 30.2255H14.278C14.3046 30.2255 14.3046 30.2255 14.3046 30.2535V31.7125C14.3066 31.7537 14.3004 31.795 14.2864 31.8335C14.2723 31.8721 14.2507 31.9071 14.223 31.9363C14.1953 31.9655 14.162 31.9882 14.1255 32.003C14.0889 32.0178 14.0497 32.0243 14.0106 32.0222H13.7449V31.8263H14.0106C14.1186 31.8543 14.1452 31.7983 14.1452 31.7125Z" fill="white"/>
<path d="M15.7392 31.8544H15.8455V32.0521H15.7658C15.7197 32.0571 15.6732 32.0492 15.6309 32.0292C15.5886 32.0093 15.552 31.9779 15.5249 31.9383L15.4983 31.9103C15.4568 31.9555 15.4069 31.9914 15.3518 32.0158C15.2967 32.0401 15.2375 32.0525 15.1777 32.0521H14.6765C14.6499 32.0521 14.6499 32.0521 14.6499 32.0223V31.9103C14.6499 31.8823 14.6499 31.8823 14.6765 31.8823H15.1831C15.3442 31.8823 15.4239 31.8264 15.4239 31.6566V31.2629C15.4193 31.19 15.3896 31.1213 15.3404 31.0698C15.2911 31.0183 15.2258 30.9874 15.1565 30.983C15.0737 30.9818 14.9918 31.001 14.9174 31.039L14.8642 31.067H14.8111L14.7579 30.983V30.9513C14.7579 30.9439 14.7607 30.9368 14.7657 30.9315C14.7707 30.9263 14.7775 30.9233 14.7845 30.9233L14.8377 30.8954C14.9337 30.8348 15.0447 30.8056 15.1565 30.8114C15.2748 30.8206 15.3873 30.8696 15.4771 30.9513C15.5579 31.0319 15.6061 31.1421 15.6117 31.2592V31.7368C15.5851 31.7946 15.6631 31.8506 15.7446 31.8506" fill="white"/>
<path d="M16.4284 31.0669C16.3754 31.1259 16.3307 31.1925 16.2955 31.2647L16.563 31.8524H16.7755L17.043 31.2647C17.043 31.1788 16.9881 31.1229 16.9084 31.0389C16.8385 30.9863 16.7552 30.9571 16.6693 30.955C16.6241 30.9559 16.5795 30.9663 16.5382 30.9855C16.4968 31.0047 16.4595 31.0324 16.4284 31.0669ZM17.4415 32.0502H15.7889V31.8524H16.3487L16.1078 31.3244V31.2983C16.1327 31.1667 16.1988 31.0478 16.2955 30.9606C16.3442 30.9078 16.4022 30.8656 16.4664 30.8365C16.5305 30.8073 16.5994 30.7918 16.6693 30.7908C16.8049 30.7956 16.9356 30.8452 17.043 30.9326C17.1342 31.0243 17.1987 31.1414 17.229 31.2703V31.2983L16.9881 31.8319H17.4947V32.0558L17.4415 32.0502Z" fill="white"/>
<path d="M17.7886 31.7125V30.2535C17.7886 30.2255 17.7886 30.2255 17.8152 30.2255H17.9215C17.948 30.2255 17.948 30.2255 17.948 30.2535V31.7125C17.95 31.7536 17.9439 31.7946 17.9299 31.833C17.916 31.8715 17.8946 31.9064 17.867 31.9355C17.8395 31.9647 17.8065 31.9875 17.7701 32.0024C17.7337 32.0173 17.6948 32.0241 17.6558 32.0222H17.3883V31.8263H17.6558C17.7355 31.8543 17.7886 31.7983 17.7886 31.7125Z" fill="white"/>
<path d="M18.483 32.0502H18.375C18.3484 32.0502 18.3484 32.0502 18.3484 32.0222V30.2516C18.3484 30.2255 18.3484 30.2255 18.375 30.2255H18.483C18.5078 30.2255 18.5078 30.2255 18.5078 30.2516L18.483 32.0502C18.5078 32.0502 18.5078 32.0222 18.483 32.0502Z" fill="white"/>
<path d="M20.4297 30.7292V30.5893C20.4297 30.5613 20.4297 30.5613 20.4545 30.5613H20.5891C20.6157 30.5613 20.6157 30.5613 20.6157 30.5893V30.7292C20.6157 30.759 20.6157 30.7591 20.5891 30.7591L20.4297 30.7292ZM20.1091 30.7292V30.5893C20.1091 30.5613 20.1091 30.5613 20.1356 30.5613H20.2437C20.2685 30.5613 20.2685 30.5613 20.2685 30.5893V30.7292C20.2685 30.759 20.2685 30.7591 20.2437 30.7591L20.1091 30.7292ZM20.9097 31.7125V30.871C20.9097 30.843 20.9097 30.843 20.9363 30.843H21.0425C21.0691 30.843 21.0691 30.843 21.0691 30.871V31.7125C21.0711 31.7537 21.0649 31.7949 21.0509 31.8335C21.0368 31.872 21.0152 31.907 20.9875 31.9362C20.9598 31.9654 20.9266 31.9882 20.89 32.003C20.8534 32.0178 20.8142 32.0243 20.7751 32.0222H19.9231C19.7823 32.0206 19.6479 31.9602 19.5493 31.8543C19.4975 31.8045 19.4565 31.7436 19.429 31.6757C19.4015 31.6078 19.3881 31.5344 19.3899 31.4606C19.388 31.3611 19.4152 31.2634 19.4679 31.1807C19.5187 31.0935 19.5934 31.0245 19.6822 30.9829L19.7371 30.955H19.7619C19.7885 30.955 19.7885 30.955 19.7885 30.9829L19.8416 31.0949C19.8416 31.1229 19.8416 31.1229 19.815 31.1229L19.7619 31.1527C19.7049 31.1849 19.6578 31.2336 19.6264 31.2932C19.595 31.3527 19.5805 31.4206 19.5848 31.4886C19.5848 31.5875 19.6221 31.6824 19.6885 31.7524C19.755 31.8224 19.8451 31.8617 19.939 31.8617H20.791C20.8725 31.8617 20.9256 31.8337 20.9256 31.7199" fill="white"/>
<path d="M21.7617 31.8544H21.8697V32.0521H21.7617C21.722 32.0563 21.682 32.0511 21.6445 32.0368C21.607 32.0226 21.573 31.9997 21.545 31.9698C21.517 31.9399 21.4956 31.9038 21.4826 31.8642C21.4695 31.8245 21.465 31.7823 21.4694 31.7406V30.2815C21.4694 30.2535 21.4694 30.2535 21.496 30.2535H21.6023C21.6288 30.2535 21.6288 30.2535 21.6288 30.2815V31.7406C21.6288 31.8264 21.682 31.8544 21.7617 31.8544Z" fill="white"/>
<path d="M23.0423 31.511V31.3244C23.0456 31.2781 23.0398 31.2315 23.0252 31.1877C23.0106 31.1438 22.9876 31.1036 22.9576 31.0696C22.9276 31.0355 22.8912 31.0083 22.8508 30.9898C22.8104 30.9712 22.7667 30.9616 22.7226 30.9616C22.6785 30.9616 22.6349 30.9712 22.5944 30.9898C22.554 31.0083 22.5177 31.0355 22.4876 31.0696C22.4576 31.1036 22.4346 31.1438 22.42 31.1877C22.4055 31.2315 22.3996 31.2781 22.4029 31.3244V31.858H22.7217C22.8065 31.857 22.8875 31.8211 22.9474 31.758C23.0073 31.6949 23.0414 31.6096 23.0423 31.5203M23.0689 30.9606C23.1191 31.0072 23.1593 31.0647 23.1868 31.129C23.2143 31.1934 23.2285 31.2632 23.2283 31.3337V31.5203C23.2311 31.5913 23.2181 31.6619 23.1905 31.7267C23.1628 31.7915 23.1212 31.8486 23.0689 31.8934C22.9665 31.9933 22.8344 32.0527 22.6952 32.0614H21.79V31.8655H22.1886V31.3244C22.1857 31.2534 22.1986 31.1827 22.2262 31.1179C22.2539 31.0531 22.2956 30.996 22.348 30.9512C22.4452 30.8556 22.5698 30.7965 22.7022 30.7833C22.7724 30.7811 22.8421 30.7949 22.9067 30.8239C22.9712 30.8529 23.029 30.8964 23.076 30.9512" fill="white"/>
<path d="M24.6683 31.8543H24.7728V32.0521H24.6913C24.6455 32.0571 24.5992 32.0492 24.5572 32.0292C24.5152 32.0092 24.4789 31.9778 24.4522 31.9382L24.4257 31.9103C24.3839 31.9553 24.3341 31.991 24.279 32.0154C24.2239 32.0398 24.1648 32.0522 24.1051 32.0521H23.5985C23.5719 32.0521 23.5719 32.0521 23.5719 32.0222V31.9103C23.5719 31.8823 23.5719 31.8823 23.5985 31.8823H24.1051C24.2662 31.8823 24.3442 31.8263 24.3442 31.6565V31.2628C24.3396 31.1902 24.3101 31.1218 24.2613 31.0703C24.2124 31.0188 24.1474 30.9878 24.0785 30.983C23.9952 30.982 23.9128 31.0012 23.8376 31.0389L23.7862 31.0669H23.7313L23.6782 30.983V30.9513C23.6782 30.9438 23.681 30.9367 23.686 30.9315C23.6909 30.9262 23.6977 30.9233 23.7047 30.9233L23.7597 30.8953C23.8556 30.8345 23.9666 30.8053 24.0785 30.8113C24.1968 30.8208 24.3091 30.8698 24.3991 30.9513C24.4794 31.032 24.527 31.1423 24.5319 31.2591V31.7367C24.5054 31.7946 24.5585 31.8506 24.6648 31.8506" fill="white"/>
<path d="M25.4689 30.5053V30.3654C25.4689 30.3374 25.4689 30.3374 25.4955 30.3374H25.6283C25.6567 30.3374 25.6567 30.3374 25.6567 30.3654V30.5053C25.6567 30.5333 25.6567 30.5333 25.6283 30.5333L25.4689 30.5053ZM25.9489 31.6005V31.3487C25.9504 31.2965 25.9418 31.2446 25.9235 31.1962C25.9052 31.1477 25.8778 31.1037 25.8428 31.0668C25.8077 31.03 25.766 31.001 25.7199 30.9818C25.6739 30.9625 25.6247 30.9534 25.5752 30.955C25.5019 30.9488 25.4285 30.964 25.3629 30.9989C25.2973 31.0338 25.242 31.087 25.2032 31.1527L25.1767 31.2069L25.1501 31.2348H25.1271L25.0474 31.1807L25.0208 31.1527V31.1229L25.0474 31.0669C25.1107 30.9836 25.1919 30.9173 25.2842 30.8735C25.3766 30.8297 25.4776 30.8097 25.5787 30.815C25.6529 30.813 25.7266 30.8268 25.7955 30.8557C25.8644 30.8846 25.927 30.9279 25.9795 30.9831C26.032 31.0382 26.0733 31.104 26.1009 31.1765C26.1286 31.2489 26.1419 31.3265 26.1402 31.4046V31.7983C26.1402 31.8263 26.1402 31.8543 26.1668 31.8543C26.2065 31.8799 26.2536 31.8898 26.2997 31.8823H26.4059V32.0707H26.3262C26.1934 32.0707 26.0853 32.0427 26.0322 31.9308C25.9908 31.9756 25.9412 32.0111 25.8864 32.0351C25.8316 32.0592 25.7727 32.0713 25.7134 32.0707H24.7002V31.8841H25.7134C25.8905 31.8561 25.9525 31.7703 25.9525 31.6024" fill="white"/>
<path d="M26.7496 31.7125V30.2535C26.7496 30.2255 26.7496 30.2255 26.7761 30.2255H26.8824C26.909 30.2255 26.909 30.2255 26.909 30.2535V31.7125C26.911 31.7537 26.9048 31.795 26.8907 31.8335C26.8767 31.8721 26.8551 31.9071 26.8274 31.9363C26.7997 31.9655 26.7664 31.9882 26.7298 32.003C26.6932 32.0178 26.6541 32.0243 26.6149 32.0222H26.3492V31.8263H26.6149C26.723 31.8543 26.7496 31.7983 26.7496 31.7125Z" fill="white"/>
<path d="M27.4687 32.0502H27.3624C27.3358 32.0502 27.3358 32.0502 27.3358 32.0222V30.2516C27.3358 30.2255 27.3358 30.2255 27.3624 30.2255H27.4687C27.4952 30.2255 27.4952 30.2255 27.4952 30.2516L27.4687 32.0502C27.4952 32.0502 27.4952 32.0222 27.4687 32.0502Z" fill="white"/>
<path d="M0.802084 33.0895H0.989839V34.4664C0.994869 34.5762 0.966309 34.6848 0.908362 34.7761C0.877736 34.8183 0.836886 34.8509 0.790125 34.8706C0.743363 34.8903 0.692422 34.8963 0.64267 34.8881H0.481484C0.454914 34.8881 0.454914 34.8881 0.428345 34.8601L0.454915 34.6903C0.496149 34.7118 0.541811 34.722 0.587761 34.7202C0.616162 34.7245 0.645101 34.7183 0.669649 34.7026C0.694197 34.687 0.712833 34.6628 0.722377 34.6343C0.746131 34.5723 0.755246 34.505 0.748945 34.4384V33.0895H0.802084Z" fill="white"/>
<path d="M1.60279 33.5951V34.4963C1.60279 34.5522 1.62759 34.5802 1.62759 34.6082L1.70907 34.6922C1.73973 34.7157 1.77763 34.7264 1.81535 34.722C1.86849 34.722 1.89506 34.722 1.92162 34.6922C1.94819 34.6623 1.97476 34.6642 2.00133 34.6362L2.08281 34.5522C2.10938 34.5243 2.10938 34.4963 2.13418 34.4403V33.597H2.32193V34.6829C2.3177 34.7409 2.32682 34.7991 2.3485 34.8526H2.21565L2.16252 34.6549C2.12347 34.7246 2.06793 34.7824 2.00133 34.8228C1.93071 34.8715 1.84591 34.892 1.76221 34.8806C1.70907 34.8806 1.62759 34.8806 1.60279 34.8526C1.54966 34.8228 1.52131 34.7948 1.46818 34.7668C1.43046 34.7175 1.40327 34.6602 1.38847 34.5989C1.36654 34.517 1.35756 34.4319 1.3619 34.347V33.5876L1.60279 33.5951Z" fill="white"/>
<path d="M3.14911 34.7182C3.21463 34.7166 3.27865 34.6973 3.3351 34.6623C3.38569 34.6075 3.42226 34.5401 3.44137 34.4664V33.8469C3.41481 33.8189 3.38823 33.8189 3.3351 33.7928C3.29137 33.7808 3.24702 33.7714 3.20225 33.7648C3.15271 33.7627 3.10331 33.7716 3.05724 33.7909C3.01117 33.8102 2.96945 33.8394 2.93479 33.8768C2.8642 33.9834 2.82704 34.1106 2.82851 34.2406C2.82414 34.3078 2.8332 34.3751 2.85508 34.4384C2.88165 34.4943 2.88165 34.5503 2.90822 34.5783C2.93479 34.6063 2.96313 34.6623 3.0145 34.6903C3.05594 34.7128 3.10263 34.7225 3.14911 34.7182ZM3.62913 34.4384V34.6623C3.62487 34.7294 3.63391 34.7968 3.6557 34.86H3.51754L3.46617 34.6903C3.43503 34.7501 3.38833 34.7992 3.33156 34.832C3.26535 34.8663 3.19277 34.8848 3.119 34.8862C3.0512 34.8929 2.98291 34.8809 2.92081 34.8515C2.85871 34.8221 2.80494 34.7761 2.76475 34.7182C2.69033 34.5602 2.65384 34.3854 2.65847 34.2091C2.66311 34.0328 2.70872 33.8604 2.79131 33.707C2.84384 33.652 2.90638 33.6088 2.97518 33.5799C3.04397 33.5511 3.1176 33.5372 3.19162 33.5391H3.34041C3.36698 33.5391 3.42012 33.5671 3.44669 33.5671V33.0334H3.63444L3.62913 34.4384Z" fill="white"/>
<path d="M4.04882 33.5951H4.23657V34.8694H4.04882V33.5951ZM3.99745 33.222C3.99432 33.1828 4.003 33.1437 4.02225 33.11C4.04882 33.082 4.07716 33.082 4.1303 33.082C4.18343 33.082 4.21 33.082 4.23657 33.11C4.2526 33.1235 4.26565 33.1405 4.27482 33.1598C4.284 33.1792 4.28907 33.2004 4.28971 33.222C4.28971 33.25 4.26314 33.3078 4.23657 33.3078C4.21 33.3078 4.18343 33.3358 4.1303 33.3358C4.07716 33.3358 4.04882 33.3358 4.02225 33.3078C3.99568 33.2798 3.99745 33.25 3.99745 33.222Z" fill="white"/>
<path d="M5.46583 34.7761L5.30465 34.86C5.23642 34.8849 5.16402 34.8944 5.0921 34.888C5.00929 34.8831 4.92786 34.8635 4.8512 34.8302C4.79139 34.7927 4.73759 34.7455 4.69178 34.6903C4.64351 34.6373 4.61518 34.5677 4.61208 34.4943C4.61208 34.4384 4.58551 34.3264 4.58551 34.2145C4.58099 34.0358 4.62725 33.8597 4.71835 33.7089C4.76341 33.6514 4.8208 33.606 4.88578 33.5765C4.95077 33.547 5.02148 33.5341 5.0921 33.5391C5.1524 33.5339 5.21301 33.5435 5.26922 33.5671C5.31893 33.5686 5.36656 33.5884 5.40384 33.623L5.34893 33.791C5.32236 33.763 5.26922 33.763 5.21608 33.735C5.17486 33.7138 5.12895 33.7047 5.08324 33.7089C4.84234 33.7089 4.72898 33.8768 4.72898 34.1846C4.72651 34.2517 4.73551 34.3187 4.75555 34.3824C4.78212 34.4664 4.78212 34.4944 4.80869 34.5223C4.8297 34.5729 4.86839 34.613 4.91674 34.6343C5.02007 34.6715 5.13223 34.6715 5.23557 34.6343C5.28871 34.6063 5.31527 34.6063 5.34184 34.5783L5.46583 34.7761Z" fill="white"/>
<path d="M5.76173 33.5951H5.94948V34.8694H5.76173V33.5951ZM5.73515 33.222C5.73148 33.1825 5.74087 33.143 5.76173 33.11C5.7883 33.082 5.81663 33.082 5.868 33.082C5.91937 33.082 5.94948 33.082 5.97605 33.11C5.99184 33.1236 6.00462 33.1407 6.01349 33.16C6.02236 33.1793 6.02712 33.2005 6.02742 33.222C6.02742 33.25 6.00262 33.3078 5.97605 33.3078C5.94948 33.3078 5.92291 33.3358 5.868 33.3358C5.81309 33.3358 5.7883 33.3358 5.76173 33.3078C5.75169 33.2963 5.74412 33.2827 5.73954 33.2679C5.73495 33.2531 5.73346 33.2374 5.73515 33.222Z" fill="white"/>
<path d="M6.69516 34.7202C6.74164 34.7244 6.7883 34.7147 6.82978 34.6922C6.85458 34.6922 6.88114 34.6623 6.90949 34.6343C6.93783 34.6064 6.96263 34.6064 6.96263 34.5784C6.96537 34.5571 6.97471 34.5375 6.98919 34.5224V34.3265H6.69516C6.64202 34.3265 6.61545 34.3545 6.56232 34.3545C6.53575 34.3825 6.50918 34.3825 6.48261 34.4105C6.45604 34.4384 6.45604 34.4664 6.45604 34.5224C6.45711 34.5743 6.47599 34.624 6.50918 34.6623C6.56797 34.6916 6.63071 34.7111 6.69516 34.7202ZM6.34091 33.7071C6.39405 33.6809 6.47552 33.6529 6.55523 33.6231C6.63352 33.5999 6.71491 33.5904 6.79613 33.5951C6.86805 33.5891 6.94036 33.5987 7.00868 33.6231C7.04791 33.6453 7.08374 33.6736 7.11495 33.7071C7.14306 33.7386 7.16156 33.7782 7.16809 33.8209V34.7202C7.17452 34.7673 7.18339 34.814 7.19466 34.8601H7.06182L7.00868 34.6922C6.98211 34.7202 6.98211 34.7463 6.95554 34.7463C6.92897 34.7463 6.9024 34.8023 6.87406 34.8023C6.84749 34.8321 6.82269 34.8321 6.76779 34.8601C6.72699 34.8827 6.68086 34.8924 6.63494 34.8881C6.58891 34.8955 6.54189 34.8856 6.50209 34.8601C6.44896 34.8321 6.42238 34.8321 6.39404 34.7743C6.3657 34.7164 6.3409 34.7202 6.31611 34.6623C6.29463 34.6194 6.2854 34.5708 6.28954 34.5224C6.29138 34.4537 6.30901 34.3865 6.34091 34.3265C6.37194 34.2737 6.41959 34.2341 6.47553 34.2145C6.53181 34.1788 6.59584 34.1589 6.66151 34.1567C6.74121 34.1567 6.82269 34.1287 6.9024 34.1287H7.00868V33.9888C7.0094 33.9223 6.99086 33.8573 6.95554 33.8022C6.90075 33.7616 6.83472 33.7412 6.76779 33.7444H6.68808C6.65087 33.7431 6.61406 33.7528 6.5818 33.7724C6.55523 33.7724 6.52866 33.8022 6.47553 33.8022C6.42239 33.8022 6.42238 33.8302 6.39404 33.8302L6.34091 33.7071Z" fill="white"/>
<path d="M7.78798 34.5504C7.78097 34.5989 7.79038 34.6484 7.81455 34.6903C7.82536 34.701 7.83825 34.709 7.85233 34.7139C7.86641 34.7187 7.88133 34.7202 7.89603 34.7183H7.97574C7.99017 34.7202 8.00481 34.7187 8.0186 34.7138C8.03239 34.709 8.04498 34.7009 8.05545 34.6903L8.08201 34.8582C8.05544 34.8582 8.02888 34.8881 7.97574 34.8881H7.86946C7.80353 34.8855 7.73915 34.8663 7.68171 34.8321C7.6533 34.8031 7.63141 34.7678 7.61762 34.7287C7.60383 34.6897 7.59849 34.6479 7.602 34.6064V33.0895H7.78798V34.5504Z" fill="white"/>
<path d="M8.93581 33.0895L8.90747 34.8881H9.84093V34.6903H9.1218V34.0727H9.78957V33.8768H9.1218V33.2872H9.84093V33.0895H8.93581Z" fill="white"/>
<path d="M10.4025 34.5504C10.3955 34.5989 10.4049 34.6484 10.429 34.6903C10.4395 34.7009 10.4521 34.709 10.4659 34.7138C10.4797 34.7187 10.4943 34.7202 10.5088 34.7183H10.5902C10.6044 34.72 10.6187 34.7184 10.6322 34.7136C10.6457 34.7087 10.658 34.7008 10.6682 34.6903L10.6947 34.8582C10.6682 34.8582 10.6416 34.8881 10.5902 34.8881H10.4822C10.4163 34.8853 10.3519 34.8661 10.2944 34.8321C10.2663 34.8029 10.2446 34.7675 10.2309 34.7285C10.2171 34.6895 10.2116 34.6478 10.2147 34.6064V33.0895H10.4025V34.5504Z" fill="white"/>
<path d="M11.3624 33.763C11.275 33.7604 11.1895 33.7909 11.1215 33.8488C11.061 33.9292 11.024 34.0265 11.0153 34.1287H11.6015C11.6068 34.0788 11.6025 34.0283 11.5888 33.9802C11.5751 33.9321 11.5523 33.8874 11.5218 33.8488C11.4953 33.763 11.4421 33.763 11.3624 33.763ZM11.7627 34.7761C11.7076 34.8198 11.6431 34.8486 11.575 34.8601C11.4163 34.9074 11.2472 34.8969 11.095 34.8302C11.0608 34.8194 11.0291 34.8014 11.0017 34.7773C10.9744 34.7533 10.9518 34.7237 10.9355 34.6903C10.909 34.6343 10.8558 34.5503 10.8275 34.4944C10.8026 34.4036 10.7936 34.3087 10.8009 34.2145C10.7928 34.0351 10.84 33.8577 10.9355 33.7089C10.9842 33.6486 11.0461 33.6016 11.1158 33.572C11.1856 33.5424 11.2611 33.5311 11.3359 33.5391C11.3904 33.5347 11.4451 33.5443 11.4953 33.5671C11.5227 33.5664 11.5497 33.574 11.5732 33.5889C11.5967 33.6037 11.6158 33.6253 11.6281 33.651C11.6547 33.7089 11.7096 33.735 11.7362 33.791C11.772 33.8702 11.7902 33.957 11.7893 34.0447C11.7918 34.1118 11.7828 34.1788 11.7627 34.2425H10.9887C10.9824 34.3091 10.9915 34.3763 11.0153 34.4384C11.0418 34.4944 11.0418 34.5504 11.095 34.5783C11.1481 34.6063 11.1747 34.6343 11.2012 34.6623C11.2608 34.6873 11.3252 34.6969 11.389 34.6903C11.4435 34.6947 11.4982 34.6851 11.5484 34.6623C11.596 34.6407 11.6407 34.6124 11.6813 34.5783L11.7627 34.7761Z" fill="white"/>
<path d="M12.9052 34.7761L12.7458 34.8601C12.6769 34.8848 12.604 34.8943 12.5315 34.8881C12.4492 34.8831 12.3684 34.8636 12.2923 34.8302C12.2109 34.8023 12.1843 34.7482 12.1329 34.6903C12.0836 34.638 12.0545 34.5681 12.0514 34.4944C12.0281 34.4033 12.0191 34.3087 12.0249 34.2145C12.0204 34.0358 12.0666 33.8598 12.1577 33.7089C12.2029 33.6516 12.2603 33.6063 12.3252 33.5768C12.3902 33.5472 12.4609 33.5344 12.5315 33.5391C12.5918 33.5338 12.6524 33.5434 12.7086 33.5671C12.7585 33.5678 12.8064 33.5877 12.8432 33.6231L12.7901 33.791C12.7635 33.763 12.7086 33.763 12.6555 33.735C12.6143 33.7137 12.5683 33.7047 12.5226 33.7089C12.2835 33.7089 12.1684 33.8768 12.1684 34.1847C12.1659 34.2518 12.1749 34.3188 12.1949 34.3825C12.2233 34.4664 12.2233 34.4944 12.2498 34.5224C12.2707 34.5724 12.3086 34.6123 12.3561 34.6343C12.4063 34.6572 12.461 34.6668 12.5155 34.6623C12.57 34.6669 12.6248 34.6573 12.6749 34.6343C12.7299 34.6064 12.7564 34.6064 12.783 34.5784L12.9052 34.7761Z" fill="white"/>
<path d="M13.015 33.5951H13.2028V33.3432L13.3888 33.2872V33.5951H13.7094V33.763H13.3888V34.4664C13.3825 34.533 13.3916 34.6002 13.4153 34.6623C13.4279 34.6796 13.4439 34.6938 13.4623 34.7038C13.4807 34.7138 13.5009 34.7194 13.5216 34.7201H13.6296C13.6544 34.7201 13.681 34.6903 13.7359 34.6903L13.7891 34.8302C13.7359 34.8601 13.7094 34.8601 13.6544 34.8881C13.6043 34.911 13.5495 34.9207 13.495 34.9161C13.4557 34.9199 13.4161 34.9142 13.3792 34.8993C13.3424 34.8844 13.3093 34.8608 13.2825 34.8302C13.2343 34.7463 13.2155 34.6473 13.2293 34.5504V33.7929H13.0416V33.5951H13.015Z" fill="white"/>
<path d="M14.5348 33.7928C14.4933 33.7724 14.4478 33.7628 14.402 33.7648C14.3443 33.7615 14.2875 33.7808 14.2426 33.819C14.1894 33.8469 14.1894 33.9048 14.1629 33.9608V34.8694H13.968V33.6044H14.1026L14.1292 33.7462C14.1485 33.6877 14.186 33.6378 14.2355 33.6044C14.284 33.5733 14.3384 33.5542 14.3949 33.5484C14.4494 33.544 14.5041 33.5536 14.5543 33.5764L14.5348 33.7928Z" fill="white"/>
<path d="M14.9351 34.2406C14.9326 34.3077 14.9416 34.3747 14.9617 34.4384C14.9882 34.5223 14.9882 34.5503 15.0148 34.5783C15.0414 34.6063 15.0697 34.6623 15.1211 34.6903C15.1708 34.7168 15.2269 34.7272 15.2823 34.7201C15.4948 34.7201 15.6029 34.5503 15.6029 34.2406C15.607 34.1741 15.5979 34.1074 15.5763 34.0447C15.5497 33.9887 15.5497 33.9328 15.5214 33.9048C15.5007 33.8553 15.4635 33.8155 15.4169 33.7928C15.3671 33.7663 15.311 33.7559 15.2557 33.763C15.0431 33.735 14.9351 33.9048 14.9351 34.2406ZM14.7225 34.2406C14.7186 34.062 14.7648 33.8861 14.8554 33.735C14.9045 33.6754 14.9665 33.629 15.0362 33.5998C15.1058 33.5706 15.1811 33.5593 15.2557 33.5671C15.3377 33.5721 15.4185 33.591 15.4948 33.623C15.5639 33.6457 15.6217 33.6959 15.656 33.763C15.6826 33.8208 15.7357 33.9048 15.7623 33.9607C15.7872 34.0516 15.7962 34.1464 15.7888 34.2406C15.7931 34.4199 15.7469 34.5965 15.656 34.7481C15.6069 34.8077 15.5449 34.8541 15.4752 34.8833C15.4056 34.9125 15.3303 34.9237 15.2557 34.916C15.1731 34.9106 15.0919 34.8918 15.0148 34.86C14.9465 34.8368 14.8894 34.7867 14.8554 34.7201C14.8288 34.6623 14.7757 34.5783 14.7491 34.5223C14.7257 34.4306 14.7167 34.3354 14.7225 34.2406Z" fill="white"/>
<path d="M16.8552 34.8694V34.1231C16.8554 34.018 16.8374 33.9136 16.8021 33.8153C16.7826 33.7815 16.7553 33.7533 16.7228 33.7334C16.6903 33.7136 16.6536 33.7026 16.6161 33.7015C16.5768 33.7002 16.5376 33.7072 16.5008 33.7219C16.464 33.7366 16.4304 33.7589 16.4018 33.7873C16.3486 33.8433 16.2955 33.8992 16.2955 33.9552V34.8265H16.1095V33.5634H16.2423L16.2689 33.7033C16.2955 33.6474 16.3486 33.6212 16.4301 33.5634C16.5005 33.5158 16.5845 33.496 16.6674 33.5074C16.7224 33.5074 16.8021 33.5074 16.8286 33.5354C16.8818 33.5634 16.9083 33.5914 16.9633 33.6212C17 33.6712 17.0271 33.7282 17.043 33.7892C17.0664 33.8707 17.0754 33.9561 17.0695 34.041V34.8004H16.8552V34.8694Z" fill="white"/>
<path d="M17.4415 33.5951H17.6292V34.8694H17.4415V33.5951ZM17.3884 33.2219C17.3847 33.1825 17.3941 33.143 17.4149 33.11C17.4415 33.082 17.4698 33.082 17.523 33.082C17.5604 33.0781 17.598 33.088 17.6292 33.11C17.6453 33.1235 17.6583 33.1405 17.6675 33.1598C17.6767 33.1791 17.6817 33.2003 17.6824 33.2219C17.6824 33.2499 17.6558 33.3078 17.6292 33.3078C17.6027 33.3078 17.5761 33.3357 17.523 33.3357C17.485 33.3399 17.4468 33.33 17.4149 33.3078C17.4149 33.2779 17.3884 33.2499 17.3884 33.2219Z" fill="white"/>
<path d="M18.855 34.7762L18.6956 34.8601C18.6273 34.885 18.5549 34.8945 18.483 34.8881C18.4002 34.8834 18.3187 34.8638 18.2421 34.8303C18.1624 34.8023 18.1358 34.7482 18.0827 34.6903C18.0337 34.6379 18.0053 34.568 18.003 34.4944C17.9796 34.4033 17.9707 34.3088 17.9764 34.2146C17.971 34.0357 18.0173 33.8594 18.1093 33.7089C18.1541 33.6512 18.2115 33.6057 18.2765 33.5761C18.3415 33.5466 18.4124 33.5339 18.483 33.5392C18.5462 33.5325 18.6101 33.5421 18.669 33.5671C18.7187 33.5686 18.7663 33.5884 18.8036 33.6231L18.7487 33.791C18.7221 33.763 18.669 33.763 18.6158 33.7351C18.5746 33.714 18.5287 33.705 18.483 33.7089C18.2421 33.7089 18.1287 33.8769 18.1287 34.1847C18.1263 34.2518 18.1353 34.3188 18.1553 34.3825C18.1819 34.4664 18.1819 34.4944 18.2085 34.5224C18.2293 34.5724 18.2673 34.6124 18.3147 34.6344C18.3655 34.6572 18.4208 34.6668 18.4759 34.6623C18.5304 34.6666 18.5851 34.657 18.6353 34.6344C18.6885 34.6064 18.715 34.6064 18.7416 34.5784L18.855 34.7762Z" fill="white"/>
<path d="M20.4828 34.4105C20.4868 34.3493 20.4677 34.289 20.4297 34.2425C20.4115 34.2131 20.3878 34.1879 20.3601 34.1683C20.3324 34.1488 20.3013 34.1353 20.2685 34.1287C20.2154 34.1007 20.1357 34.0727 20.0825 34.0448C20.0122 34.0242 19.9477 33.9858 19.8948 33.9328C19.8356 33.8836 19.7821 33.8272 19.7353 33.7649C19.6822 33.7089 19.6822 33.6231 19.6822 33.5111C19.6815 33.4484 19.693 33.3862 19.7162 33.3284C19.7394 33.2706 19.7736 33.2185 19.8168 33.1753C19.9301 33.0833 20.0735 33.0424 20.2154 33.0615C20.3054 33.0555 20.3957 33.0649 20.4828 33.0895C20.5458 33.1044 20.6079 33.1231 20.6688 33.1455L20.6157 33.3432C20.5891 33.3152 20.536 33.3152 20.4563 33.2854C20.3779 33.2624 20.2966 33.2529 20.2154 33.2574C20.1721 33.2538 20.1285 33.2595 20.0874 33.2743C20.0463 33.2891 20.0085 33.3125 19.9762 33.3432C19.9525 33.3639 19.933 33.3894 19.919 33.4183C19.9049 33.4472 19.8967 33.4788 19.8948 33.5111C19.9 33.571 19.9188 33.6286 19.9497 33.6791C19.9671 33.7086 19.9904 33.7339 20.0179 33.7532C20.0454 33.7725 20.0765 33.7854 20.1091 33.791C20.1792 33.8118 20.2432 33.8509 20.2951 33.9048C20.3608 33.936 20.4236 33.9735 20.4828 34.0168C20.5424 34.0655 20.596 34.1219 20.6422 34.1847C20.6875 34.2496 20.7066 34.3308 20.6954 34.4105C20.7015 34.4777 20.6924 34.5454 20.6688 34.6082C20.642 34.6698 20.6062 34.7264 20.5625 34.7761C20.5092 34.8285 20.4449 34.8669 20.3748 34.8881C20.2971 34.9112 20.2163 34.9206 20.1357 34.9161C20.0374 34.9236 19.9387 34.9141 19.8434 34.8881C19.7619 34.8582 19.7088 34.8582 19.6556 34.8303L19.7353 34.6343C19.7798 34.6737 19.8368 34.6937 19.8948 34.6903C19.9731 34.7133 20.0545 34.7228 20.1357 34.7183C20.1902 34.7228 20.2449 34.7131 20.2951 34.6903C20.3482 34.6623 20.3748 34.6623 20.4297 34.6343C20.4846 34.6064 20.4828 34.5784 20.5094 34.5504C20.4852 34.5085 20.4758 34.4589 20.4828 34.4105Z" fill="white"/>
<path d="M21.4429 33.763C21.3554 33.7604 21.27 33.7909 21.202 33.8488C21.1414 33.9292 21.1045 34.0265 21.0957 34.1287H21.682C21.6873 34.0788 21.6829 34.0283 21.6692 33.9802C21.6555 33.9321 21.6328 33.8874 21.6023 33.8488C21.6023 33.763 21.5226 33.763 21.4429 33.763ZM21.8432 34.7761C21.788 34.8198 21.7236 34.8486 21.6554 34.8601C21.4968 34.9074 21.3276 34.8969 21.1754 34.8302C21.1413 34.8194 21.1096 34.8014 21.0822 34.7773C21.0548 34.7533 21.0323 34.7237 21.016 34.6903C20.9894 34.6343 20.9363 34.5503 20.9079 34.4944C20.8831 34.4036 20.8741 34.3087 20.8814 34.2145C20.8733 34.0351 20.9205 33.8577 21.016 33.7089C21.0647 33.6486 21.1265 33.6016 21.1963 33.572C21.266 33.5424 21.3415 33.5311 21.4163 33.5391C21.4708 33.5347 21.5255 33.5443 21.5757 33.5671C21.6031 33.5664 21.6301 33.574 21.6537 33.5889C21.6772 33.6037 21.6962 33.6253 21.7086 33.651C21.7351 33.7089 21.79 33.735 21.8166 33.791C21.8518 33.8704 21.8694 33.9571 21.868 34.0447C21.8703 34.1116 21.8619 34.1785 21.8432 34.2425H21.0691C21.0628 34.3091 21.0719 34.3763 21.0957 34.4384C21.1223 34.4944 21.1223 34.5504 21.1754 34.5783C21.202 34.6063 21.2551 34.6343 21.2817 34.6623C21.3413 34.6873 21.4056 34.6969 21.4694 34.6903C21.5239 34.6947 21.5787 34.6851 21.6289 34.6623C21.6765 34.6407 21.7212 34.6124 21.7617 34.5783L21.8432 34.7761Z" fill="white"/>
<path d="M22.7748 33.7929C22.7333 33.7725 22.6877 33.7629 22.642 33.7649C22.5843 33.7616 22.5275 33.7809 22.4826 33.819C22.4294 33.847 22.4294 33.9048 22.4028 33.9608V34.8694H22.2151V33.6045H22.3497L22.3763 33.7463C22.3956 33.6878 22.433 33.6378 22.4826 33.6045C22.531 33.5734 22.5855 33.5543 22.642 33.5485C22.6965 33.5439 22.7512 33.5535 22.8014 33.5765L22.7748 33.7929Z" fill="white"/>
<path d="M23.7614 33.623L23.4958 34.3544L23.4426 34.6063L23.3629 34.3544L23.0689 33.623H22.8563L23.3895 34.9142H23.4674L23.974 33.623H23.7614Z" fill="white"/>
<path d="M24.2148 33.5951H24.4026V34.8694H24.2148V33.5951ZM24.1617 33.2219C24.158 33.1825 24.1674 33.143 24.1882 33.11C24.2148 33.082 24.2431 33.082 24.2963 33.082C24.3337 33.0781 24.3713 33.088 24.4026 33.11C24.4186 33.1235 24.4316 33.1405 24.4408 33.1598C24.45 33.1791 24.4551 33.2003 24.4557 33.2219C24.4557 33.2499 24.4291 33.3078 24.4026 33.3078C24.376 33.3078 24.3494 33.3357 24.2963 33.3357C24.2583 33.3399 24.2201 33.33 24.1882 33.3078C24.1882 33.2779 24.1617 33.2499 24.1617 33.2219Z" fill="white"/>
<path d="M25.6283 34.776L25.4689 34.86C25.4007 34.8849 25.3283 34.8944 25.2563 34.888C25.1735 34.883 25.0921 34.8635 25.0154 34.8302C24.9357 34.8022 24.9092 34.7481 24.856 34.6902C24.8061 34.6388 24.7764 34.5696 24.7728 34.4962C24.7494 34.4051 24.7404 34.3105 24.7462 34.2163C24.7408 34.0375 24.7871 33.8612 24.879 33.7107C24.9241 33.6532 24.9815 33.6078 25.0465 33.5783C25.1114 33.5488 25.1822 33.536 25.2528 33.5409C25.3131 33.5358 25.3737 33.5453 25.4299 33.5689C25.4796 33.5704 25.5272 33.5902 25.5645 33.6249L25.5096 33.7928C25.483 33.7648 25.4299 33.7648 25.3768 33.7368C25.3355 33.7158 25.2896 33.7067 25.2439 33.7107C25.003 33.7107 24.8897 33.8786 24.8897 34.1865C24.8872 34.2535 24.8962 34.3205 24.9162 34.3842C24.9428 34.4682 24.9428 34.4962 24.9694 34.5242C24.9904 34.5747 25.0291 34.6148 25.0774 34.6361C25.1276 34.6591 25.1823 34.6687 25.2368 34.6641C25.2913 34.6684 25.346 34.6588 25.3962 34.6361C25.4494 34.6081 25.476 34.6081 25.5025 34.5801L25.6283 34.776Z" fill="white"/>
<path d="M26.2961 33.7629C26.2091 33.7596 26.124 33.7902 26.057 33.8488C25.995 33.9285 25.9574 34.026 25.9489 34.1286H26.5441C26.5494 34.0787 26.545 34.0282 26.5313 33.9801C26.5176 33.9321 26.4949 33.8874 26.4644 33.8488C26.4644 33.7629 26.3847 33.7629 26.305 33.7629M26.7212 34.7761C26.67 34.8215 26.6093 34.8534 26.5441 34.8693C26.4664 34.8924 26.3856 34.9019 26.305 34.8973C26.2227 34.8926 26.1418 34.873 26.0658 34.8395C26.0314 34.8288 25.9994 34.811 25.9717 34.7869C25.944 34.7629 25.9212 34.7331 25.9047 34.6996C25.8781 34.6436 25.825 34.5596 25.7966 34.5037C25.7717 34.4128 25.7627 34.318 25.77 34.2238C25.7619 34.0444 25.8092 33.867 25.9047 33.7182C25.9533 33.6578 26.0152 33.6108 26.0849 33.5813C26.1547 33.5517 26.2302 33.5404 26.305 33.5484C26.3595 33.5439 26.4142 33.5535 26.4644 33.5764C26.4918 33.5757 26.5188 33.5833 26.5423 33.5981C26.5658 33.613 26.5849 33.6345 26.5972 33.6603C26.6238 33.7182 26.6787 33.7443 26.7053 33.8003C26.7412 33.8795 26.7593 33.9663 26.7584 34.054C26.7609 34.1211 26.7519 34.1881 26.7318 34.2518H25.9578C25.9515 34.3184 25.9606 34.3856 25.9844 34.4477C26.0109 34.5037 26.0109 34.5596 26.0658 34.5876C26.0906 34.6156 26.1438 34.6436 26.1704 34.6716C26.2299 34.6965 26.2943 34.7061 26.3581 34.6996C26.4126 34.704 26.4673 34.6944 26.5175 34.6716C26.5652 34.65 26.6098 34.6217 26.6504 34.5876L26.7212 34.7761Z" fill="white"/>
<path d="M27.575 34.5224C27.5749 34.5009 27.5703 34.4797 27.5614 34.4603C27.5525 34.4409 27.5396 34.4239 27.5236 34.4105C27.4919 34.3763 27.4555 34.3473 27.4156 34.3246C27.3624 34.2967 27.3359 34.2967 27.2827 34.2705C27.2296 34.2444 27.1764 34.2425 27.1499 34.2146C27.1019 34.1924 27.0638 34.1517 27.0436 34.1007C27.0127 34.0502 26.9939 33.9926 26.9887 33.9328C26.9835 33.8847 26.9907 33.836 27.0093 33.7917C27.028 33.7474 27.0576 33.7092 27.095 33.6809C27.173 33.6227 27.2668 33.5926 27.3624 33.5951C27.4344 33.5886 27.5068 33.5982 27.575 33.6231C27.6281 33.6511 27.683 33.6511 27.7362 33.6809L27.683 33.8489C27.6565 33.8209 27.6015 33.8209 27.5502 33.791C27.4993 33.7686 27.4441 33.759 27.389 33.763C27.3093 33.763 27.2544 33.763 27.2296 33.791C27.211 33.8088 27.1965 33.8308 27.1872 33.8554C27.178 33.88 27.1743 33.9065 27.1764 33.9328C27.1768 33.9545 27.1818 33.9758 27.191 33.9951C27.2002 34.0145 27.2134 34.0315 27.2296 34.0448C27.242 34.062 27.2581 34.0761 27.2765 34.0858C27.295 34.0955 27.3153 34.1006 27.3359 34.1007C27.389 34.1287 27.4156 34.1287 27.4687 34.1567C27.5167 34.1784 27.5614 34.2073 27.6015 34.2425C27.6502 34.2633 27.6891 34.3036 27.7096 34.3545C27.7429 34.414 27.7612 34.4814 27.7627 34.5504C27.7697 34.5989 27.7603 34.6484 27.7362 34.6903C27.7167 34.7333 27.6897 34.7719 27.6565 34.8041C27.615 34.8368 27.5705 34.8649 27.5236 34.8881C27.464 34.9129 27.3997 34.9225 27.3359 34.9161C27.2546 34.9207 27.1733 34.9112 27.095 34.8881C27.0436 34.8601 26.9887 34.8601 26.9355 34.8303L26.9887 34.6623C27.0248 34.698 27.0721 34.7186 27.1215 34.7202C27.1811 34.745 27.2455 34.7546 27.3093 34.7482C27.3382 34.7503 27.3672 34.7462 27.3946 34.7363C27.422 34.7264 27.4472 34.7107 27.4687 34.6903C27.575 34.6623 27.575 34.6064 27.575 34.5224Z" fill="white"/>
</g>
<defs>
<clipPath id="clip0_340_3911">
<rect width="62" height="35" fill="white" transform="translate(0.375244)"/>
</clipPath>
</defs>
</svg>
