<svg width="42" height="42" viewBox="0 0 42 42" fill="none" xmlns="http://www.w3.org/2000/svg">
<g clip-path="url(#clip0_276_19711)">
<path d="M19.014 11.1C18.8079 10.5143 18.425 10.0069 17.9183 9.64799C17.4116 9.28904 16.806 9.09618 16.185 9.09601H13.86C13.2005 9.09786 12.5647 9.34296 12.0747 9.78437C11.5846 10.2258 11.2745 10.8325 11.2039 11.4883C11.1333 12.144 11.3071 12.8028 11.6921 13.3384C12.077 13.874 12.646 14.2488 13.29 14.391L16.824 15.165C17.5471 15.3228 18.1864 15.7424 18.6189 16.343C19.0514 16.9437 19.2465 17.683 19.1669 18.4189C19.0872 19.1547 18.7384 19.8351 18.1874 20.3293C17.6364 20.8235 16.9222 21.0966 16.182 21.096H14.181C13.5608 21.0963 12.9557 20.9043 12.4491 20.5465C11.9425 20.1887 11.5592 19.6826 11.352 19.098M15.186 9.09601V6.09601M15.186 24.096V21.096M20.907 40.497V24.747C20.907 23.7524 21.3021 22.7986 22.0054 22.0954C22.7086 21.3921 23.6625 20.997 24.657 20.997C25.6516 20.997 26.6054 21.3921 27.3087 22.0954C28.0119 22.7986 28.407 23.7524 28.407 24.747V32.997H34.407C35.9983 32.997 37.5244 33.6291 38.6497 34.7544C39.7749 35.8796 40.407 37.4057 40.407 38.997V40.497" stroke="#CAA9A3" stroke-width="1.71429" stroke-linecap="round" stroke-linejoin="round"/>
<path d="M15.189 28.692C12.4211 28.6916 9.71935 27.8463 7.44487 26.269C5.17038 24.6917 3.4316 22.4577 2.46101 19.8656C1.49042 17.2735 1.33427 14.4468 2.01344 11.7636C2.69262 9.08032 4.17474 6.66835 6.26166 4.85015C8.34858 3.03194 10.9408 1.89415 13.6918 1.58891C16.4428 1.28366 19.2214 1.8255 21.6561 3.14199C24.0909 4.45848 26.0657 6.48686 27.3166 8.95595C28.5675 11.425 29.0348 14.2172 28.656 16.959" stroke="#CAA9A3" stroke-width="1.71429" stroke-linecap="round"/>
</g>
<defs>
<clipPath id="clip0_276_19711">
<rect width="42" height="42" fill="white"/>
</clipPath>
</defs>
</svg>
