<svg width="254" height="59" viewBox="0 0 254 59" fill="none" xmlns="http://www.w3.org/2000/svg">
<path d="M209.352 26.3252C210.545 27.6225 211.143 29.0535 211.143 30.6182C211.143 31.8953 210.829 33.3357 210.201 34.9422C209.573 36.5487 208.858 38.0972 208.054 39.5903C207.251 41.0834 206.222 42.8073 204.966 44.7635H198.11C196.978 44.7635 196.046 44.4503 195.316 43.8212C194.584 43.1934 193.993 42.3956 193.539 41.4276C193.086 40.4597 192.725 39.4256 192.458 38.324C192.19 37.2224 191.974 36.1775 191.81 35.1893C191.645 34.2011 191.48 33.3884 191.316 32.7498C191.398 33.9851 191.378 35.2932 191.254 36.6716C191.129 38.0499 190.826 39.3527 190.342 40.5785C189.858 41.8029 189.096 42.8073 188.057 43.589C187.017 44.372 185.581 44.7621 183.749 44.7621C182.576 44.7621 181.515 44.6069 180.568 44.2991C179.621 43.9899 178.766 43.5579 178.005 43.0017L175.565 51.7106C173.486 53.4399 171.067 54.8291 168.309 55.8794C165.55 56.9296 162.451 57.4548 159.013 57.4548C155.966 57.4548 153.27 56.7083 150.922 55.2165C148.575 53.7234 146.82 51.7727 145.657 49.3643C144.494 46.9559 144.108 44.3409 144.499 41.5208C144.891 38.7006 146.249 35.921 148.575 33.1832C150.902 30.4454 154.401 28.0059 159.075 25.8648C156.069 27.9438 154.041 30.5696 152.992 33.7394C151.942 36.9105 151.911 39.8954 152.899 42.6953C153.702 44.7743 155.122 46.4159 157.161 47.6214C159.199 48.8256 161.525 49.448 164.14 49.4898C167.372 49.448 170.084 48.7433 172.278 47.3744C174.47 46.0055 176.216 44.426 177.513 42.6345C175.557 40.9052 174.208 38.702 173.467 36.0263L175.599 28.0586C175.619 28.6755 175.826 29.4437 176.217 30.359C176.607 31.2756 177.164 32.1963 177.885 33.1224C178.605 34.0485 179.491 34.8315 180.54 35.4701C181.59 36.1086 182.794 36.4272 184.153 36.4272C185.099 36.4272 185.913 36.2828 186.592 35.9952C187.271 35.7077 187.837 35.327 188.29 34.8531C188.744 34.3793 189.114 33.8595 189.403 33.2939C189.69 32.7282 189.917 32.1612 190.082 31.5956C190.246 31.0299 190.369 30.5102 190.453 30.0363C190.534 29.5625 190.602 29.1818 190.653 28.8929C190.704 28.6053 190.765 28.4555 190.838 28.4447C190.911 28.4352 191.019 28.604 191.162 28.9536C191.326 29.3654 191.563 29.9729 191.872 30.7761C192.18 31.5794 192.577 32.4083 193.061 33.2615C193.545 34.116 194.132 34.8572 194.822 35.4849C195.511 36.1127 196.309 36.4272 197.215 36.4272H207.776C205.882 35.0273 203.216 32.897 199.779 30.035L202.866 17.0952C203.011 18.5357 203.726 20.0396 205.013 21.6042C206.299 23.1689 207.747 24.7443 209.352 26.3292V26.3252Z" fill="#884B50"/>
<path d="M253.255 25.6232C253.719 28.1976 254.242 34.1714 251.617 35.1609C248.182 36.4569 244.494 37.0428 241.058 38.4252C238.163 39.5889 235.733 40.9214 233.769 42.4199C231.804 43.9184 229.858 45.7517 227.93 47.9198C226.711 49.2576 225.378 50.5644 223.93 51.8402C222.483 53.1173 220.887 54.2594 219.142 55.2705C217.396 56.2803 215.475 57.0431 213.375 57.5574C210.475 58.2675 207.846 58.3553 205.489 57.8193C203.132 57.2834 201.053 56.3033 199.252 54.879C197.451 53.4548 195.406 51.6431 194.179 49.6127C192.951 47.5823 192.54 45.4898 191.887 43.1705C194.152 50.6063 199.561 53.1294 208.111 50.7386C211.336 49.7153 214.174 48.2316 216.623 46.2863C219.072 44.3409 221.314 42.2714 223.353 40.0763C225.39 37.8825 227.416 35.8967 229.429 34.1214C231.442 32.3462 233.634 31.1042 236.005 30.3968C235.507 28.1031 235.57 25.9404 236.198 23.9114C236.824 21.8823 237.677 20.0882 238.759 18.5303C239.84 16.9724 241.306 15.2997 243.157 13.511C244.812 15.162 246.3 16.5674 247.623 17.727C248.846 18.7989 250.695 19.7372 251.711 20.9724C252.581 22.0322 252.939 24.0342 253.2 25.3478C253.217 25.4355 253.235 25.5287 253.252 25.6259L253.255 25.6232ZM242.442 28.7538L247.061 27.6225C246.085 26.9286 245.179 26.2604 244.344 25.6178C243.358 24.8847 242.215 24.3474 240.913 24.0099C239.611 23.6724 238.516 23.7183 237.625 24.1476C236.734 24.5783 236.387 25.584 236.584 27.1689C236.661 27.659 236.904 28.0869 237.313 28.4528C237.721 28.82 238.332 29.0454 239.148 29.1318C239.964 29.2182 241.062 29.0927 242.442 28.7552V28.7538Z" fill="#884B50"/>
<path d="M250.47 38.8721L253.055 41.4816C247.229 41.5181 240.847 44.6082 232.755 52.229L231.473 50.096C236.635 43.8603 243.125 40.4529 250.471 38.8721H250.47Z" fill="#331D1F"/>
<path d="M215.4 0.426766C218.456 7.34822 220.125 13.8836 220.4 20.0342C220.675 26.1834 219.946 31.6104 218.212 36.3111C216.476 41.0132 214.139 44.6244 211.197 47.1449C213.06 43.9508 215.892 33.8541 215.721 30.1106C215.55 26.3684 214.875 22.799 213.7 19.401C212.524 16.0044 211.528 12.1475 209.126 7.74107L215.4 0.425415V0.426766Z" fill="#331D1F"/>
<path d="M169.257 28.3191C170.169 28.9914 170.761 30.0052 171.031 31.362C171.298 32.7187 171.191 34.0012 170.708 35.2108C169.982 36.5001 168.934 37.1184 167.564 37.0644C166.194 37.0117 165.266 36.2989 164.783 34.9287C164.433 35.601 163.909 36.1788 163.211 36.6621C162.512 37.1467 161.544 37.3884 160.309 37.3884C159.074 37.3884 158.307 36.9456 157.851 36.0586C157.609 35.6023 157.474 35.092 157.447 34.5277C157.393 33.0765 157.756 31.7332 158.535 30.4966C158.319 31.5186 158.293 32.2975 158.454 32.8348C158.615 33.3721 158.87 33.7285 159.219 33.9027C159.568 34.0782 159.905 34.1646 160.228 34.1646C161.249 34.1646 162.048 34.0026 162.626 33.6813C163.203 33.3586 163.626 32.9428 163.894 32.4312C164.163 31.9209 164.337 31.3836 164.418 30.8193L165.587 31.3026C165.533 32.4582 165.386 33.4126 165.145 34.1646H170.666C169.483 32.901 168.274 31.9074 167.039 31.1824L169.255 28.3204L169.257 28.3191Z" fill="#331D1F"/>
<path d="M4.56351 44.3126L2.07006 38.7074H0.954956V47.1975H2.11731V41.46L4.14906 46.0177H4.97796L7.00971 41.3467V47.1975H8.17206V38.7074H7.05696L4.56351 44.3126Z" fill="#331D1F"/>
<path d="M12.5339 41.0483C11.7239 41.0483 11.0962 41.2954 10.6507 41.7895C10.2052 42.2836 9.98242 42.9829 9.98242 43.886V44.5691C9.98242 45.4372 10.2133 46.1068 10.6777 46.5779C11.1407 47.0491 11.7955 47.284 12.6392 47.284C13.0172 47.284 13.3925 47.2057 13.7665 47.0477C14.1404 46.8898 14.4766 46.667 14.7763 46.3795L13.9933 45.5965C13.807 45.772 13.5937 45.9083 13.3574 46.0055C13.1198 46.1027 12.8809 46.1513 12.6392 46.1513C12.1559 46.1513 11.782 46.0177 11.5147 45.749C11.2582 45.4898 11.1259 45.1213 11.1164 44.6461H14.9329V44.2492C14.9329 43.2367 14.7236 42.451 14.3051 41.8907C13.8866 41.3305 13.2953 41.0497 12.5326 41.0497L12.5339 41.0483ZM11.1191 43.6876C11.138 43.2124 11.2609 42.8371 11.489 42.5671C11.7374 42.2714 12.0871 42.1229 12.5339 42.1229C12.9038 42.1229 13.1981 42.2606 13.4182 42.5374C13.6382 42.8141 13.7651 43.1975 13.8002 43.6876H11.1178H11.1191Z" fill="#331D1F"/>
<path d="M19.342 41.0483C18.9842 41.0483 18.6562 41.1496 18.3578 41.3521C18.1216 41.5127 17.9231 41.7247 17.7598 41.9825V41.1361H16.5691V47.1962H17.7598V43.3595C17.7598 42.9896 17.8637 42.7008 18.0716 42.4929C18.2795 42.285 18.5725 42.181 18.9505 42.181C19.1611 42.181 19.346 42.2147 19.5053 42.2809C19.6646 42.347 19.7969 42.4442 19.9022 42.5725L20.6785 41.5208C20.5111 41.3656 20.3153 41.2481 20.0912 41.1671C19.8671 41.0875 19.6174 41.047 19.3406 41.047L19.342 41.0483Z" fill="#331D1F"/>
<path d="M23.8375 41.0483C23.3785 41.0483 22.96 41.1253 22.5847 41.2792C22.2094 41.4331 21.907 41.6477 21.6761 41.9245L22.5456 42.5198C22.7278 42.3835 22.9357 42.2795 23.1679 42.208C23.4001 42.1364 23.6337 42.1 23.8713 42.1C24.2601 42.1 24.5611 42.2107 24.7731 42.4294C24.985 42.6494 25.0917 42.9572 25.0917 43.3555V43.612H23.4217C22.74 43.612 22.2297 43.7605 21.8895 44.0588C21.5493 44.3572 21.3792 44.8067 21.3792 45.4102C21.3792 46.0447 21.5655 46.5158 21.9367 46.8236C22.308 47.1314 22.8655 47.2853 23.6094 47.2853C23.8618 47.2853 24.0886 47.2597 24.2897 47.207C24.4895 47.1544 24.6678 47.0761 24.8244 46.9708C24.9243 46.9033 25.0133 46.8223 25.093 46.7291V47.1976H26.2256V43.3028C26.2256 42.5873 26.0177 42.0325 25.6006 41.6383C25.1834 41.2454 24.5962 41.0483 23.8375 41.0483ZM24.7542 46.1689C24.5287 46.2661 24.1899 46.3147 23.7376 46.3147C23.3245 46.3147 23.0153 46.2404 22.8088 46.0933C22.6022 45.9461 22.4997 45.718 22.4997 45.4102C22.4997 45.1267 22.578 44.9147 22.7332 44.777C22.8885 44.6393 23.1207 44.5691 23.4285 44.5691H25.093V45.7139C25.093 45.9205 24.9796 46.0717 24.7542 46.1689Z" fill="#331D1F"/>
<path d="M31.9942 43.8806C31.7755 43.7632 31.5379 43.6849 31.2787 43.6444C31.0195 43.6039 30.7643 43.5755 30.5105 43.5593C30.2459 43.5404 29.9989 43.5188 29.7694 43.4945C29.5399 43.4715 29.3549 43.4203 29.2145 43.3393C29.0741 43.2596 29.0039 43.1286 29.0039 42.945C29.0039 42.6683 29.1052 42.4617 29.3077 42.3227C29.5102 42.185 29.8139 42.1148 30.2189 42.1148C30.4997 42.1148 30.7859 42.1634 31.0802 42.2606C31.3745 42.3578 31.6729 42.5036 31.9766 42.698L32.6948 41.8286C32.3371 41.564 31.9537 41.3669 31.5446 41.2386C31.1356 41.1104 30.6941 41.0456 30.2189 41.0456C29.44 41.0456 28.8541 41.2049 28.4612 41.5248C28.0684 41.8434 27.8713 42.324 27.8713 42.9666C27.8713 43.3203 27.9307 43.6025 28.0495 43.8131C28.1683 44.0237 28.3262 44.1816 28.5247 44.2883C28.7231 44.3949 28.9432 44.4692 29.1848 44.5097C29.4265 44.5502 29.6695 44.5812 29.9152 44.6001C30.2068 44.619 30.4808 44.6434 30.736 44.6731C30.9911 44.7028 31.1977 44.7635 31.3543 44.8566C31.5122 44.9498 31.5905 45.1091 31.5905 45.3359C31.5905 45.6275 31.4731 45.8462 31.2368 45.9933C31.0019 46.1391 30.6482 46.212 30.1771 46.212C29.8612 46.212 29.5439 46.1499 29.2226 46.0257C28.9013 45.9015 28.576 45.7139 28.2452 45.4655L27.5392 46.3349C27.8861 46.6494 28.2776 46.887 28.715 47.0436C29.1524 47.2016 29.6398 47.2799 30.1771 47.2799C31.0262 47.2799 31.6607 47.1179 32.0833 46.7952C32.5058 46.4726 32.7164 45.9852 32.7164 45.3359C32.7164 44.939 32.6503 44.6258 32.518 44.3963C32.3857 44.1668 32.2102 43.994 31.9928 43.8765L31.9942 43.8806Z" fill="#331D1F"/>
<path d="M41.8437 42.8465C42.377 42.7493 42.7685 42.5239 43.0169 42.1715C43.2653 41.8192 43.3908 41.4304 43.3908 41.0065C43.3908 40.3058 43.187 39.7469 42.7779 39.3311C42.3689 38.9153 41.7465 38.7061 40.9095 38.7061H37.5642V47.1962H41.0094C41.7762 47.1962 42.3837 46.9843 42.8306 46.5604C43.2788 46.1365 43.5015 45.5776 43.5015 44.885V44.8675C43.5015 44.3693 43.3571 43.9279 43.0668 43.5418C42.7766 43.157 42.3689 42.9248 41.8437 42.8465ZM40.6935 39.8104C41.1917 39.8104 41.5656 39.9157 41.814 40.1249C42.0624 40.3355 42.188 40.6528 42.188 41.0767C42.188 41.4776 42.0759 41.7827 41.8518 41.9906C41.6277 42.1985 41.2956 42.3025 40.8569 42.3025H38.7495V39.809H40.6935V39.8104ZM42.3 44.7797C42.3 45.1726 42.1691 45.4898 41.9058 45.7315C41.6426 45.9731 41.1971 46.0933 40.5653 46.0933H38.7495V43.3784H40.8569C41.3712 43.3784 41.7398 43.504 41.9639 43.7551C42.188 44.0062 42.3 44.3423 42.3 44.7622V44.7797Z" fill="#331D1F"/>
<path d="M48.8219 44.9606C48.8219 45.3386 48.7153 45.6315 48.5033 45.8394C48.2914 46.0473 47.989 46.1513 47.5948 46.1513C47.2006 46.1513 46.8968 46.0352 46.6808 45.8044C46.4648 45.5735 46.3568 45.2455 46.3568 44.8202V41.136H45.1661V44.8202C45.1661 45.6019 45.3484 46.2093 45.7115 46.6386C46.076 47.0693 46.5917 47.284 47.2613 47.284C47.7014 47.284 48.0578 47.1759 48.3305 46.9599C48.5452 46.7898 48.7072 46.6009 48.8206 46.3943V47.1962H50.0059V41.136H48.8206V44.9606H48.8219Z" fill="#331D1F"/>
<path d="M55.7758 43.8806C55.5571 43.7632 55.3195 43.6849 55.0603 43.6444C54.8011 43.6039 54.5459 43.5755 54.2921 43.5593C54.0275 43.5404 53.7805 43.5188 53.551 43.4945C53.3215 43.4715 53.1366 43.4203 52.9962 43.3393C52.8558 43.2596 52.7856 43.1286 52.7856 42.945C52.7856 42.6683 52.8868 42.4617 53.0893 42.3227C53.2918 42.185 53.5956 42.1148 54.0006 42.1148C54.2814 42.1148 54.5675 42.1634 54.8618 42.2606C55.1561 42.3578 55.4545 42.5036 55.7582 42.698L56.4765 41.8286C56.1187 41.564 55.7353 41.3669 55.3262 41.2386C54.9172 41.1104 54.4758 41.0456 54.0006 41.0456C53.2216 41.0456 52.6357 41.2049 52.2428 41.5248C51.85 41.8434 51.6529 42.324 51.6529 42.9666C51.6529 43.3203 51.7123 43.6025 51.8311 43.8131C51.9499 44.0237 52.1078 44.1816 52.3063 44.2883C52.5047 44.3949 52.7248 44.4692 52.9665 44.5097C53.2081 44.5502 53.4511 44.5812 53.6968 44.6001C53.9884 44.619 54.2624 44.6434 54.5176 44.6731C54.7727 44.7028 54.9793 44.7635 55.1359 44.8566C55.2938 44.9498 55.3721 45.1091 55.3721 45.3359C55.3721 45.6275 55.2547 45.8462 55.0184 45.9933C54.7835 46.1391 54.4298 46.212 53.9587 46.212C53.6428 46.212 53.3256 46.1499 53.0043 46.0257C52.683 45.9015 52.3576 45.7139 52.0268 45.4655L51.3208 46.3349C51.6678 46.6494 52.0593 46.887 52.498 47.0436C52.9354 47.2016 53.4227 47.2799 53.96 47.2799C54.8092 47.2799 55.4437 47.1179 55.8662 46.7952C56.2888 46.4726 56.4994 45.9852 56.4994 45.3359C56.4994 44.939 56.4332 44.6258 56.3009 44.3963C56.1686 44.1668 55.9932 43.994 55.7758 43.8765V43.8806Z" fill="#331D1F"/>
<path d="M59.2088 38.7074H58.0181V39.8981H59.2088V38.7074Z" fill="#331D1F"/>
<path d="M59.2088 41.136H58.0181V47.1962H59.2088V41.136Z" fill="#331D1F"/>
<path d="M63.8218 41.0483C63.4559 41.0483 63.1225 41.1483 62.8201 41.3467C62.5798 41.5047 62.3773 41.7166 62.2099 41.9798V41.1361H61.0192V47.1962H62.2099V43.3595C62.2099 42.9856 62.3165 42.6953 62.5285 42.4901C62.7404 42.2836 63.0415 42.181 63.4303 42.181C63.8191 42.181 64.1471 42.2985 64.3672 42.5307C64.5872 42.7642 64.6966 43.095 64.6966 43.5229V47.1962H65.8873V43.5175C65.8873 42.7318 65.7077 42.1229 65.3473 41.6923C64.9868 41.2616 64.4779 41.047 63.8204 41.047L63.8218 41.0483Z" fill="#331D1F"/>
<path d="M70.0749 41.0483C69.2649 41.0483 68.6372 41.2954 68.1917 41.7895C67.7462 42.2836 67.5234 42.9829 67.5234 43.886V44.5691C67.5234 45.4372 67.7556 46.1068 68.2187 46.5779C68.6817 47.0491 69.3351 47.284 70.1802 47.284C70.5582 47.284 70.9335 47.2057 71.3075 47.0477C71.6814 46.8898 72.0176 46.667 72.3173 46.3795L71.5356 45.5965C71.3493 45.772 71.136 45.9083 70.8998 46.0055C70.6635 46.1027 70.4232 46.1513 70.1816 46.1513C69.6983 46.1513 69.3243 46.0177 69.057 45.749C68.8005 45.4898 68.6682 45.1213 68.6588 44.6461H72.4752V44.2492C72.4752 43.2367 72.266 42.451 71.8475 41.8907C71.429 41.3305 70.8377 41.0497 70.0749 41.0497V41.0483ZM68.6601 43.6876C68.679 43.2124 68.8019 42.8371 69.03 42.5671C69.2784 42.2714 69.6281 42.1229 70.0749 42.1229C70.4448 42.1229 70.7391 42.2606 70.9592 42.5374C71.1792 42.8141 71.3061 43.1975 71.3412 43.6876H68.6588H68.6601Z" fill="#331D1F"/>
<path d="M78.0683 43.8806C77.8496 43.7632 77.612 43.6849 77.3528 43.6444C77.0936 43.6039 76.8384 43.5755 76.5846 43.5593C76.32 43.5404 76.073 43.5188 75.8435 43.4945C75.614 43.4702 75.429 43.4203 75.2886 43.3393C75.1482 43.2596 75.078 43.1286 75.078 42.945C75.078 42.6683 75.1793 42.4617 75.3818 42.3227C75.5843 42.185 75.888 42.1148 76.293 42.1148C76.5738 42.1148 76.86 42.1634 77.1543 42.2606C77.4486 42.3578 77.747 42.5036 78.0507 42.698L78.7689 41.8286C78.4112 41.564 78.0278 41.3669 77.6187 41.2386C77.2097 41.1104 76.7682 41.0456 76.293 41.0456C75.5141 41.0456 74.9282 41.2049 74.5353 41.5248C74.1425 41.8434 73.9454 42.324 73.9454 42.9666C73.9454 43.3203 74.0048 43.6025 74.1236 43.8131C74.2424 44.0237 74.4003 44.1816 74.6001 44.2883C74.7986 44.3949 75.0186 44.4692 75.2603 44.5097C75.5019 44.5502 75.7449 44.5812 75.9906 44.6001C76.2822 44.619 76.5563 44.6434 76.8114 44.6731C77.0666 44.7028 77.2731 44.7635 77.4297 44.8566C77.5877 44.9498 77.666 45.1091 77.666 45.3359C77.666 45.6275 77.5485 45.8462 77.3123 45.9933C77.076 46.1391 76.7237 46.212 76.2525 46.212C75.9366 46.212 75.6194 46.1499 75.2981 46.0257C74.9768 45.9015 74.6514 45.7139 74.3207 45.4655L73.6146 46.3349C73.9616 46.6494 74.3531 46.887 74.7905 47.0436C75.2279 47.2016 75.7166 47.2799 76.2525 47.2799C77.1017 47.2799 77.7362 47.1179 78.1587 46.7952C78.5813 46.4726 78.7919 45.9852 78.7919 45.3359C78.7919 44.939 78.7257 44.6258 78.5934 44.3963C78.4611 44.1668 78.2856 43.994 78.0683 43.8765V43.8806Z" fill="#331D1F"/>
<path d="M84.2688 43.8806C84.0501 43.7632 83.8125 43.6849 83.5533 43.6444C83.2941 43.6039 83.039 43.5755 82.7852 43.5593C82.5206 43.5404 82.2735 43.5188 82.044 43.4945C81.8145 43.4715 81.6296 43.4203 81.4892 43.3393C81.3488 43.2596 81.2786 43.1286 81.2786 42.945C81.2786 42.6683 81.3798 42.4617 81.5823 42.3227C81.7848 42.185 82.0886 42.1148 82.4936 42.1148C82.7744 42.1148 83.0606 42.1634 83.3549 42.2606C83.6492 42.3578 83.9475 42.5036 84.2513 42.698L84.9695 41.8286C84.6117 41.564 84.2283 41.3669 83.8193 41.2386C83.4102 41.1104 82.9688 41.0456 82.4936 41.0456C81.7146 41.0456 81.1287 41.2049 80.7359 41.5248C80.343 41.8448 80.1459 42.324 80.1459 42.9666C80.1459 43.3203 80.2053 43.6025 80.3241 43.8131C80.4429 44.0237 80.6009 44.1816 80.8007 44.2883C80.9991 44.3949 81.2192 44.4692 81.4608 44.5097C81.7025 44.5502 81.9455 44.5812 82.1912 44.6001C82.4828 44.619 82.7568 44.6434 83.012 44.6731C83.2671 44.7028 83.4737 44.7635 83.6303 44.8566C83.7882 44.9498 83.8665 45.1091 83.8665 45.3359C83.8665 45.6275 83.7491 45.8462 83.5128 45.9933C83.2766 46.1391 82.9242 46.212 82.4531 46.212C82.1385 46.212 81.8199 46.1499 81.4986 46.0257C81.1773 45.9015 80.852 45.7139 80.5212 45.4655L79.8152 46.3349C80.1621 46.6494 80.5536 46.887 80.991 47.0436C81.4284 47.2016 81.9171 47.2799 82.4531 47.2799C83.3022 47.2799 83.9367 47.1179 84.3593 46.7952C84.7818 46.4726 84.9924 45.9852 84.9924 45.3359C84.9924 44.939 84.9263 44.6258 84.794 44.3963C84.6617 44.1668 84.4862 43.994 84.2688 43.8765V43.8806Z" fill="#331D1F"/>
<path d="M94.6652 43.0072C94.4101 42.8411 94.1266 42.7156 93.8161 42.6278C93.5042 42.5401 93.1937 42.4658 92.8819 42.4024C92.5349 42.3322 92.2109 42.2579 91.9099 42.1769C91.6075 42.0973 91.3645 41.9731 91.1768 41.8057C90.9905 41.6383 90.896 41.3953 90.896 41.0753V41.0699C90.896 40.646 91.0567 40.318 91.378 40.0858C91.6993 39.8536 92.1502 39.7388 92.7293 39.7388C93.052 39.7388 93.3746 39.7969 93.6959 39.9143C94.0172 40.0318 94.3385 40.21 94.6625 40.4516L95.3402 39.5053C94.9271 39.2056 94.5032 38.9828 94.0672 38.837C93.6311 38.6912 93.1856 38.6183 92.7307 38.6183C91.7735 38.6183 91.031 38.8357 90.5059 39.269C89.9807 39.7037 89.7175 40.3153 89.7175 41.105V41.1104C89.7175 41.6045 89.7998 42.0001 89.9659 42.2957C90.1319 42.5914 90.3506 42.8182 90.6233 42.9761C90.896 43.1341 91.1944 43.2502 91.5197 43.3231C91.8451 43.396 92.1664 43.4608 92.4863 43.5161C92.8171 43.5701 93.1222 43.6403 93.4003 43.724C93.6784 43.8077 93.9038 43.9346 94.0753 44.1061C94.2467 44.2775 94.3318 44.5246 94.3318 44.8472V44.8526C94.3318 45.2657 94.163 45.587 93.8242 45.8165C93.4853 46.046 93.0088 46.1608 92.3932 46.1608C91.9382 46.1608 91.5157 46.0906 91.1269 45.9502C90.7381 45.8098 90.3817 45.5992 90.0577 45.3197L89.3165 46.231C89.5933 46.4645 89.8903 46.659 90.2075 46.8156C90.5248 46.9708 90.865 47.0882 91.2295 47.1665C91.594 47.2448 91.9814 47.2826 92.3945 47.2826C93.3827 47.2826 94.1495 47.0693 94.6949 46.64C95.2403 46.2107 95.513 45.606 95.513 44.8243V44.8121C95.513 44.3491 95.4361 43.9738 95.2822 43.6849C95.1283 43.3973 94.9244 43.1705 94.6693 43.0045L94.6652 43.0072Z" fill="#331D1F"/>
<path d="M99.4091 41.0483C98.6153 41.0483 97.9997 41.2765 97.5637 41.7314C97.1276 42.1864 96.9103 42.829 96.9103 43.6579V44.6447C96.9103 45.4817 97.1276 46.1311 97.5637 46.5914C97.9997 47.0531 98.6153 47.2826 99.4091 47.2826C100.203 47.2826 100.819 47.0545 101.255 46.5969C101.691 46.1392 101.908 45.4939 101.908 44.6609V43.6565C101.908 42.8276 101.689 42.185 101.255 41.7301C100.819 41.2751 100.203 41.047 99.4091 41.047V41.0483ZM100.717 44.6636C100.717 45.1348 100.604 45.5006 100.376 45.7612C100.148 46.0217 99.8263 46.1527 99.4091 46.1527C98.992 46.1527 98.6761 46.0217 98.4452 45.7612C98.2157 45.5006 98.101 45.1348 98.101 44.6636V43.6593C98.101 43.1881 98.2157 42.8249 98.4452 42.5671C98.6747 42.3106 98.996 42.1823 99.4091 42.1823C99.8222 42.1823 100.148 42.3106 100.376 42.5671C100.604 42.8236 100.717 43.1881 100.717 43.6593V44.6636Z" fill="#331D1F"/>
<path d="M104.889 45.9704C104.824 45.8881 104.793 45.776 104.793 45.6316V38.7061H103.602V45.6194C103.602 46.1297 103.726 46.5239 103.976 46.8047C104.225 47.0855 104.574 47.2246 105.021 47.2246H105.722V46.0919H105.161C105.044 46.0919 104.954 46.0514 104.89 45.9691L104.889 45.9704Z" fill="#331D1F"/>
<path d="M110.661 44.9606C110.661 45.3386 110.555 45.6315 110.343 45.8394C110.131 46.0473 109.828 46.1513 109.434 46.1513C109.04 46.1513 108.736 46.0352 108.52 45.8044C108.304 45.5735 108.196 45.2455 108.196 44.8202V41.136H107.006V44.8202C107.006 45.6019 107.188 46.2093 107.551 46.6386C107.916 47.0693 108.431 47.284 109.101 47.284C109.541 47.284 109.897 47.1759 110.17 46.9599C110.385 46.7898 110.547 46.6009 110.66 46.3943V47.1962H111.845V41.136H110.66V44.9606H110.661Z" fill="#331D1F"/>
<path d="M115.004 39.373H113.814V41.1361H113.189V42.2107H113.814V45.6208C113.814 46.1378 113.926 46.5361 114.15 46.8115C114.374 47.0882 114.734 47.2259 115.233 47.2259H115.921V46.0933H115.349C115.235 46.0933 115.15 46.0528 115.092 45.9704C115.034 45.8881 115.004 45.776 115.004 45.6316V42.2107H115.921V41.1361H115.004V39.373Z" fill="#331D1F"/>
<path d="M118.746 38.7074H117.556V39.8981H118.746V38.7074Z" fill="#331D1F"/>
<path d="M118.746 41.136H117.556V47.1962H118.746V41.136Z" fill="#331D1F"/>
<path d="M122.882 41.0483C122.088 41.0483 121.472 41.2765 121.036 41.7314C120.6 42.1864 120.383 42.829 120.383 43.6579V44.6447C120.383 45.4817 120.6 46.1311 121.036 46.5914C121.472 47.0518 122.088 47.2826 122.882 47.2826C123.675 47.2826 124.291 47.0545 124.727 46.5969C125.163 46.1392 125.38 45.4939 125.38 44.6609V43.6565C125.38 42.8276 125.162 42.185 124.727 41.7301C124.291 41.2751 123.675 41.047 122.882 41.047V41.0483ZM124.19 44.6636C124.19 45.1348 124.076 45.5006 123.848 45.7612C123.62 46.0217 123.299 46.1527 122.882 46.1527C122.464 46.1527 122.147 46.0217 121.918 45.7612C121.688 45.5006 121.573 45.1348 121.573 44.6636V43.6593C121.573 43.1881 121.688 42.8249 121.918 42.5671C122.147 42.3092 122.468 42.1823 122.882 42.1823C123.295 42.1823 123.62 42.3106 123.848 42.5671C124.076 42.8236 124.19 43.1881 124.19 43.6593V44.6636Z" fill="#331D1F"/>
<path d="M129.876 41.0483C129.51 41.0483 129.177 41.1483 128.874 41.3467C128.634 41.5047 128.431 41.7166 128.264 41.9798V41.1361H127.073V47.1962H128.264V43.3595C128.264 42.9856 128.371 42.6953 128.583 42.4901C128.795 42.2836 129.096 42.181 129.484 42.181C129.873 42.181 130.201 42.2985 130.421 42.5307C130.641 42.7642 130.751 43.095 130.751 43.5229V47.1962H131.941V43.5175C131.941 42.7318 131.762 42.1229 131.401 41.6923C131.041 41.2616 130.532 41.047 129.875 41.047L129.876 41.0483Z" fill="#331D1F"/>
<path d="M137.713 43.8806C137.494 43.7632 137.256 43.6849 136.997 43.6444C136.738 43.6039 136.483 43.5755 136.229 43.5593C135.964 43.5404 135.717 43.5188 135.488 43.4945C135.258 43.4715 135.073 43.4203 134.933 43.3393C134.793 43.2596 134.722 43.1286 134.722 42.945C134.722 42.6683 134.824 42.4617 135.026 42.3227C135.229 42.185 135.532 42.1148 135.937 42.1148C136.218 42.1148 136.504 42.1634 136.799 42.2606C137.093 42.3578 137.391 42.5036 137.695 42.698L138.413 41.8286C138.056 41.564 137.672 41.3669 137.263 41.2386C136.854 41.1104 136.413 41.0456 135.937 41.0456C135.158 41.0456 134.573 41.2049 134.18 41.5248C133.787 41.8448 133.59 42.324 133.59 42.9666C133.59 43.3203 133.649 43.6025 133.768 43.8131C133.887 44.0237 134.045 44.1816 134.243 44.2883C134.442 44.3949 134.662 44.4692 134.903 44.5097C135.145 44.5502 135.388 44.5812 135.634 44.6001C135.925 44.619 136.199 44.6434 136.454 44.6731C136.71 44.7028 136.916 44.7635 137.073 44.8566C137.231 44.9498 137.309 45.1091 137.309 45.3359C137.309 45.6275 137.192 45.8462 136.955 45.9933C136.72 46.1391 136.367 46.212 135.896 46.212C135.58 46.212 135.262 46.1499 134.941 46.0257C134.62 45.9015 134.294 45.7139 133.964 45.4655L133.258 46.3349C133.605 46.6494 133.996 46.887 134.435 47.0436C134.872 47.2016 135.36 47.2799 135.897 47.2799C136.746 47.2799 137.381 47.1179 137.803 46.7952C138.226 46.4726 138.436 45.9852 138.436 45.3359C138.436 44.939 138.37 44.6258 138.238 44.3963C138.106 44.1668 137.93 43.994 137.713 43.8765V43.8806Z" fill="#331D1F"/>
<path d="M8.86995 21.0737L7.6239 21.1142H7.56315L7.52265 22.2995L7.5834 23.3444L7.52265 24.5297V27.8048L7.5429 28.9699L7.52265 30.0553L7.60365 32.3665C6.69915 32.9497 5.77575 33.0293 4.73085 33.0698C4.18815 33.0698 3.7062 33.0091 3.26475 32.7485C2.48175 32.1653 2.21985 31.5835 2.17935 30.598L2.46015 29.3924L2.8422 28.1869L1.95795 27.925C1.8972 28.1869 1.7568 28.5285 1.6569 28.789C1.476 29.1508 1.3356 29.5922 1.21545 30.035C1.0953 30.4967 1.0548 30.9193 1.07505 31.462C1.0953 31.9439 1.03455 32.3665 1.1358 32.6878C1.2357 33.0496 1.4166 33.3506 1.6785 33.7124C1.92015 33.9136 2.0808 34.1539 2.38185 34.355C3.0042 34.7965 3.84795 34.9585 4.61205 34.9976C5.11425 34.9571 5.43555 34.9369 5.79735 34.8167C6.19965 34.6561 6.52095 34.5953 6.8625 34.4144C8.0073 33.892 8.38935 32.8876 8.79165 31.8022C8.8524 31.3797 8.89155 31.0381 8.89155 30.5561L8.93205 29.3708V28.1045L8.9118 27.0394L8.93205 25.7934V24.6485L8.89155 23.4228L8.9523 22.3171L8.8713 21.071L8.86995 21.0737Z" fill="#331D1F"/>
<path d="M39.6527 30.7586L39.5717 29.734L39.4718 29.3722C38.4067 29.5126 37.2011 29.6732 36.1157 29.6732C35.7539 29.4721 35.4529 29.2115 35.2315 29.0509C34.7698 28.6688 34.4876 28.5284 34.4876 27.8858C34.4876 27.5848 34.7482 27.223 35.0506 26.9408C35.2922 26.8207 35.8147 26.7599 36.0752 26.7599C36.5167 26.8207 36.8987 26.8396 37.3415 27.0205C37.5832 27.2216 37.864 27.3823 38.246 27.7036L38.9899 26.8598C38.8697 26.6384 38.7482 26.3981 38.5673 26.2172C38.3257 25.8959 38.0246 25.6543 37.7236 25.5139C37.4023 25.2925 37.0607 25.2128 36.6584 25.2128C35.6743 25.2128 34.9912 25.4936 34.3472 26.2577C34.0462 26.5993 33.6236 27.8251 33.6236 28.2868C33.6034 28.6891 33.9044 29.5328 34.1866 29.9338C33.8248 29.9743 33.544 29.9338 33.0215 29.954H30.2284C29.8463 29.9743 29.4643 29.8744 29.1632 29.5517C28.9621 29.3911 28.6408 29.009 28.5004 28.7282C28.2196 27.8642 27.9374 26.98 27.7565 26.0957L26.8318 26.0755C26.4295 26.1362 26.1082 26.0552 25.687 26.1956C25.3454 26.2955 25.0646 26.6182 24.8027 26.7991C24.5611 27.0205 24.26 27.2014 24.0791 27.5024C23.878 27.8642 23.7376 28.2058 23.6377 28.5878C23.5769 28.8295 23.5378 29.2507 23.5567 29.653C23.5567 29.7137 23.5567 29.7731 23.5769 29.8339C23.2759 29.9149 22.8938 29.954 22.3106 29.954H13.9312C13.5289 29.9743 12.9673 29.9743 12.6257 29.7326C12.3638 29.5517 12.3044 28.9294 12.3044 28.3664C12.3044 27.9047 12.3652 27.4822 12.3652 27.3215L12.3449 26.0552V23.524L12.2639 22.2982L12.3449 21.1534L10.9382 21.1331L10.9787 22.1983L10.9382 24.4285L10.999 25.5139L10.9585 26.4589V26.7005L11.0192 27.7859L10.9787 28.7107V28.9523C10.999 29.2939 11.0192 29.7961 11.1394 30.2389C11.3 30.9017 11.8427 31.6456 12.5663 31.7252C12.7877 31.7657 13.0483 31.7657 13.3696 31.7657H21.749C22.2107 31.7657 22.7129 31.705 23.2759 31.4039C23.5567 31.1623 23.7376 30.9017 23.8186 30.6398C23.8591 30.6803 23.8996 30.7397 23.9387 30.8005C24.2006 31.0813 24.6218 31.2824 25.2644 31.5241C25.4251 31.5848 26.3093 31.8859 26.5901 31.9858L28.0373 32.3678L28.4788 31.3229C28.5787 31.4039 28.6597 31.4633 28.7596 31.5241C28.9405 31.705 29.3428 31.7657 29.6641 31.7657H33.8437C34.2055 31.7252 34.5673 31.705 34.9291 31.705C35.2706 31.6645 35.6527 31.5646 35.9942 31.5646L36.6571 31.4444C36.9379 31.3837 37.22 31.304 37.5008 31.2635C37.8221 31.223 38.1434 31.1636 38.4458 31.0826C38.8873 30.9827 39.2099 30.841 39.6514 30.7613L39.6527 30.7586ZM27.4555 30.4765L26.1892 30.0944L25.0646 29.6125C24.7433 29.4721 24.5219 29.3911 24.5219 29.1103C24.6218 28.8295 24.823 28.2463 25.0646 27.8237C25.5263 27.7441 26.1892 27.6631 26.5915 27.6428C26.7926 28.0843 26.9735 28.5676 27.1544 29.009C27.2948 29.3303 27.4555 29.7529 27.6769 30.1147C27.7768 30.3158 27.8578 30.4967 27.9374 30.6574L27.4555 30.4765Z" fill="#331D1F"/>
<path d="M45.6804 31.1204C45.8816 31.0003 46.022 30.8396 46.1421 30.6385C46.2231 30.5183 46.2825 30.3779 46.3635 30.2362C46.5444 29.8541 46.5444 29.6341 46.6443 29.1116C46.6443 29.0711 46.6646 29.0509 46.6646 29.0117C46.7456 28.6297 46.6443 28.2679 46.5444 27.9668C46.5039 27.8467 46.4634 27.7454 46.4243 27.6455C46.2515 27.2135 46.0274 26.8544 45.7587 26.5007C45.7979 26.3941 45.8343 26.2861 45.8613 26.1781C45.9018 25.9567 45.8816 25.7758 45.9018 25.5152C45.9018 25.4153 45.9018 25.2938 45.9221 25.1737C45.9828 24.8929 45.9626 24.5311 45.9828 24.0883L46.0638 22.5817L46.0841 21.175L44.8178 21.1345L44.8583 22.6208C44.8583 22.822 44.7975 24.8105 44.7773 25.1318C44.7773 25.2547 44.7773 25.3492 44.7759 25.4302C44.7273 25.3897 44.6801 25.3505 44.6369 25.3127C44.5559 25.252 44.456 25.1926 44.375 25.1116C44.1333 24.9307 43.9335 24.7498 43.6514 24.5689C43.2693 24.307 43.0088 24.0464 42.6267 23.825C42.2852 23.6239 41.9639 23.4025 41.6426 23.1824C41.2605 22.8814 40.8987 22.5992 40.518 22.3792L39.9753 23.906C40.5977 24.3677 41.2619 24.851 41.9247 25.252C42.8454 25.7933 43.6851 26.386 44.4884 27.0691C44.3223 27.4876 43.9862 28.0573 43.7135 28.3664C43.6325 28.4474 43.5123 28.5878 43.3719 28.708C43.272 28.8079 43.0911 28.9888 42.8495 29.1697C42.7293 29.2493 42.5484 29.3708 42.3878 29.4505C42.2676 29.5315 42.1461 29.6111 41.9855 29.6921C41.8329 29.7893 41.6574 29.8865 41.4711 29.9783C41.2929 29.9716 41.1147 29.9621 40.9406 29.9527L40.7597 31.52C40.9001 31.5808 41.4428 31.7212 41.8653 31.7414H42.2069C42.5484 31.7414 42.9102 31.7212 43.0506 31.7414C43.2518 31.7617 43.4327 31.7617 43.5933 31.7414C43.9146 31.7212 44.2157 31.6807 44.4776 31.6213C44.8394 31.5605 45.1404 31.3999 45.4415 31.2392L45.6831 31.1191L45.6804 31.1204ZM43.3301 29.9351H43.1694C43.0871 29.9351 43.002 29.9392 42.917 29.9446C43.1681 29.788 43.4138 29.6111 43.5906 29.4329C43.7513 29.3128 43.9727 29.1521 44.1536 28.9915C44.2535 28.8916 44.3547 28.8106 44.4155 28.7498C44.6369 28.5487 44.7773 28.4285 44.8974 28.2476C44.9379 28.1869 45.0378 28.0465 45.0783 28.006C45.1215 27.9425 45.1593 27.8885 45.1931 27.8359C45.2012 27.8453 45.2093 27.8561 45.2187 27.8642C45.2592 27.8845 45.2795 27.925 45.2997 27.9641C45.5211 28.2652 45.7817 29.009 45.8627 29.3708C45.6818 29.5517 45.5009 29.6719 45.1593 29.8123C44.7773 29.9527 44.2751 29.9527 43.3314 29.9324L43.3301 29.9351Z" fill="#331D1F"/>
<path d="M49.9005 31.8035L49.8398 31.763L49.8803 30.6776L49.7993 29.6327V28.5473L49.8992 27.4619L49.8789 26.3765V25.3721L49.8992 24.2665C49.8789 23.9249 49.8384 23.5834 49.8384 23.2418C49.8384 22.9003 49.8587 22.5587 49.8789 22.2374L49.779 21.1129L48.4128 21.0724L48.4736 22.2172V23.2823L48.4938 24.3272C48.4128 25.0711 48.3939 25.7542 48.3939 26.4967L48.4547 27.4808L48.3939 28.5865L48.3737 29.6314L48.4344 31.7617L49.9019 31.8022L49.9005 31.8035Z" fill="#331D1F"/>
<path d="M62.2774 31.8035C62.3381 31.381 62.3773 31.0394 62.3773 30.5575L62.4178 29.3722V28.1059L62.3975 27.0407L62.4178 25.7947V24.6499L62.3773 23.4241L62.438 22.3184L62.357 21.0724L61.111 21.1129H61.0502L61.0097 22.2982L61.0705 23.3431L61.0097 24.5284V27.8035L61.03 28.9685L61.0097 30.0539L61.0907 32.3651C60.1862 32.9483 59.2628 33.028 58.2179 33.0685C57.6752 33.0685 57.1933 33.0077 56.7505 32.7472C55.9675 32.164 55.7056 31.5821 55.6651 30.5966L55.9459 29.3911L56.3279 28.1855L55.4437 27.9236C55.3829 28.1855 55.2425 28.5271 55.1426 28.7876C54.9617 29.1494 54.8213 29.5909 54.7012 30.0337C54.581 30.4954 54.5405 30.9179 54.5608 31.4606C54.581 31.9426 54.5203 32.3651 54.6215 32.6864C54.7214 33.0482 54.9023 33.3493 55.1642 33.7111C55.4059 33.9122 55.5665 34.1525 55.8676 34.3537C56.4899 34.7951 57.3337 34.9571 58.0978 34.9963C58.6 34.9558 58.9213 34.9355 59.2831 34.8154C59.6854 34.6547 60.0067 34.594 60.3482 34.4131C61.493 33.8906 61.8751 32.8862 62.2774 31.8008V31.8035Z" fill="#331D1F"/>
<path d="M95.6534 21.0535L94.2669 21.0737L94.3074 22.1389V23.2445L94.2669 24.3502L94.3466 26.44L94.3668 27.5254L94.2669 28.6108V29.7164C93.9254 29.8366 93.3827 29.9581 92.8602 29.9581H90.0671C90.0603 29.9581 90.0536 29.9594 90.0468 29.9594C89.4447 29.9581 88.439 29.9581 88.0178 29.4559C87.957 29.3762 87.8976 29.2952 87.8369 29.2142C88.0583 29.194 88.2783 29.1737 88.4997 29.1535L89.0829 29.1737L89.0424 27.7468H88.3796C87.0741 27.6658 85.7876 27.1838 84.7022 26.4602C84.6023 26.3995 84.5415 26.3198 84.4416 26.2591C83.8989 25.8568 83.417 25.576 82.7136 25.576C82.2911 25.576 81.9306 25.7771 81.689 25.8973C81.2475 26.1592 80.4632 27.0826 80.1014 27.5254L80.7237 28.2692L82.1709 27.2648C82.4126 27.2041 82.7136 27.3647 83.0147 27.466C83.2752 27.547 83.5574 27.6266 83.8584 27.767C84.2405 27.9479 84.4416 28.1693 84.8223 28.3097C85.1031 28.4096 85.3853 28.5109 85.6863 28.6513C85.6458 28.6715 85.5864 28.6918 85.5257 28.712C85.0437 28.9132 84.5415 29.0941 84.0393 29.194C83.2361 29.3749 82.4315 29.7367 81.6282 29.8973C81.5081 29.9176 81.3474 29.9581 81.207 29.9581C80.906 29.9581 80.5644 29.9783 80.1216 29.9581H77.3285C76.5846 29.8973 76.3241 29.8177 76.1229 29.657C75.8421 29.4559 75.8016 29.1953 75.7814 28.4312V27.9695L75.7611 27.2459L75.8016 25.9999L75.7611 24.7741L75.8408 23.528V21.1169H74.4746L74.4341 22.2415L74.4746 23.3066L74.3936 24.4312L74.4746 25.5166L74.4543 26.7221L74.3936 27.767L74.4543 28.9523C74.4341 29.2534 74.4948 29.5355 74.5151 29.8771C74.0331 29.9378 73.5903 29.9567 73.1084 29.9567H70.3152H69.2501C69.2298 29.7758 69.2096 29.5949 69.1691 29.3938C69.1083 29.0117 69.1083 28.6904 68.9679 28.2881C68.8073 27.8656 68.6669 27.4444 68.486 27.1231C68.1849 26.5601 67.3412 26.0377 66.6972 26.0377C65.6928 26.0377 65.25 26.6398 64.8086 27.4241C64.6277 27.7454 64.4265 28.1477 64.3671 28.469C64.2672 28.951 64.2861 29.2925 64.2672 29.6341C64.247 30.197 64.4684 30.5588 64.6088 30.8599C64.7897 31.2419 64.9908 31.4228 65.3121 31.5835C65.5335 31.7441 65.8346 31.7644 66.1964 31.7644H68.3861C68.2862 32.2261 68.1647 32.8498 67.7435 33.1306C67.1414 33.5518 66.5784 33.8542 65.8143 33.8542C65.3324 33.9149 64.8504 33.9149 64.1268 33.9352L64.1673 35.0003C64.9503 35.2217 65.4134 35.4229 65.9952 35.4229C67.5423 35.4229 68.5467 34.4981 68.9288 33.0725C69.1097 32.6513 69.1502 32.3489 69.2096 31.9277C69.2096 31.867 69.2298 31.8278 69.2298 31.7671H69.7523H72.5454C73.2083 31.7671 73.8509 31.6861 74.4341 31.2446C74.5745 31.1042 74.7149 30.9841 74.8364 30.8234C74.8566 30.8842 74.8971 30.9233 74.9363 30.9638C75.1374 31.2055 75.3386 31.4458 75.6396 31.5659C76.0217 31.6861 76.3835 31.7873 76.7642 31.7671H79.5573C79.9191 31.7468 80.3606 31.7873 80.7224 31.6672C80.9438 31.5862 81.6066 31.466 81.8672 31.3864C82.1682 31.2865 82.4895 31.1447 82.8311 30.9841C83.1524 30.8437 83.4534 30.683 83.7761 30.5818C84.4997 30.3401 85.1828 29.9986 85.8456 29.6368C86.1872 29.4761 86.4882 29.3762 86.8703 29.3155C86.931 29.8379 87.0917 30.7019 87.413 31.1042C87.9152 31.7468 88.7792 31.7671 89.5028 31.7671H92.2959C92.9183 31.7671 93.3408 31.7671 93.8228 31.6469C94.1643 31.5065 94.6058 31.3661 94.8677 31.0637C95.4306 30.2996 95.6507 29.6773 95.6507 28.7134V27.6077C95.6507 27.4471 95.6304 26.7437 95.6304 26.5426C95.6304 26.3819 95.5899 25.6988 95.5899 25.5179L95.6696 22.2428L95.6493 21.0575L95.6534 21.0535ZM66.357 30.0553C65.8953 30.0553 65.1515 30.035 65.1515 29.1305C65.1515 28.6081 65.2514 28.2868 65.493 27.925C65.6132 27.8642 65.8548 27.7643 66.2166 27.7643C66.5784 27.7643 66.9807 27.8251 67.302 28.0451C67.5234 28.1855 67.6436 28.5068 67.8852 28.8889C68.0661 29.1899 68.2065 29.5922 68.247 30.0539H66.3584L66.357 30.0553Z" fill="#331D1F"/>
<path d="M116.127 27.7238C116.046 27.3215 115.926 26.9408 115.847 26.5385L114.761 26.8004L114.54 26.9003C114.601 27.2824 114.761 27.8251 114.821 28.1869C114.881 28.4474 115.022 29.1508 115.022 29.4127C114.981 29.6341 114.902 29.8541 114.861 29.9756C114.66 30.0364 114.379 30.116 114.138 30.1363C113.595 30.0958 113.093 29.8946 112.631 29.6341C112.651 29.5733 112.671 29.4937 112.692 29.4127C112.732 29.2925 112.752 29.171 112.792 29.0509C112.912 28.7498 113.013 28.4083 113.174 27.9452L111.887 27.6239C111.767 28.4879 111.627 28.9496 111.365 29.5733C110.903 29.8744 110.279 29.9149 109.737 29.9149C109.395 29.9149 109.053 29.8541 108.812 29.734C108.671 29.6732 108.491 29.5531 108.31 29.4329C108.31 29.3924 108.289 29.3519 108.289 29.3128C108.21 29.032 108.108 28.7701 108.048 28.5487C107.948 28.1869 107.847 27.8656 107.786 27.7252L106.721 28.1477L106.298 28.2881C106.398 28.5095 106.56 28.951 106.68 29.3128C106.721 29.4127 106.761 29.4937 106.78 29.5936C106.941 29.9959 107.022 30.3577 107.162 30.7789C107.203 30.8788 107.223 30.9598 107.262 31.0394C107.382 31.4012 107.483 31.7225 107.543 32.0641C107.604 32.4259 107.663 32.7067 107.622 32.9078C107.462 33.1292 107.24 33.2089 106.839 33.4708C105.996 33.7921 105.091 34.0337 104.187 34.0729H104.067C103.524 34.0324 103.062 33.9919 102.7 33.8717C102.619 33.8312 102.54 33.811 102.479 33.7718C102.117 33.6517 101.857 33.3695 101.635 33.0685L101.554 32.9483C101.333 32.627 101.192 32.2247 101.294 31.682L101.495 30.5764L101.816 29.3303L101.052 29.1292C100.791 29.6719 100.59 30.2537 100.389 30.8369C100.249 31.2784 100.129 31.6604 100.068 32.1424C100.048 32.222 100.048 32.303 100.027 32.4029C100.007 32.8052 100.127 33.2872 100.269 33.6287C100.369 33.9703 100.57 34.3928 100.771 34.5926C100.993 34.9342 101.192 35.0746 101.475 35.296C101.836 35.4971 102.198 35.6173 102.54 35.6983C102.58 35.7185 102.621 35.7185 102.66 35.7388C103.062 35.8198 103.463 35.8198 103.906 35.8198C104.247 35.8198 104.67 35.7995 104.991 35.7388C105.032 35.7185 105.072 35.7185 105.111 35.6983C105.413 35.6375 105.674 35.5781 105.915 35.4769C106.035 35.4364 106.136 35.377 106.256 35.3162C106.437 35.1961 106.659 35.1353 106.879 35.0354C106.999 34.9949 107.12 34.9355 107.24 34.8545C107.401 34.6939 107.582 34.5535 107.743 34.4131C107.883 34.3132 108.003 34.2119 108.084 34.112C108.204 33.9311 108.285 33.7705 108.365 33.6301C108.426 33.4694 108.505 33.329 108.566 33.1481C108.686 32.6054 108.707 32.1032 108.707 31.5403C108.727 31.5605 108.767 31.5605 108.788 31.5808C109.17 31.7009 109.45 31.7414 109.792 31.7414H109.932C110.294 31.7414 110.555 31.7212 110.796 31.6415C110.877 31.6213 110.937 31.601 111.018 31.5605C111.278 31.3999 111.479 31.2797 111.66 31.1191C111.721 31.0786 111.78 31.0192 111.841 30.9584C111.861 30.9179 111.882 30.8774 111.922 30.8383C111.942 30.8788 111.983 30.899 112.003 30.9382C112.123 31.0583 112.264 31.1596 112.406 31.2595C112.607 31.3796 112.808 31.5011 113.008 31.5808C113.189 31.7009 113.369 31.7617 113.571 31.7819C113.691 31.8022 113.832 31.8022 113.953 31.8022C114.254 31.8022 114.475 31.7819 114.676 31.7212C114.877 31.6807 115.058 31.5808 115.239 31.4201C115.4 31.3391 115.52 31.219 115.621 31.0988C115.762 30.9584 115.882 30.7775 116.042 30.5966C116.083 30.436 116.123 30.2753 116.163 30.0944C116.223 29.8339 116.283 29.572 116.283 29.2507C116.283 29.09 116.262 28.9091 116.242 28.7282C116.242 28.4069 116.181 28.0451 116.122 27.7238H116.127Z" fill="#331D1F"/>
<path d="M119.805 31.8035L119.744 31.763L119.785 30.6776L119.704 29.6327V28.5473L119.804 27.4619L119.783 26.3765V25.3721L119.804 24.2665C119.783 23.9249 119.743 23.5834 119.743 23.2418C119.743 22.9003 119.763 22.5587 119.783 22.2374L119.683 21.1129L118.317 21.0724L118.378 22.2172V23.2823L118.398 24.3272C118.317 25.0711 118.298 25.7542 118.298 26.4967L118.359 27.4808L118.298 28.5865L118.278 29.6314L118.339 31.7617L119.806 31.8022L119.805 31.8035Z" fill="#331D1F"/>
<path d="M135.297 33.9932L136.664 33.6314V32.6675L135.458 32.9686L134.232 33.3911L133.448 33.6922L132.224 33.9932V34.9976L133.429 34.6966L135.297 33.9932Z" fill="#331D1F"/>
<path d="M138.512 27.925C138.492 27.4633 138.311 27.1217 138.11 26.7802C137.929 26.4184 137.707 26.1781 137.427 25.9364C137.125 25.7353 136.784 25.6151 136.361 25.6151C136.04 25.6151 135.678 25.715 135.437 25.8365C134.975 26.0377 134.272 26.8612 134.05 27.304C133.89 27.6253 133.688 28.1072 133.507 28.5298C133.286 28.9118 133.026 29.2736 132.724 29.6543C132.363 29.8757 131.74 29.9554 131.378 29.9554H125.812C125.19 29.9959 124.867 29.8757 124.566 29.815L124.426 29.7745C124.225 29.6935 124.024 29.5733 123.804 29.4329C123.704 29.1521 123.684 28.7296 123.562 28.4083C123.442 28.1072 123.301 27.7859 123.22 27.4444L121.954 27.9061C122.095 28.2071 122.115 28.6891 122.255 29.0711C122.296 29.171 122.316 29.2723 122.355 29.3722C122.475 29.7542 122.556 30.0553 122.656 30.3766C122.756 30.8788 122.817 31.1204 122.776 31.381C122.756 31.6618 122.736 31.8224 122.695 32.1046C122.575 32.326 122.354 32.5663 122.173 32.7269C122.132 32.7472 122.112 32.7877 122.073 32.8079C121.812 33.0091 121.51 33.1697 121.168 33.3709C120.666 33.4708 120.164 33.5315 119.481 33.5315V34.6372C119.843 34.8383 120.205 34.9787 120.786 34.9787H121.208C121.488 34.9585 121.73 34.9382 121.911 34.8586C122.232 34.6574 122.533 34.3969 122.795 34.1147C123.057 33.9136 123.198 33.6328 123.358 33.2912L123.419 33.1508C123.661 32.8093 123.86 31.8454 123.901 31.3823C124.041 31.4431 124.161 31.5227 124.283 31.5835C124.604 31.7441 124.926 31.7644 125.247 31.7644H130.833C131.939 31.7644 132.481 31.4836 133.144 30.6587C133.244 30.4981 133.366 30.3374 133.466 30.1768L134.169 30.4778L135.114 30.7789L136.179 31.2608L137.163 31.6024L137.706 31.5025C137.966 31.0408 138.529 29.7542 138.57 29.252C138.61 28.7903 138.529 28.3678 138.509 27.9263L138.512 27.925ZM137.367 29.7745L134.253 28.7093C134.434 28.3273 134.714 27.8858 134.956 27.4039C135.318 27.3634 135.578 27.304 135.901 27.304C136.322 27.2837 136.584 27.3836 136.865 27.6658C137.046 27.9871 137.186 28.249 137.287 28.6108C137.408 29.0927 137.468 29.4748 137.367 29.7758V29.7745Z" fill="#331D1F"/>
</svg>
