<svg width="44" height="42" viewBox="0 0 44 42" fill="none" xmlns="http://www.w3.org/2000/svg">
<path d="M13.1086 39.8118C8.8188 39.8118 5.30414 36.7843 5.30414 33.0568V29.4868C5.30414 28.7693 5.91696 28.1743 6.65596 28.1743C7.39495 28.1743 8.00778 28.7693 8.00778 29.4868C8.00778 31.6743 10.1886 33.3193 13.1086 33.3193C16.0285 33.3193 18.2095 31.6743 18.2095 29.4868C18.2095 28.7693 18.8223 28.1743 19.5613 28.1743C20.3003 28.1743 20.9131 28.7693 20.9131 29.4868V33.0568C20.9131 36.7843 17.4164 39.8118 13.1086 39.8118ZM8.47632 34.7718C9.26939 36.2068 11.0538 37.1868 13.1086 37.1868C15.1633 37.1868 16.9478 36.1893 17.7408 34.7718C16.4611 35.5243 14.875 35.9618 13.1086 35.9618C11.3422 35.9618 9.75604 35.5243 8.47632 34.7718Z" fill="#D4C4BA"/>
<path d="M13.1086 31.149C10.1526 31.149 7.50308 29.8365 6.18731 27.754C5.61053 26.844 5.30414 25.7765 5.30414 24.6915C5.30414 22.854 6.13324 21.139 7.64728 19.8615C10.5672 17.3765 15.5959 17.3766 18.5339 19.8441C20.0479 21.1391 20.8951 22.854 20.8951 24.6915C20.8951 25.7765 20.5887 26.844 20.0119 27.754C18.7141 29.8365 16.0646 31.149 13.1086 31.149ZM13.1086 20.5616C11.7027 20.5616 10.405 21.0165 9.43166 21.839C8.51242 22.609 8.00778 23.624 8.00778 24.6915C8.00778 25.304 8.16993 25.8641 8.49436 26.3891C9.32348 27.7191 11.0899 28.5416 13.1086 28.5416C15.1273 28.5416 16.8937 27.7191 17.7048 26.4066C18.0292 25.8991 18.1914 25.3216 18.1914 24.7091C18.1914 23.6416 17.6868 22.6265 16.7676 21.839C15.8123 21.0165 14.5145 20.5616 13.1086 20.5616Z" fill="#D4C4BA"/>
<path d="M13.1086 35.9625C8.65658 35.9625 5.30414 33.18 5.30414 29.505V24.6925C5.30414 20.965 8.80078 17.9375 13.1086 17.9375C15.1453 17.9375 17.092 18.62 18.5519 19.845C20.0659 21.14 20.9131 22.855 20.9131 24.6925V29.505C20.9131 33.18 17.5606 35.9625 13.1086 35.9625ZM13.1086 20.5625C10.2968 20.5625 8.00778 22.4175 8.00778 24.6925V29.505C8.00778 31.6925 10.1886 33.3375 13.1086 33.3375C16.0285 33.3375 18.2095 31.6925 18.2095 29.505V24.6925C18.2095 23.625 17.7048 22.61 16.7856 21.8225C15.8123 21.0175 14.5145 20.5625 13.1086 20.5625Z" fill="#D4C4BA"/>
<path d="M34.5036 25.9003C31.7819 25.9003 29.4748 23.9403 29.2585 21.4203C29.1143 19.9678 29.6551 18.5503 30.7365 17.5178C31.6377 16.6078 32.9175 16.1003 34.2693 16.1003H38.0364C39.8208 16.1528 41.1906 17.5178 41.1906 19.1978V22.8028C41.1906 24.4828 39.8208 25.8478 38.0904 25.9003H34.5036ZM37.9823 18.7253H34.2873C33.6565 18.7253 33.0797 18.9528 32.6651 19.3728C32.1424 19.8628 31.8901 20.5278 31.9622 21.1928C32.0523 22.3478 33.2059 23.2753 34.5036 23.2753H38.0364C38.2707 23.2753 38.487 23.0653 38.487 22.8028V19.1978C38.487 18.9353 38.2707 18.7428 37.9823 18.7253Z" fill="#D4C4BA"/>
<path d="M29.0247 37.1875H24.5187C23.7797 37.1875 23.1668 36.5925 23.1668 35.875C23.1668 35.1575 23.7797 34.5625 24.5187 34.5625H29.0247C33.675 34.5625 36.6851 31.64 36.6851 27.125V25.9H34.5041C31.7824 25.9 29.4753 23.94 29.2591 21.42C29.1149 19.9675 29.6558 18.55 30.7372 17.5175C31.6384 16.6075 32.918 16.1 34.2698 16.1H36.667V14.875C36.667 10.78 34.1979 7.96246 30.1965 7.50746C29.7639 7.43746 29.3852 7.4375 29.0067 7.4375H12.7849C12.3523 7.4375 11.9378 7.47248 11.5232 7.52498C7.55786 8.01498 5.1246 10.815 5.1246 14.875V18.375C5.1246 19.0925 4.51178 19.6875 3.77278 19.6875C3.03378 19.6875 2.42096 19.0925 2.42096 18.375V14.875C2.42096 9.485 5.84564 5.58252 11.1628 4.93502C11.6495 4.86502 12.2081 4.8125 12.7849 4.8125H29.0067C29.4393 4.8125 29.9981 4.83 30.5748 4.9175C35.892 5.5125 39.3707 9.4325 39.3707 14.875V17.4125C39.3707 18.13 38.7578 18.725 38.0189 18.725H34.2698C33.639 18.725 33.0624 18.9525 32.6478 19.3725C32.1251 19.8625 31.8726 20.5275 31.9447 21.1925C32.0348 22.3475 33.1885 23.275 34.4863 23.275H38.0369C38.7759 23.275 39.3887 23.87 39.3887 24.5875V27.125C39.3887 33.145 35.2251 37.1875 29.0247 37.1875Z" fill="#D4C4BA"/>
</svg>
